<svg height="512pt" viewBox="0 0 512 512" width="512pt" xmlns="http://www.w3.org/2000/svg"><path d="m512 256c0 141.386719-114.613281 256-256 256s-256-114.613281-256-256 114.613281-256 256-256 256 114.613281 256 256zm0 0" fill="#27488f"/><path d="m339.617188 498.015625c100.320312-34.652344 172.382812-129.914063 172.382812-242.015625 0-2.109375-.027344-4.210938-.078125-6.304688l-147.914063-147.917968-232.269531 160.222656 73.53125 73.53125-17.890625 10.25zm0 0" fill="#12254c"/><path d="m294.5 373.644531v-25.644531h-77v25.644531c0 11.621094-7.269531 22.003907-18.1875 25.980469l-118.398438 43.117188c45.785157 42.945312 107.359376 69.257812 175.085938 69.257812s129.300781-26.3125 175.085938-69.257812l-118.398438-43.117188c-10.917969-3.976562-18.1875-14.359375-18.1875-25.980469zm0 0" fill="#faa68e"/><path d="m431.085938 442.742188-118.398438-43.117188c-10.917969-3.976562-18.1875-14.359375-18.1875-25.980469v-25.644531h-38.691406v163.996094c.066406 0 .128906.003906.191406.003906 67.726562 0 129.300781-26.3125 175.085938-69.257812zm0 0" fill="#e09380"/><path d="m189.410156 239.902344c0 18.265625-14.804687 33.074218-33.070312 33.074218s-33.070313-14.808593-33.070313-33.074218c0-18.261719 14.804688-33.070313 33.070313-33.070313s33.070312 14.808594 33.070312 33.070313zm0 0" fill="#ffbeaa"/><path d="m388.730469 239.902344c0 18.265625-14.804688 33.074218-33.070313 33.074218s-33.070312-14.808593-33.070312-33.074218c0-18.261719 14.804687-33.070313 33.070312-33.070313s33.070313 14.808594 33.070313 33.070313zm0 0" fill="#faa68e"/><path d="m300.03125 363.714844-22.082031 11.34375c-13.777344 7.078125-30.121094 7.078125-43.898438 0l-22.082031-11.34375c-32.726562-16.8125-53.300781-50.511719-53.300781-87.304688v-86.074218c0-53.757813 43.574219-97.335938 97.332031-97.335938s97.332031 43.578125 97.332031 97.332031v86.078125c0 36.792969-20.574219 70.492188-53.300781 87.304688zm0 0" fill="#ffbeaa"/><path d="m256 93c-.0625 0-.128906.003906-.191406.003906v287.355469c7.59375.03125 15.191406-1.734375 22.136718-5.300781l22.085938-11.34375c32.726562-16.8125 53.300781-50.515625 53.300781-87.304688v-86.078125c0-53.753906-43.574219-97.332031-97.332031-97.332031zm0 0" fill="#faa68e"/><path d="m314.257812 81.667969h-10.09375c-4.082031 0-7.644531 2.199219-9.589843 5.46875-1.652344-3.242188-5.015625-5.46875-8.910157-5.46875h-70.164062c-47.21875 0-85.5 38.277343-85.5 85.5 0 16.65625 7.128906 31.648437 18.5 42.097656v68.234375h20v-56.300781c5.851562 2.019531 12.128906 3.132812 18.667969 3.132812h51.332031c25.949219 0 47.847656-17.292969 54.828125-40.980469 2.695313 23.074219 22.300781 40.980469 46.097656 40.980469 1.375 0 2.730469-.070312 4.074219-.1875v53.355469h20v-59.886719c13.398438-8.144531 22.351562-22.878906 22.351562-39.707031v-24.644531c0-39.542969-32.050781-71.59375-71.59375-71.59375zm0 0" fill="#ffe000"/><path d="m314.257812 81.667969h-10.09375c-4.082031 0-7.644531 2.199219-9.589843 5.46875-1.652344-3.242188-5.015625-5.46875-8.910157-5.46875h-29.855468v139.984375c18.015625-5.722656 32.164062-20.125 37.519531-38.300782 2.699219 23.074219 22.300781 40.980469 46.097656 40.980469 1.375 0 2.730469-.070312 4.074219-.1875v53.355469h20v-59.886719c13.402344-8.144531 22.351562-22.878906 22.351562-39.707031v-24.644531c0-39.542969-32.050781-71.59375-71.59375-71.59375zm0 0" fill="#ffc200"/><path d="m312.6875 399.625c-5.308594-1.933594-9.746094-5.390625-12.914062-9.761719l-43.773438 32.46875-43.773438-32.46875c-3.167968 4.371094-7.605468 7.824219-12.914062 9.757813l-118.398438 43.121094c45.785157 42.945312 107.359376 69.257812 175.085938 69.257812s129.300781-26.3125 175.085938-69.257812zm0 0" fill="#dbeeff"/><path d="m431.085938 442.742188-118.398438-43.117188c-5.308594-1.933594-9.746094-5.390625-12.914062-9.761719l-43.773438 32.46875-.191406-.140625v89.804688c.066406 0 .128906.003906.191406.003906 67.726562 0 129.300781-26.3125 175.085938-69.257812zm0 0" fill="#bfe1ff"/><path d="m268 461.707031h-24l-10-39.332031h44zm0 0" fill="#27488f"/><path d="m278 422.375h-22.191406v39.332031h12.191406zm0 0" fill="#12254c"/><path d="m236.710938 511.277344c6.367187.476562 12.800781.722656 19.289062.722656s12.921875-.246094 19.289062-.722656l-7.289062-49.570313h-24zm0 0" fill="#27488f"/><path d="m275.289062 511.277344-7.289062-49.570313h-12.191406v50.289063c.066406 0 .128906.003906.191406.003906 6.488281 0 12.921875-.246094 19.289062-.722656zm0 0" fill="#12254c"/><path d="m256 422.332031-36.332031 40-30.257813-63.332031 16.257813-14zm0 0" fill="#fff"/><path d="m189.410156 399-110.746094 41.617188c37.222657 35.761718 85.226563 60.378906 138.660157 68.476562zm0 0" fill="#4a7aff"/><path d="m256 422.332031 36.332031 40 30.257813-63.332031-16.257813-14zm0 0" fill="#e9edf5"/><path d="m433.335938 440.617188-110.746094-41.617188-27.914063 110.09375c53.433594-8.097656 101.4375-32.714844 138.660157-68.476562zm0 0" fill="#27488f"/><path d="m217.324219 509.09375-27.914063-110.09375-37.078125 63.332031 37.078125 18.667969-10.96875 19.027344c12.570313 3.992187 25.554688 7.046875 38.882813 9.066406zm0 0" fill="#27488f"/><path d="m294.675781 509.09375 27.914063-110.09375 37.078125 63.332031-37.078125 18.667969 10.96875 19.027344c-12.570313 3.992187-25.554688 7.046875-38.882813 9.066406zm0 0" fill="#12254c"/></svg>