<svg height="512pt" viewBox="0 0 512 512" width="512pt" xmlns="http://www.w3.org/2000/svg"><path d="m512 256c0 141.386719-114.613281 256-256 256s-256-114.613281-256-256 114.613281-256 256-256 256 114.613281 256 256zm0 0" fill="#ff432e"/><path d="m276.199219 511.210938c129.039062-10.074219 231.195312-115.820313 235.632812-246.363282l-134.269531-134.273437-8.007812 25.476562-96.054688-96.050781-115.308594 91.738281-98.191406 121.761719 87.222656 87.222656-11.84375 9.667969zm0 0" fill="#db0404"/><path d="m452 238.5h-25.894531c-5.546875-82.859375-70.546875-149.703125-152.605469-158.109375v-20.390625h-35v20.390625c-82.058594 8.40625-147.058594 75.25-152.605469 158.109375h-25.894531v35h27.128906c10.695313 77.238281 73.3125 138.113281 151.371094 146.109375v32.390625h35v-32.390625c78.058594-7.996094 140.675781-68.871094 151.371094-146.109375h27.128906zm-178.5 145.871094v-36.371094h-35v36.371094c-58.734375-7.605469-105.789062-52.96875-115.953125-110.871094h41.453125v-35h-43.007812c5.367187-63.546875 54.773437-114.746094 117.507812-122.871094v48.371094h35v-48.371094c62.734375 8.125 112.140625 59.324219 117.507812 122.871094h-43.007812v35h41.453125c-10.164063 57.902344-57.21875 103.265625-115.953125 110.871094zm0 0" fill="#ffe000"/><path d="m426.105469 238.5c-5.546875-82.859375-70.546875-149.703125-152.605469-158.109375v-20.390625h-17.691406v104h17.691406v-48.371094c62.734375 8.125 112.140625 59.324219 117.507812 122.871094h-43.007812v35h41.453125c-10.164063 57.902344-57.21875 103.265625-115.953125 110.871094v-36.371094h-17.691406v104h17.691406v-32.390625c78.058594-7.996094 140.675781-68.871094 151.371094-146.109375h27.128906v-35zm0 0" fill="#ffc200"/><path d="m233 316.75-52.875-52.875 24.75-24.75 28.125 28.125 84.625-84.625 24.75 24.75zm0 0" fill="#27488f"/><path d="m317.625 182.625-61.816406 61.816406v49.496094l86.566406-86.5625zm0 0" fill="#12254c"/></svg>