<svg height="512pt" viewBox="0 0 512 512" width="512pt" xmlns="http://www.w3.org/2000/svg"><path d="m512 256c0 141.386719-114.613281 256-256 256s-256-114.613281-256-256 114.613281-256 256-256 256 114.613281 256 256zm0 0" fill="#27488f"/><path d="m512 256c0-12.796875-.953125-25.371094-2.765625-37.664062l-112.113281-112.113282-302.398438 284.960938 116.988282 116.988281c14.386718 2.507813 29.183593 3.828125 44.289062 3.828125 141.386719 0 256-114.613281 256-256zm0 0" fill="#12254c"/><path d="m227.742188 510.441406c38.222656-5.03125 72.664062-22.042968 99.429687-47.144531l-83.261719-30.324219c-7.679687-2.796875-12.792968-10.101562-12.792968-18.273437v-18.035157h-54.148438v18.035157c0 8.171875-5.113281 15.476562-12.792969 18.273437l-66.488281 24.214844c36.601562 28.839844 81.265625 47.894531 130.054688 53.253906zm0 0" fill="#faa68e"/><path d="m327.171875 463.296875-83.261719-30.324219c-7.679687-2.796875-12.792968-10.097656-12.792968-18.273437v-18.03125h-27.09375v110.027343c7.785156 1.605469 15.695312 2.863282 23.71875 3.746094 38.222656-5.03125 72.664062-22.039062 99.429687-47.144531zm0 0" fill="#e09380"/><path d="m256 512c28.652344 0 56.199219-4.710938 81.921875-13.390625l-10.75-35.3125-83.261719-30.324219c-3.734375-1.359375-6.855468-3.792968-9.082031-6.863281l-30.785156 22.832031-30.785157-22.832031c-2.226562 3.074219-5.347656 5.503906-9.078124 6.863281l-66.492188 24.214844c43.5625 34.328125 98.542969 54.8125 158.3125 54.8125zm0 0" fill="#dbeeff"/><path d="m337.921875 498.609375-10.75-35.3125-83.261719-30.324219c-3.734375-1.359375-6.855468-3.792968-9.082031-6.863281l-30.785156 22.832031-.019531-.011718v57.777343c16.785156 3.460938 34.164062 5.292969 51.976562 5.292969 28.652344 0 56.199219-4.710938 81.921875-13.390625zm0 0" fill="#bfe1ff"/><path d="m204.042969 448.941406-25.550781 28.128906-21.277344-44.539062 11.429687-9.84375zm0 0" fill="#fff"/><path d="m204.042969 448.941406 25.550781 28.128906 21.277344-44.539062-11.429688-9.84375zm0 0" fill="#e9edf5"/><path d="m313.367188 301.222656c0-60.527344-48.945313-109.589844-109.324219-109.589844-60.375 0-109.320313 49.0625-109.320313 109.589844v89.960938h218.644532zm0 0" fill="#fe6a16"/><path d="m313.367188 301.222656c0-60.527344-48.945313-109.589844-109.324219-109.589844-.003907 0-.011719 0-.019531 0v199.546876h109.34375zm0 0" fill="#ff432e"/><path d="m160.960938 327.683594c0 12.84375-10.414063 23.253906-23.257813 23.253906s-23.257813-10.410156-23.257813-23.253906c0-12.847656 10.414063-23.257813 23.257813-23.257813s23.257813 10.410157 23.257813 23.257813zm0 0" fill="#ffbeaa"/><path d="m293.640625 327.683594c0 12.84375-10.414063 23.253906-23.257813 23.253906s-23.257812-10.410156-23.257812-23.253906c0-12.847656 10.414062-23.257813 23.257812-23.257813s23.257813 10.410157 23.257813 23.257813zm0 0" fill="#faa68e"/><path d="m235.007812 407.71875-15.53125 7.976562c-9.6875 4.976563-21.179687 4.976563-30.867187 0l-15.53125-7.976562c-23.015625-11.824219-37.484375-35.523438-37.484375-61.398438v-60.53125c0-37.804687 30.644531-68.449218 68.449219-68.449218 37.804687 0 68.449219 30.644531 68.449219 68.449218v60.53125c0 25.875-14.46875 49.574219-37.484376 61.398438zm0 0" fill="#ffcdbe"/><path d="m204.042969 217.339844c-.007813 0-.011719 0-.019531 0v202.089844c5.300781 0 10.605468-1.242188 15.453124-3.734376l15.53125-7.976562c23.015626-11.824219 37.484376-35.523438 37.484376-61.398438v-60.53125c0-37.804687-30.644532-68.449218-68.449219-68.449218zm0 0" fill="#ffbeaa"/><path d="m257.089844 318.382812h-104.6875c-11.484375 0-20.792969-9.308593-20.792969-20.792968v-40.570313c0-26.316406 21.332031-47.652343 47.648437-47.652343h50.980469c26.316407 0 47.648438 21.335937 47.648438 47.652343v40.570313c-.003907 11.484375-9.3125 20.792968-20.796875 20.792968zm0 0" fill="#fe6a16"/><path d="m230.234375 209.367188h-26.210937v109.015624h53.066406c11.484375 0 20.792968-9.308593 20.792968-20.792968v-40.570313c0-26.316406-21.332031-47.652343-47.648437-47.652343zm0 0" fill="#ff432e"/><path d="m198.59375 505.53125c3.601562.828125 7.238281 1.570312 10.898438 2.242188v-58.816407h-10.898438zm0 0" fill="#fff"/><path d="m209.492188 448.957031h-5.46875v57.753907c1.816406.375 3.640624.726562 5.46875 1.0625zm0 0" fill="#e9edf5"/><path d="m316.503906 70.332031c-59.921875 0-108.5 48.578125-108.5 108.5 0 23.230469 7.304688 44.753907 19.738282 62.402344l-19.738282 43.097656 61.09375-7.882812c14.324219 6.972656 30.40625 10.882812 47.40625 10.882812 59.925782 0 108.5-48.574219 108.5-108.5 0-59.921875-48.574218-108.5-108.5-108.5zm0 0" fill="#fff"/><path d="m425.003906 178.832031c0-59.71875-48.246094-108.160156-107.886718-108.492187v216.984375c59.640624-.332031 107.886718-48.773438 107.886718-108.492188zm0 0" fill="#e9edf5"/></svg>