<svg height="512pt" viewBox="0 0 512 512" width="512pt" xmlns="http://www.w3.org/2000/svg"><path d="m512 256c0 141.386719-114.613281 256-256 256s-256-114.613281-256-256 114.613281-256 256-256 256 114.613281 256 256zm0 0" fill="#ff432e"/><path d="m269.144531 511.667969c135.277344-6.84375 242.855469-118.691407 242.855469-255.667969 0-6.003906-.222656-11.957031-.628906-17.859375l-81.363282-81.363281-30.875 15.992187-49.132812-49.128906-279 171.953125 94.488281 94.488281-7.648437 10.277344zm0 0" fill="#db0404"/><path d="m219.039062 400.359375h-61.199218l-38.71875-110.460937h61.199218zm0 0" fill="#a3d4ff"/><path d="m180.324219 289.898438h-30.167969l37.585938 110.460937h31.296874zm0 0" fill="#87c7ff"/><path d="m350 363.921875-236.863281-68.328125v-103.628906l236.863281-68.324219zm0 0" fill="#fff"/><path d="m113.136719 242.808594v52.785156l236.863281 68.328125v-121.113281zm0 0" fill="#e9edf5"/><path d="m71 191.964844h42.136719v103.628906h-42.136719zm0 0" fill="#a3d4ff"/><path d="m71 242.808594h42.136719v52.785156h-42.136719zm0 0" fill="#87c7ff"/><path d="m374 232.78125h72v22h-72zm0 0" fill="#ffe000"/><path d="m374 243.78125h72v11h-72zm0 0" fill="#ffc200"/><path d="m358.277344 179.699219 59.183594-40.996094 12.527343 18.082031-59.183593 41zm0 0" fill="#ffe000"/><path d="m370.816406 289.757812 59.1875 40.996094-12.527344 18.085938-59.183593-41zm0 0" fill="#ffc200"/></svg>