<svg height="512pt" viewBox="0 0 512 512" width="512pt" xmlns="http://www.w3.org/2000/svg"><path d="m512 256c0 141.386719-114.613281 256-256 256s-256-114.613281-256-256 114.613281-256 256-256 256 114.613281 256 256zm0 0" fill="#27488f"/><path d="m292.410156 509.410156c124.136719-17.679687 219.589844-124.390625 219.589844-253.410156 0-17.25-1.71875-34.09375-4.96875-50.386719l-111.789062-111.789062-22.605469 61.8125-95.636719-95.636719-177 238.183594 143.183594 143.179687-8.183594 10.636719zm0 0" fill="#12254c"/><path d="m235 60h42v392h-42zm0 0" fill="#a3d4ff"/><path d="m255.808594 60h21.191406v392h-21.191406zm0 0" fill="#87c7ff"/><path d="m100 298.183594h253.488281v-131.996094h-253.488281l-50 66zm0 0" fill="#fff"/><path d="m50 232.1875 50 65.996094h253.488281v-65.996094zm0 0" fill="#e9edf5"/><path d="m395.242188 225.816406h-253.488282v-131.992187h253.488282l50 65.996093zm0 0" fill="#ffe000"/><path d="m141.753906 159.820312v65.996094h253.488282l50-65.996094zm0 0" fill="#ffc200"/></svg>