<svg height="512pt" viewBox="0 0 512 512" width="512pt" xmlns="http://www.w3.org/2000/svg"><path d="m512 256c0 141.386719-114.613281 256-256 256s-256-114.613281-256-256 114.613281-256 256-256 256 114.613281 256 256zm0 0" fill="#ff432e"/><path d="m511.824219 265.066406-164.429688-164.429687-2.570312 5.4375-26.9375-26.9375-31.175781 138.539062-138.535157-138.539062-56.507812 277.222656 155.472656 155.472656c2.941406.097657 5.890625.167969 8.859375.167969 138.347656 0 251.046875-109.75 255.824219-246.933594zm0 0" fill="#db0404"/><path d="m91.667969 100.636719h255.726562v255.722656h-255.726562zm0 0" fill="#fff"/><path d="m220.09375 100.636719h127.300781v255.722656h-127.300781zm0 0" fill="#e9edf5"/><path d="m201.054688 330.671875-22.15625-15.429687 64.230468-92.246094h-68.519531v-27h94.371094l11.078125 21.214844zm0 0" fill="#27488f"/><path d="m268.980469 195.996094h-48.886719v27h23.035156l-23.035156 33.082031v47.246094l59.964844-86.113281zm0 0" fill="#12254c"/><path d="m91.667969 100.636719h255.726562v74.808593h-255.726562zm0 0" fill="#ffe000"/><path d="m220.09375 100.636719h127.300781v74.808593h-127.300781zm0 0" fill="#ffc200"/><path d="m406.644531 341.125c0 58.171875-47.15625 105.328125-105.324219 105.328125-58.171874 0-105.328124-47.15625-105.328124-105.328125 0-58.167969 47.15625-105.324219 105.328124-105.324219 58.167969 0 105.324219 47.15625 105.324219 105.324219zm0 0" fill="#27488f"/><path d="m301.320312 235.800781c-.289062 0-.578124.007813-.867187.007813v210.632812c.289063 0 .578125.011719.867187.011719 58.167969 0 105.324219-47.15625 105.324219-105.328125.003907-58.167969-47.152343-105.324219-105.324219-105.324219zm0 0" fill="#12254c"/><path d="m385.375 341.125c0 46.421875-37.632812 84.054688-84.054688 84.054688-46.421874 0-84.054687-37.632813-84.054687-84.054688s37.632813-84.054688 84.054687-84.054688c46.421876 0 84.054688 37.632813 84.054688 84.054688zm0 0" fill="#fff"/><path d="m301.320312 257.070312c-.292968 0-.578124.019532-.867187.023438v168.066406c.289063 0 .574219.019532.867187.019532 46.421876 0 84.054688-37.632813 84.054688-84.054688s-37.632812-84.054688-84.054688-84.054688zm0 0" fill="#e9edf5"/><path d="m121.175781 79.136719h27v50.996093h-27zm0 0" fill="#27488f"/><path d="m290.886719 79.136719h27v50.996093h-27zm0 0" fill="#12254c"/><path d="m301.320312 352.125h-39.320312v-22h28.320312v-51.125h22v62.125zm0 0" fill="#27488f"/><path d="m300.453125 279v73.125h.867187l11-11v-62.125zm0 0" fill="#12254c"/></svg>