<svg height="512pt" viewBox="0 0 512 512" width="512pt" xmlns="http://www.w3.org/2000/svg"><path d="m512 256c0 141.386719-114.613281 256-256 256s-256-114.613281-256-256 114.613281-256 256-256 256 114.613281 256 256zm0 0" fill="#27488f"/><path d="m509.65625 290.65625-230.65625-230.65625-76.480469 51.835938-125.519531 224.105468 176.019531 176.019532c.992188.011718 1.984375.039062 2.980469.039062 129.628906 0 236.738281-96.351562 253.65625-221.34375zm0 0" fill="#12254c"/><path d="m77 335.941406 125.550781-224.105468 129.449219 224.105468zm0 0" fill="#ff432e"/><path d="m202.550781 111.835938-.3125.558593v223.546875h129.761719zm0 0" fill="#db0404"/><path d="m202.550781 111.835938-44.910156 80.164062h91.214844zm0 0" fill="#fff"/><path d="m202.550781 111.835938-.3125 80.164062h46.617188zm0 0" fill="#e9edf5"/><path d="m238.691406 335.941406 97.621094-174.246094 100.648438 174.246094zm0 0" fill="#fe8205"/><path d="m336.3125 161.695312-.144531.257813v173.988281h100.792969zm0 0" fill="#fe6a16"/><path d="m336.3125 161.695312-34.34375 61.304688h69.753906zm0 0" fill="#fff"/><path d="m336.3125 161.695312-.144531 61.304688h35.554687zm0 0" fill="#e9edf5"/><path d="m279 111.835938c-25.25-16.589844-51.230469 16.589843-76.480469 0 0-17.277344 0-34.558594 0-51.835938 25.25 16.585938 51.230469-16.589844 76.480469 0zm0 0" fill="#ffe000"/><path d="m238.546875 60.84375v51.835938c13.484375-4.367188 26.96875-9.703126 40.453125-.84375 0-17.277344 0-34.558594 0-51.835938-13.484375-8.859375-26.96875-3.527344-40.453125.84375zm0 0" fill="#ffc200"/></svg>