<svg height="512pt" viewBox="0 0 512 512" width="512pt" xmlns="http://www.w3.org/2000/svg"><path d="m512 256c0 141.386719-114.613281 256-256 256s-256-114.613281-256-256 114.613281-256 256-256 256 114.613281 256 256zm0 0" fill="#27488f"/><path d="m393.046875 138.777344-274.386719 234.09375 139.109375 139.105468c139.996094-.949218 253.289063-114.257812 254.207031-254.265624zm0 0" fill="#12254c"/><path d="m436.34375 256c0 99.601562-80.742188 180.34375-180.34375 180.34375s-180.34375-80.742188-180.34375-180.34375 80.742188-180.34375 180.34375-180.34375 180.34375 80.742188 180.34375 180.34375zm0 0" fill="#ff432e"/><path d="m256 75.65625c-.0625 0-.128906.003906-.191406.003906v360.679688c.066406 0 .128906.003906.191406.003906 99.601562 0 180.34375-80.742188 180.34375-180.34375s-80.742188-180.34375-180.34375-180.34375zm0 0" fill="#db0404"/><path d="m397.390625 256c0 78.085938-63.304687 141.390625-141.390625 141.390625s-141.390625-63.304687-141.390625-141.390625 63.304687-141.390625 141.390625-141.390625 141.390625 63.304687 141.390625 141.390625zm0 0" fill="#fff"/><path d="m256 114.609375c-.0625 0-.128906.003906-.191406.003906v282.773438h.191406c78.085938 0 141.390625-63.300781 141.390625-141.386719 0-78.089844-63.304687-141.390625-141.390625-141.390625zm0 0" fill="#e9edf5"/><path d="m351.6875 256c0 52.847656-42.839844 95.6875-95.6875 95.6875s-95.6875-42.839844-95.6875-95.6875 42.839844-95.6875 95.6875-95.6875 95.6875 42.839844 95.6875 95.6875zm0 0" fill="#ff432e"/><path d="m256 160.3125c-.0625 0-.128906.003906-.191406.003906v191.367188h.191406c52.847656 0 95.6875-42.839844 95.6875-95.683594 0-52.847656-42.839844-95.6875-95.6875-95.6875zm0 0" fill="#db0404"/><path d="m307.042969 256c0 28.191406-22.851563 51.042969-51.042969 51.042969s-51.042969-22.851563-51.042969-51.042969 22.851563-51.042969 51.042969-51.042969 51.042969 22.851563 51.042969 51.042969zm0 0" fill="#fff"/><path d="m256 204.957031c-.0625 0-.128906.007813-.191406.007813v102.070312c.066406 0 .128906.007813.191406.007813 28.191406 0 51.042969-22.851563 51.042969-51.042969s-22.851563-51.042969-51.042969-51.042969zm0 0" fill="#e9edf5"/><path d="m376.90625 301.34375h-39.105469l-70.992187-58.464844-21.617188 26.242188 68.902344 56.746094v38.285156l64.597656 64.597656v-62.8125h62.808594zm0 0" fill="#0053bf"/><path d="m376.90625 301.34375h-39.105469l-70.992187-58.464844-11.109375 13.484375 122.992187 109.574219h62.808594zm0 0" fill="#27488f"/></svg>