<svg height="512pt" viewBox="0 0 512 512" width="512pt" xmlns="http://www.w3.org/2000/svg"><path d="m512 256c0 141.386719-114.613281 256-256 256s-256-114.613281-256-256 114.613281-256 256-256 256 114.613281 256 256zm0 0" fill="#27488f"/><path d="m512 256c0-12.371094-.894531-24.53125-2.59375-36.4375l-80.757812-80.757812h-148.964844l67.324218 67.324218-236.402343 194.941406 108.234375 108.234376c12.136718 1.765624 24.539062 2.695312 37.160156 2.695312 141.386719 0 256-114.613281 256-256zm0 0" fill="#12254c"/><path d="m428.648438 138.804688-74.480469-74.480469-74.484375 74.480469h40.242187v53.859374h-69.46875v69.46875h-70.382812v69.46875h-69.46875v69.46875h278.789062v-262.265624zm0 0" fill="#fff"/><path d="m354.167969 64.324219-74.484375 74.480469h40.242187v53.859374h-69.46875v208.40625h138.9375v-262.265624h39.253907zm0 0" fill="#e9edf5"/></svg>