<svg height="512pt" viewBox="0 0 512 512" width="512pt" xmlns="http://www.w3.org/2000/svg"><path d="m512 256c0 141.386719-114.613281 256-256 256s-256-114.613281-256-256 114.613281-256 256-256 256 114.613281 256 256zm0 0" fill="#27488f"/><path d="m100.546875 340.199219 171.296875 171.296875c134.003906-8.183594 240.15625-119.433594 240.15625-255.496094 0-2.140625-.027344-4.277344-.082031-6.40625l-133.992188-133.996094zm0 0" fill="#12254c"/><path d="m294.5 373.644531v-25.644531h-77v25.644531c0 11.621094-7.269531 22.003907-18.1875 25.980469l-118.398438 43.117188c45.785157 42.945312 107.359376 69.257812 175.085938 69.257812s129.300781-26.3125 175.085938-69.257812l-118.398438-43.117188c-10.917969-3.976562-18.1875-14.359375-18.1875-25.980469zm0 0" fill="#faa68e"/><path d="m431.085938 442.742188-118.398438-43.117188c-10.917969-3.976562-18.1875-14.359375-18.1875-25.980469v-25.644531h-38.691406v163.996094c.066406 0 .128906.003906.191406.003906 67.726562 0 129.300781-26.3125 175.085938-69.257812zm0 0" fill="#e09380"/><path d="m312.6875 399.625c-5.308594-1.933594-9.746094-5.390625-12.914062-9.761719l-43.773438 32.46875-43.773438-32.46875c-3.167968 4.371094-7.605468 7.824219-12.914062 9.757813l-118.398438 43.121094c45.785157 42.945312 107.359376 69.257812 175.085938 69.257812s129.300781-26.3125 175.085938-69.257812zm0 0" fill="#dbeeff"/><path d="m431.085938 442.742188-118.398438-43.117188c-5.308594-1.933594-9.746094-5.390625-12.914062-9.761719l-43.773438 32.46875-.191406-.140625v89.804688c.066406 0 .128906.003906.191406.003906 67.726562 0 129.300781-26.3125 175.085938-69.257812zm0 0" fill="#bfe1ff"/><path d="m256 422.332031-36.332031 40-30.257813-63.332031 16.257813-14zm0 0" fill="#fff"/><path d="m256 422.332031 36.332031 40 30.257813-63.332031-16.257813-14zm0 0" fill="#e9edf5"/><path d="m411.453125 212.277344c0-86.0625-69.597656-155.832032-155.453125-155.832032s-155.453125 69.769532-155.453125 155.832032v127.921875h310.90625zm0 0" fill="#fe6a16"/><path d="m411.453125 212.277344c0-86.0625-69.597656-155.832032-155.453125-155.832032-.0625 0-.125 0-.1875 0v283.753907h155.640625zm0 0" fill="#ff432e"/><path d="m194.738281 249.902344c0 18.265625-14.808593 33.074218-33.070312 33.074218-18.265625 0-33.070313-14.808593-33.070313-33.074218 0-18.261719 14.804688-33.070313 33.070313-33.070313 18.261719 0 33.070312 14.808594 33.070312 33.070313zm0 0" fill="#ffbeaa"/><path d="m383.402344 249.902344c0 18.265625-14.804688 33.074218-33.070313 33.074218-18.261719 0-33.070312-14.808593-33.070312-33.074218 0-18.261719 14.808593-33.070313 33.070312-33.070313 18.265625 0 33.070313 14.808594 33.070313 33.070313zm0 0" fill="#faa68e"/><path d="m300.03125 363.714844-22.082031 11.34375c-13.777344 7.078125-30.121094 7.078125-43.898438 0l-22.082031-11.34375c-32.726562-16.8125-53.300781-50.511719-53.300781-87.304688v-86.074218c0-53.757813 43.574219-97.335938 97.332031-97.335938s97.332031 43.578125 97.332031 97.332031v86.078125c0 36.792969-20.574219 70.492188-53.300781 87.304688zm0 0" fill="#ffcdbe"/><path d="m256 93c-.0625 0-.128906.003906-.191406.003906v287.355469c7.59375.03125 15.191406-1.734375 22.136718-5.300781l22.085938-11.34375c32.726562-16.8125 53.300781-50.515625 53.300781-87.304688v-86.078125c0-53.753906-43.574219-97.332031-97.332031-97.332031zm0 0" fill="#ffbeaa"/><path d="m331.433594 236.683594h-148.867188c-16.328125 0-29.566406-13.238282-29.566406-29.566406v-57.695313c0-37.417969 30.335938-67.753906 67.753906-67.753906h72.492188c37.417968 0 67.753906 30.335937 67.753906 67.753906v57.695313c0 16.328124-13.238281 29.566406-29.566406 29.566406zm0 0" fill="#fe6a16"/><path d="m293.246094 81.667969h-37.4375v155.015625h75.625c16.328125 0 29.566406-13.238282 29.566406-29.566406v-57.695313c0-37.417969-30.335938-67.753906-67.753906-67.753906zm0 0" fill="#ff432e"/><path d="m248.25 511.871094c2.574219.078125 5.15625.128906 7.75.128906s5.175781-.050781 7.75-.128906v-89.515625h-15.5zm0 0" fill="#fff"/><path d="m255.808594 422.355469v89.640625c.066406 0 .128906.003906.191406.003906 2.59375 0 5.175781-.050781 7.75-.128906v-89.515625zm0 0" fill="#e9edf5"/></svg>