<svg height="512pt" viewBox="0 0 512 512" width="512pt" xmlns="http://www.w3.org/2000/svg"><path d="m512 256c0 141.386719-114.613281 256-256 256s-256-114.613281-256-256 114.613281-256 256-256 256 114.613281 256 256zm0 0" fill="#ffe000"/><path d="m512 256c0-14.894531-1.285156-29.488281-3.726562-43.683594l-103.542969-103.546875-38.03125 10.679688v26.679687l-91.066407-91.066406-29.132812 7.9375-8.691406 33.859375 26.476562 26.09375-37.265625 65.367187-79.546875-79.546874-33.140625 7.226562-7.0625 32.972656 105.03125 105.027344h-101.847656l-18.933594-18.933594-31.519531 11.433594-6.710938 30.34375 99.265626 99.265625-14.054688 29.222656-31.226562.898438 101.382812 101.382812c15.34375 2.871094 31.164062 4.386719 47.34375 4.386719 141.386719 0 256-114.613281 256-256zm0 0" fill="#ffc200"/><path d="m246.5 91.519531h19v328.960938h-19zm0 0" fill="#ff432e"/><path d="m255.808594 91.519531h9.691406v328.960938h-9.691406zm0 0" fill="#db0404"/><path d="m91.519531 246.5h328.960938v19h-328.960938zm0 0" fill="#ff432e"/><path d="m255.808594 246.5h164.671875v19h-164.671875zm0 0" fill="#db0404"/><path d="m132.972656 365.59375 232.609375-232.609375 13.433594 13.433594-232.605469 232.609375zm0 0" fill="#ff432e"/><path d="m365.589844 132.976562-109.78125 109.777344v26.871094l123.214844-123.214844zm0 0" fill="#db0404"/><path d="m132.972656 146.414062 13.4375-13.433593 232.601563 232.601562-13.433594 13.433594zm0 0" fill="#ff432e"/><path d="m379.019531 365.585938-123.210937-123.210938v26.871094l109.773437 109.773437zm0 0" fill="#db0404"/><path d="m361.667969 256c0 58.359375-47.308594 105.667969-105.667969 105.667969s-105.667969-47.308594-105.667969-105.667969 47.308594-105.667969 105.667969-105.667969 105.667969 47.308594 105.667969 105.667969zm0 0" fill="#27488f"/><path d="m256 150.332031c-.0625 0-.128906.003907-.191406.003907v211.328124h.191406c58.359375 0 105.667969-47.304687 105.667969-105.664062s-47.308594-105.667969-105.667969-105.667969zm0 0" fill="#12254c"/><path d="m271.890625 304.558594v-10.585938h-31.78125v10.585938c0 4.796875-3 9.082031-7.507813 10.722656l-48.871093 17.796875c18.898437 17.726563 44.316406 28.585937 72.269531 28.585937s53.371094-10.859374 72.269531-28.585937l-48.871093-17.796875c-4.507813-1.640625-7.507813-5.925781-7.507813-10.722656zm0 0" fill="#faa68e"/><path d="m328.269531 333.082031-48.871093-17.800781c-4.507813-1.640625-7.507813-5.925781-7.507813-10.722656v-10.582032h-16.082031v67.6875c.0625 0 .128906.003907.191406.003907 27.953125 0 53.371094-10.863281 72.269531-28.585938zm0 0" fill="#e09380"/><path d="m228.515625 249.355469c0 7.539062-6.113281 13.652343-13.652344 13.652343-7.539062 0-13.648437-6.113281-13.648437-13.652343 0-7.539063 6.109375-13.648438 13.648437-13.648438 7.539063 0 13.652344 6.109375 13.652344 13.648438zm0 0" fill="#ffbeaa"/><path d="m310.785156 249.355469c0 7.539062-6.109375 13.652343-13.648437 13.652343-7.539063 0-13.652344-6.113281-13.652344-13.652343 0-7.539063 6.113281-13.648438 13.652344-13.648438 7.539062 0 13.648437 6.109375 13.648437 13.648438zm0 0" fill="#faa68e"/><path d="m274.175781 300.460938-9.117187 4.683593c-5.683594 2.917969-12.429688 2.917969-18.117188 0l-9.113281-4.683593c-13.507813-6.941407-22.003906-20.851563-22.003906-36.035157v-35.53125c0-22.1875 17.988281-40.171875 40.175781-40.171875s40.175781 17.984375 40.175781 40.171875v35.53125c0 15.183594-8.492187 29.09375-22 36.035157zm0 0" fill="#ffbeaa"/><path d="m256 188.71875c-.0625 0-.128906.007812-.191406.007812v118.601563c3.171875.03125 6.347656-.695313 9.25-2.183594l9.117187-4.683593c13.507813-6.941407 22-20.851563 22-36.035157v-35.53125c0-22.1875-17.988281-40.175781-40.175781-40.175781zm0 0" fill="#faa68e"/><path d="m280.046875 184.042969h-4.164063c-1.6875 0-3.15625.90625-3.960937 2.257812-.683594-1.339843-2.070313-2.257812-3.675781-2.257812h-28.964844c-19.488281 0-35.289062 15.800781-35.289062 35.289062 0 6.878907 2.941406 13.0625 7.636718 17.378907v28.164062h8.253906v-23.238281c2.414063.832031 5.007813 1.292969 7.707032 1.292969h21.1875c10.710937 0 19.746094-7.140626 22.628906-16.917969 1.113281 9.523437 9.207031 16.917969 19.027344 16.917969.566406 0 1.128906-.03125 1.683594-.078126v22.023438h8.253906v-24.722656c5.53125-3.359375 9.226562-9.441406 9.226562-16.386719v-10.171875c0-16.320312-13.230468-29.550781-29.550781-29.550781zm0 0" fill="#ffe000"/><path d="m280.046875 184.042969h-4.164063c-1.6875 0-3.15625.90625-3.960937 2.257812-.683594-1.339843-2.070313-2.257812-3.675781-2.257812h-12.4375v57.800781c7.488281-2.335938 13.378906-8.292969 15.597656-15.832031 1.113281 9.523437 9.207031 16.917969 19.027344 16.917969.570312 0 1.128906-.03125 1.683594-.078126v22.023438h8.253906v-24.71875c5.53125-3.363281 9.226562-9.445312 9.226562-16.390625v-10.171875c0-16.320312-13.230468-29.550781-29.550781-29.550781zm0 0" fill="#ffc200"/><path d="m279.398438 315.28125c-2.191407-.796875-4.023438-2.222656-5.328126-4.027344l-18.070312 13.402344-18.066406-13.402344c-1.308594 1.804688-3.140625 3.230469-5.332032 4.027344l-48.867187 17.796875c18.898437 17.726563 44.3125 28.585937 72.265625 28.585937 27.957031 0 53.371094-10.859374 72.269531-28.585937zm0 0" fill="#dbeeff"/><path d="m328.269531 333.082031-48.871093-17.800781c-2.191407-.796875-4.023438-2.222656-5.328126-4.027344l-18.070312 13.402344-.191406-.140625v37.148437c.0625 0 .128906.003907.191406.003907 27.953125 0 53.371094-10.863281 72.269531-28.585938zm0 0" fill="#bfe1ff"/><path d="m260.953125 340.90625h-9.90625l-4.128906-16.234375h18.164062zm0 0" fill="#27488f"/><g fill="#12254c"><path d="m265.082031 324.671875h-9.273437v16.234375h5.144531zm0 0"/><path d="m248.039062 361.367188c2.625.199218 5.28125.296874 7.960938.296874s5.332031-.101562 7.960938-.296874l-3.007813-20.460938h-9.90625zm0 0"/><path d="m263.960938 361.367188-3.007813-20.460938h-5.144531v20.757812h.191406c2.679688.003907 5.332031-.097656 7.960938-.296874zm0 0"/></g><path d="m256 324.65625-14.996094 16.507812-12.488281-26.140624 6.707031-5.777344zm0 0" fill="#fff"/><path d="m228.515625 315.023438-45.710937 17.179687c15.359374 14.761719 35.175781 24.921875 57.230468 28.265625zm0 0" fill="#2864f0"/><path d="m256 324.65625 14.996094 16.507812 12.488281-26.140624-6.707031-5.777344zm0 0" fill="#e9edf5"/><path d="m329.195312 332.203125-45.710937-17.179687-11.519531 45.441406c22.054687-3.339844 41.871094-13.5 57.230468-28.261719zm0 0" fill="#0053bf"/><path d="m240.035156 360.46875-11.519531-45.445312-15.304687 26.140624 15.304687 7.707032-4.527344 7.851562c5.1875 1.648438 10.546875 2.910156 16.046875 3.746094zm0 0" fill="#12254c"/><path d="m271.964844 360.46875 11.519531-45.445312 15.304687 26.140624-15.304687 7.707032 4.527344 7.851562c-5.1875 1.648438-10.546875 2.910156-16.046875 3.746094zm0 0" fill="#12254c"/><path d="m256 104.019531c-15.675781 0-28.425781-12.75-28.425781-28.425781s12.75-28.425781 28.425781-28.425781 28.425781 12.75 28.425781 28.425781-12.75 28.425781-28.425781 28.425781zm0-37.851562c-5.199219 0-9.425781 4.226562-9.425781 9.425781 0 5.195312 4.226562 9.425781 9.425781 9.425781s9.425781-4.230469 9.425781-9.425781c0-5.199219-4.226562-9.425781-9.425781-9.425781zm0 0" fill="#ff432e"/><path d="m256 104.019531c-15.675781 0-28.425781-12.75-28.425781-28.425781s12.75-28.425781 28.425781-28.425781 28.425781 12.75 28.425781 28.425781-12.75 28.425781-28.425781 28.425781zm0-37.851562c-5.199219 0-9.425781 4.226562-9.425781 9.425781 0 5.195312 4.226562 9.425781 9.425781 9.425781s9.425781-4.230469 9.425781-9.425781c0-5.199219-4.226562-9.425781-9.425781-9.425781zm0 0" fill="#ff432e"/><path d="m256 47.167969c-.0625 0-.128906.003906-.191406.003906v19.003906c.066406 0 .128906-.007812.191406-.007812 5.199219 0 9.425781 4.226562 9.425781 9.425781 0 5.195312-4.226562 9.425781-9.425781 9.425781-.0625 0-.125-.007812-.191406-.007812v19.003906c.066406 0 .128906.003906.191406.003906 15.675781 0 28.425781-12.75 28.425781-28.425781s-12.75-28.425781-28.425781-28.425781zm0 0" fill="#db0404"/><path d="m246.574219 75.59375c0-5.132812 4.125-9.316406 9.234375-9.417969v-19.003906c-15.585938.101563-28.234375 12.8125-28.234375 28.421875s12.648437 28.316406 28.234375 28.421875v-19.003906c-5.109375-.105469-9.234375-4.285157-9.234375-9.417969zm0 0" fill="#ff432e"/><path d="m256 467.832031c-15.675781 0-28.425781-12.75-28.425781-28.425781s12.75-28.425781 28.425781-28.425781 28.425781 12.75 28.425781 28.425781-12.75 28.425781-28.425781 28.425781zm0-37.851562c-5.199219 0-9.425781 4.230469-9.425781 9.425781s4.226562 9.425781 9.425781 9.425781 9.425781-4.226562 9.425781-9.425781-4.226562-9.425781-9.425781-9.425781zm0 0" fill="#ff432e"/><path d="m256 410.980469c-.0625 0-.128906.003906-.191406.003906v19.003906c.066406 0 .128906-.007812.191406-.007812 5.199219 0 9.425781 4.230469 9.425781 9.425781s-4.226562 9.425781-9.425781 9.425781c-.0625 0-.125-.007812-.191406-.007812v19.003906c.066406 0 .128906.003906.191406.003906 15.675781 0 28.425781-12.75 28.425781-28.425781s-12.75-28.425781-28.425781-28.425781zm0 0" fill="#db0404"/><path d="m437.90625 285.925781c-15.675781 0-28.425781-12.75-28.425781-28.425781s12.75-28.425781 28.425781-28.425781 28.425781 12.75 28.425781 28.425781-12.75 28.425781-28.425781 28.425781zm0-37.851562c-5.195312 0-9.425781 4.230469-9.425781 9.425781s4.230469 9.425781 9.425781 9.425781c5.199219 0 9.425781-4.226562 9.425781-9.425781s-4.226562-9.425781-9.425781-9.425781zm0 0" fill="#db0404"/><path d="m74.09375 285.925781c-15.675781 0-28.425781-12.75-28.425781-28.425781s12.75-28.425781 28.425781-28.425781 28.425781 12.75 28.425781 28.425781-12.75 28.425781-28.425781 28.425781zm0-37.851562c-5.199219 0-9.425781 4.226562-9.425781 9.425781s4.226562 9.425781 9.425781 9.425781c5.195312 0 9.425781-4.230469 9.425781-9.425781s-4.230469-9.425781-9.425781-9.425781zm0 0" fill="#ff432e"/><path d="m384.628906 157.300781c-7.59375 0-14.730468-2.957031-20.101562-8.328125-11.082032-11.082031-11.085938-29.117187 0-40.199218 11.082031-11.082032 29.117187-11.085938 40.199218 0 5.371094 5.367187 8.328126 12.507812 8.328126 20.097656 0 7.59375-2.957032 14.734375-8.328126 20.101562-5.367187 5.371094-12.503906 8.328125-20.097656 8.328125zm0-37.851562c-2.414062 0-4.828125.917969-6.667968 2.757812-3.675782 3.675781-3.675782 9.65625 0 13.332031 1.78125 1.78125 4.148437 2.761719 6.667968 2.761719 2.515625 0 4.882813-.980469 6.664063-2.761719s2.761719-4.148437 2.761719-6.667968c0-2.515625-.980469-4.882813-2.761719-6.664063-1.835938-1.839843-4.253907-2.757812-6.664063-2.757812zm0 0" fill="#db0404"/><path d="m127.375 414.542969c-7.28125 0-14.5625-2.773438-20.101562-8.3125-11.085938-11.085938-11.085938-29.117188 0-40.203125 11.082031-11.082032 29.117187-11.082032 40.199218 0 11.082032 11.085937 11.082032 29.117187 0 40.203125-5.539062 5.539062-12.820312 8.3125-20.097656 8.3125zm0-37.835938c-2.414062 0-4.828125.917969-6.667969 2.757813-3.675781 3.675781-3.675781 9.65625 0 13.332031 3.675781 3.671875 9.65625 3.671875 13.332031 0 3.675782-3.679687 3.675782-9.65625 0-13.332031-1.835937-1.839844-4.253906-2.757813-6.664062-2.757813zm0 0" fill="#ff432e"/><path d="m127.371094 157.285156c-7.277344 0-14.558594-2.769531-20.101563-8.3125-5.367187-5.371094-8.324219-12.507812-8.324219-20.101562s2.957032-14.730469 8.324219-20.101563c11.085938-11.082031 29.121094-11.082031 40.203125 0 11.082032 11.085938 11.082032 29.117188 0 40.203125-5.539062 5.542969-12.820312 8.3125-20.101562 8.3125zm0-37.835937c-2.410156 0-4.824219.917969-6.664063 2.757812-1.78125 1.78125-2.761719 4.148438-2.761719 6.664063 0 2.519531.980469 4.886718 2.761719 6.667968 3.675781 3.675782 9.65625 3.675782 13.332031 0 3.675782-3.675781 3.675782-9.65625 0-13.332031-1.839843-1.839843-4.253906-2.757812-6.667968-2.757812zm0 0" fill="#ff432e"/><path d="m384.628906 414.539062c-7.28125 0-14.5625-2.769531-20.101562-8.308593-11.085938-11.085938-11.085938-29.121094 0-40.203125 11.082031-11.082032 29.117187-11.082032 40.199218 0 5.371094 5.371094 8.328126 12.507812 8.328126 20.101562s-2.957032 14.730469-8.328126 20.101563c-5.539062 5.539062-12.820312 8.308593-20.097656 8.308593zm0-37.832031c-2.414062 0-4.828125.917969-6.667968 2.753907-3.675782 3.675781-3.675782 9.65625 0 13.332031 3.675781 3.675781 9.65625 3.675781 13.332031 0 1.78125-1.78125 2.761719-4.148438 2.761719-6.664063 0-2.519531-.980469-4.886718-2.761719-6.667968-1.835938-1.835938-4.25-2.753907-6.664063-2.753907zm0 0" fill="#db0404"/></svg>