<svg height="512pt" viewBox="0 0 512 512" width="512pt" xmlns="http://www.w3.org/2000/svg"><path d="m512 256c0 141.386719-114.613281 256-256 256s-256-114.613281-256-256 114.613281-256 256-256 256 114.613281 256 256zm0 0" fill="#abddff"/><path d="m120.785156 320.527344 186.359375 186.359375c99.015625-20.078125 177.269531-97.300781 198.882813-195.753907l-197.625-197.625zm0 0" fill="#78b0f0"/><path d="m269.5625 315.035156 43.507812-43.507812 99.925782 99.925781-43.507813 43.507813zm0 0" fill="#12254c"/><path d="m292.25 292.351562 20.820312-20.820312 99.925782 99.921875-20.820313 20.820313zm0 0" fill="#12254c"/><path d="m353.25 216.0625c0 77.160156-62.550781 139.707031-139.707031 139.707031s-139.707031-62.546875-139.707031-139.707031c0-77.15625 62.550781-139.707031 139.707031-139.707031s139.707031 62.550781 139.707031 139.707031zm0 0" fill="#27488f"/><path d="m353.25 216.0625c0-77.15625-62.550781-139.707031-139.707031-139.707031-37.960938 0-72.382813 15.148437-97.5625 39.71875l197.546875 197.546875c24.574218-25.175782 39.722656-59.59375 39.722656-97.558594zm0 0" fill="#12254c"/><path d="m326.113281 216.0625c0 62.171875-50.398437 112.570312-112.570312 112.570312s-112.570313-50.398437-112.570313-112.570312 50.398438-112.570312 112.570313-112.570312 112.570312 50.398437 112.570312 112.570312zm0 0" fill="#27488f"/><path d="m326.113281 216.0625c0-62.171875-50.398437-112.570312-112.570312-112.570312-30.46875 0-58.105469 12.109374-78.371094 31.773437l159.167969 159.171875c19.664062-20.269531 31.773437-47.90625 31.773437-78.375zm0 0" fill="#12254c"/><path d="m230.472656 267.796875v-11.277344h-33.859375v11.277344c0 5.109375-3.195312 9.675781-8 11.421875l-52.0625 18.960938c20.132813 18.886718 47.210938 30.457031 76.992188 30.457031s56.855469-11.570313 76.988281-30.457031l-52.0625-18.960938c-4.800781-1.75-7.996094-6.3125-7.996094-11.421875zm0 0" fill="#faa68e"/><path d="m290.53125 298.179688-52.0625-18.960938c-4.800781-1.75-7.996094-6.3125-7.996094-11.425781v-11.273438h-17.519531v72.109375c.195313 0 .390625.003906.589844.003906 29.78125.003907 56.855469-11.570312 76.988281-30.453124zm0 0" fill="#e09380"/><path d="m238.46875 279.21875c-2.332031-.851562-4.285156-2.371094-5.675781-4.292969l-19.25 14.277344-19.25-14.277344c-1.390625 1.921875-3.34375 3.441407-5.675781 4.292969l-52.0625 18.960938c20.132812 18.882812 47.207031 30.453124 76.988281 30.453124s56.855469-11.570312 76.988281-30.453124zm0 0" fill="#dbeeff"/><path d="m194.292969 274.929688c-1.390625 1.917968-3.34375 3.4375-5.675781 4.289062l-52.0625 18.960938c20 18.761718 46.851562 30.296874 76.398437 30.449218v-39.859375zm0 0" fill="#dbeeff"/><path d="m290.53125 298.179688-52.0625-18.960938c-2.332031-.851562-4.285156-2.371094-5.675781-4.292969l-19.25 14.277344-.589844-.4375v39.863281c.195313 0 .394531.003906.589844.003906 29.78125.003907 56.855469-11.570312 76.988281-30.453124zm0 0" fill="#bfe1ff"/><path d="m213.542969 289.203125-15.976563 17.59375-13.304687-27.851563 7.148437-6.15625zm0 0" fill="#fff"/><path d="m213.542969 289.203125 15.976562 17.59375 13.304688-27.851563-7.148438-6.15625zm0 0" fill="#e9edf5"/><path d="m281.898438 196.835938c0-37.84375-30.601563-68.523438-68.355469-68.523438-37.753907 0-68.359375 30.679688-68.359375 68.523438v56.253906h136.714844zm0 0" fill="#fe6a16"/><path d="m281.898438 196.835938c0-37.84375-30.601563-68.523438-68.355469-68.523438-.199219 0-.394531.011719-.589844.015625v124.761719h68.945313zm0 0" fill="#ff432e"/><path d="m186.605469 213.382812c0 8.03125-6.511719 14.542969-14.542969 14.542969s-14.542969-6.511719-14.542969-14.542969 6.511719-14.542968 14.542969-14.542968 14.542969 6.511718 14.542969 14.542968zm0 0" fill="#ffbeaa"/><path d="m269.566406 213.382812c0 8.03125-6.511718 14.542969-14.542968 14.542969s-14.542969-6.511719-14.542969-14.542969 6.511719-14.542968 14.542969-14.542968 14.542968 6.511718 14.542968 14.542968zm0 0" fill="#faa68e"/><path d="m232.90625 263.429688-9.710938 4.988281c-6.058593 3.113281-13.246093 3.113281-19.304687 0l-9.710937-4.988281c-14.390626-7.394532-23.4375-22.210938-23.4375-38.390626v-37.851562c0-23.636719 19.164062-42.800781 42.800781-42.800781s42.800781 19.164062 42.800781 42.800781v37.851562c0 16.179688-9.046875 30.996094-23.4375 38.390626zm0 0" fill="#ffcdbe"/><path d="m213.542969 144.386719c-.199219 0-.394531.011719-.589844.015625v126.332031c3.507813.097656 7.03125-.667969 10.242187-2.316406l9.710938-4.988281c14.390625-7.394532 23.4375-22.214844 23.4375-38.390626v-37.851562c0-23.636719-19.164062-42.800781-42.800781-42.800781zm0 0" fill="#ffbeaa"/><path d="m246.714844 207.570312h-65.460938c-7.183594 0-13.003906-5.824218-13.003906-13.003906v-25.371094c0-16.453124 13.339844-29.792968 29.792969-29.792968h31.878906c16.453125 0 29.792969 13.339844 29.792969 29.792968v25.371094c0 7.179688-5.820313 13.003906-13 13.003906zm0 0" fill="#fe6a16"/><path d="m229.921875 139.402344h-16.96875v68.167968h33.761719c7.179687 0 13-5.820312 13-13.003906v-25.367187c0-16.457031-13.339844-29.796875-29.792969-29.796875zm0 0" fill="#ff432e"/><path d="m198.042969 139.402344c-16.453125 0-29.792969 13.339844-29.792969 29.796875v25.367187c0 7.183594 5.820312 13.003906 13.003906 13.003906h31.699219v-68.167968zm0 0" fill="#fe6a16"/><path d="m210.136719 328.578125c1.128906.035156 2.265625.054687 3.40625.054687s2.277343-.023437 3.40625-.054687v-39.363281h-6.8125zm0 0" fill="#fff"/><path d="m212.953125 289.214844v39.410156c.195313 0 .390625.007812.589844.007812 1.140625 0 2.273437-.023437 3.40625-.054687v-39.363281zm0 0" fill="#e9edf5"/></svg>