<svg height="512pt" viewBox="0 0 512 512" width="512pt" xmlns="http://www.w3.org/2000/svg"><path d="m512 256c0 141.386719-114.613281 256-256 256s-256-114.613281-256-256 114.613281-256 256-256 256 114.613281 256 256zm0 0" fill="#ff432e"/><path d="m510.628906 229.394531-133.886718-133.886719-241.484376 320.984376 94.136719 94.136718c8.746094.902344 17.621094 1.371094 26.605469 1.371094 141.386719 0 256-114.613281 256-256 0-8.984375-.46875-17.859375-1.371094-26.605469zm0 0" fill="#db0404"/><path d="m207.390625 95.507812-72.132813 72.136719v248.847657h241.484376v-320.984376zm0 0" fill="#fff"/><path d="m256 95.507812h120.742188v320.984376h-120.742188zm0 0" fill="#e9edf5"/><path d="m207.390625 167.644531v-72.136719l-72.132813 72.136719zm0 0" fill="#27488f"/><path d="m324.617188 233.230469c0 37.898437-30.71875 68.617187-68.617188 68.617187s-68.617188-30.71875-68.617188-68.617187c0-37.898438 30.71875-68.621094 68.617188-68.621094s68.617188 30.722656 68.617188 68.621094zm0 0" fill="#27488f"/><path d="m256 164.609375v137.238281c37.898438 0 68.617188-30.71875 68.617188-68.617187 0-37.898438-30.71875-68.621094-68.617188-68.621094zm0 0" fill="#12254c"/><path d="m266.320312 264.765625v-6.875h-20.640624v6.875c0 3.113281-1.949219 5.894531-4.875 6.960937l-31.734376 11.558594c12.273438 11.511719 28.777344 18.566406 46.929688 18.566406s34.65625-7.054687 46.929688-18.566406l-31.734376-11.558594c-2.925781-1.066406-4.875-3.847656-4.875-6.960937zm0 0" fill="#faa68e"/><path d="m271.195312 271.726562c-2.925781-1.066406-4.875-3.847656-4.875-6.960937v-6.875h-10.320312v43.957031c18.152344 0 34.65625-7.050781 46.929688-18.5625zm0 0" fill="#e09380"/><path d="m271.195312 271.726562c-1.421874-.515624-2.613281-1.445312-3.460937-2.613281l-11.734375 8.703125-11.734375-8.703125c-.847656 1.167969-2.039063 2.097657-3.460937 2.613281l-31.734376 11.558594c12.273438 11.511719 28.777344 18.566406 46.929688 18.566406s34.65625-7.054687 46.929688-18.566406zm0 0" fill="#dbeeff"/><path d="m271.195312 271.726562c-1.421874-.515624-2.613281-1.445312-3.460937-2.613281l-11.734375 8.703125v24.03125c18.152344 0 34.65625-7.050781 46.929688-18.5625zm0 0" fill="#bfe1ff"/><path d="m256 277.816406-9.738281 10.71875-8.109375-16.972656 4.355468-3.753906zm0 0" fill="#fff"/><path d="m256 277.816406 9.738281 10.71875 8.109375-16.972656-4.355468-3.753906zm0 0" fill="#e9edf5"/><path d="m297.667969 221.511719c0-23.070313-18.65625-41.769531-41.667969-41.769531s-41.667969 18.699218-41.667969 41.769531v34.289062h83.335938zm0 0" fill="#fe6a16"/><path d="m297.667969 221.511719c0-23.070313-18.65625-41.769531-41.667969-41.769531v76.058593h41.667969zm0 0" fill="#ff432e"/><path d="m239.578125 231.597656c0 4.894532-3.96875 8.863282-8.863281 8.863282-4.894532 0-8.863282-3.96875-8.863282-8.863282 0-4.898437 3.96875-8.867187 8.863282-8.867187 4.894531 0 8.863281 3.96875 8.863281 8.867187zm0 0" fill="#ffbeaa"/><path d="m290.148438 231.597656c0 4.894532-3.96875 8.863282-8.863282 8.863282-4.894531 0-8.863281-3.96875-8.863281-8.863282 0-4.898437 3.96875-8.867187 8.863281-8.867187 4.894532 0 8.863282 3.96875 8.863282 8.867187zm0 0" fill="#faa68e"/><path d="m267.800781 262.101562-5.917969 3.042969c-3.691406 1.894531-8.074218 1.894531-11.765624 0l-5.917969-3.042969c-8.773438-4.503906-14.289063-13.539062-14.289063-23.402343v-23.070313c0-14.410156 11.683594-26.089844 26.089844-26.089844 14.410156 0 26.089844 11.683594 26.089844 26.089844v23.070313c0 9.863281-5.515625 18.898437-14.289063 23.402343zm0 0" fill="#ffcdbe"/><path d="m256 189.539062v77.027344c2.019531 0 4.035156-.472656 5.882812-1.421875l5.917969-3.042969c8.773438-4.503906 14.289063-13.539062 14.289063-23.402343v-23.070313c0-14.410156-11.679688-26.089844-26.089844-26.089844zm0 0" fill="#ffbeaa"/><path d="m276.21875 228.054688h-39.902344c-4.375 0-7.925781-3.550782-7.925781-7.925782v-15.464844c0-10.03125 8.132813-18.160156 18.164063-18.160156h19.429687c10.027344 0 18.160156 8.128906 18.160156 18.160156v15.464844c0 4.375-3.546875 7.925782-7.925781 7.925782zm0 0" fill="#fe6a16"/><path d="m265.984375 186.5h-9.984375v41.550781h20.21875c4.378906 0 7.925781-3.546875 7.925781-7.921875v-15.46875c0-10.027344-8.132812-18.160156-18.160156-18.160156zm0 0" fill="#ff432e"/><path d="m253.921875 301.816406c.691406.019532 1.382813.03125 2.078125.03125s1.386719-.011718 2.078125-.03125v-23.996094h-4.15625zm0 0" fill="#fff"/><path d="m256 277.820312v24.03125c.695312 0 1.386719-.015624 2.078125-.035156v-23.996094zm0 0" fill="#e9edf5"/><path d="m181.667969 320.332031h148.667969v16.667969h-148.667969zm0 0" fill="#87c7ff"/><path d="m256 320.332031h74.332031v16.667969h-74.332031zm0 0" fill="#65b1fc"/><path d="m181.667969 356.332031h148.667969v16.667969h-148.667969zm0 0" fill="#87c7ff"/><path d="m256 356.332031h74.332031v16.667969h-74.332031zm0 0" fill="#65b1fc"/></svg>