<svg height="512pt" viewBox="0 0 512 512.001" width="512pt" xmlns="http://www.w3.org/2000/svg"><path d="m512 256c0 141.386719-114.613281 256-256 256-141.382812 0-256-114.613281-256-256s114.617188-256 256-256c141.386719 0 256 114.613281 256 256zm0 0" fill="#abddff"/><path d="m509.90625 288.886719-132.109375-132.105469-1.066406 1.964844-52.109375-52.109375-1.183594 4.207031-33.839844-33.84375-42.289062 15.777344 82.714844 83.707031-195.820313 30.585937 133.144531 133.144532-102.753906 88.046875 83.613281 83.609375c2.589844.078125 5.183594.128906 7.792969.128906 98.796875 0 184.507812-55.96875 227.1875-137.925781l-.140625-.167969.484375-.484375c13.398438-25.914063 22.507812-54.402344 26.375-84.535156zm0 0" fill="#78b0f0"/><path d="m164.59375 190.839844h182.8125v237.421875h-182.8125zm0 0" fill="#db0404"/><path d="m255.808594 190.839844h91.597656v237.417968h-91.597656zm0 0" fill="#d13400"/><path d="m324.621094 178.675781h-15v-63.476562l-38.921875-22.96875 7.625-12.917969 46.296875 27.324219zm0 0" fill="#27488f"/><path d="m269.03125 102.140625-21.722656-9.363281c-8.566406-3.691406-12.515625-13.628906-8.824219-22.195313l.003906-.003906c3.691407-8.566406 13.628907-12.519531 22.195313-8.824219l21.722656 9.363282c8.566406 3.691406 12.515625 13.628906 8.824219 22.195312l-.003907.003906c-3.691406 8.566406-13.628906 12.519532-22.195312 8.824219zm0 0" fill="#12254c"/><path d="m282.40625 71.117188-21.722656-9.363282c-1.59375-.6875-3.234375-1.109375-4.875-1.285156v35.972656l13.222656 5.699219c8.566406 3.695313 18.503906-.257813 22.195312-8.824219l.003907-.003906c3.691406-8.566406-.257813-18.503906-8.824219-22.195312zm0 0" fill="#12254c"/><path d="m134.203125 156.78125h243.59375v50.289062h-243.59375zm0 0" fill="#ff432e"/><path d="m255.808594 156.78125h121.988281v50.289062h-121.988281zm0 0" fill="#db0404"/></svg>