<svg height="512pt" viewBox="0 0 512 512" width="512pt" xmlns="http://www.w3.org/2000/svg"><path d="m512 256c0 141.386719-114.613281 256-256 256s-256-114.613281-256-256 114.613281-256 256-256 256 114.613281 256 256zm0 0" fill="#abddff"/><path d="m512 256c0-7.378906-.328125-14.679688-.941406-21.902344l-157.539063-157.535156-234.339843 229.425781 67.738281 67.738281-21.898438 63.53125 74.175781 74.179688c5.558594.359375 11.15625.5625 16.804688.5625 141.386719 0 256-114.613281 256-256zm0 0" fill="#78b0f0"/><path d="m263.832031 371v-90.667969h-15.664062v90.667969h-77.167969v48h15.667969v-33.332031h61.5v33.332031h15.664062v-33.332031h61.5v33.332031h15.667969v-48zm0 0" fill="#4a7aff"/><path d="m263.832031 371v-90.667969h-8.023437v138.667969h8.023437v-33.332031h61.5v33.332031h15.667969v-48zm0 0" fill="#0053bf"/><path d="m359.167969 284.339844h-206.335938l-7.886719-165.597656c-1.617187-33.933594 23.371094-62.410157 54.769532-62.410157h112.570312c31.398438 0 56.386719 28.476563 54.773438 62.410157zm0 0" fill="#27488f"/><path d="m312.285156 56.332031h-56.476562v228.007813h103.359375l7.886719-165.597656c1.617187-33.933594-23.371094-62.410157-54.769532-62.410157zm0 0" fill="#12254c"/><path d="m119.179688 177h39.300781v96.597656h-39.300781zm0 0" fill="#dce1eb"/><path d="m353.519531 177h39.300781v96.597656h-39.300781zm0 0" fill="#cdd2e1"/><path d="m119.179688 262h273.640624v43.988281h-273.640624zm0 0" fill="#707789"/><path d="m255.808594 262h137.011718v43.988281h-137.011718zm0 0" fill="#636978"/><path d="m277.5 430.5c0 11.875-9.625 21.5-21.5 21.5s-21.5-9.625-21.5-21.5 9.625-21.5 21.5-21.5 21.5 9.625 21.5 21.5zm0 0" fill="#27488f"/><path d="m256 409c-.0625 0-.125.007812-.191406.011719v42.976562c.066406.003907.128906.011719.191406.011719 11.875 0 21.5-9.625 21.5-21.5s-9.625-21.5-21.5-21.5zm0 0" fill="#12254c"/><path d="m199.980469 420.5c0 11.875-9.628907 21.5-21.5 21.5-11.875 0-21.5-9.625-21.5-21.5s9.625-21.5 21.5-21.5c11.871093 0 21.5 9.625 21.5 21.5zm0 0" fill="#27488f"/><path d="m355.019531 420.5c0 11.875-9.625 21.5-21.5 21.5-11.871093 0-21.5-9.625-21.5-21.5s9.628907-21.5 21.5-21.5c11.875 0 21.5 9.625 21.5 21.5zm0 0" fill="#12254c"/></svg>