<svg height="512pt" viewBox="0 0 512 512" width="512pt" xmlns="http://www.w3.org/2000/svg"><path d="m512 256c0 141.386719-114.613281 256-256 256s-256-114.613281-256-256 114.613281-256 256-256 256 114.613281 256 256zm0 0" fill="#ffe000"/><path d="m512 256c0-.679688-.019531-1.351562-.027344-2.027344l-95.484375-95.488281h-145.195312l101.621093 101.621094-6.902343 16.101562-84.261719-84.265625-29.582031 129.246094-61.8125-61.808594-67.710938 154.734375 95.03125 95.03125c12.5 1.875 25.296875 2.855469 38.324219 2.855469 141.386719 0 256-114.613281 256-256zm0 0" fill="#ffc200"/><path d="m378.226562 414.113281v-255.628906h38.261719l-72.597656-72.597656-72.597656 72.597656h39.222656v255.628906zm0 0" fill="#27488f"/><path d="m343.308594 414.113281h34.917968v-255.628906h38.261719l-72.597656-72.597656zm0 0" fill="#12254c"/><path d="m214.035156 191.941406h67.710938v222.171875h-67.710938zm0 0" fill="#ff432e"/><path d="m248.070312 191.941406h33.675782v222.171875h-33.675782zm0 0" fill="#db0404"/><path d="m122.644531 259.375h67.710938v154.738281h-67.710938zm0 0" fill="#ff432e"/><path d="m156.40625 259.375h33.949219v154.738281h-33.949219zm0 0" fill="#db0404"/></svg>