<svg height="512pt" viewBox="0 0 512 512" width="512pt" xmlns="http://www.w3.org/2000/svg"><path d="m512 256c0 141.386719-114.613281 256-256 256s-256-114.613281-256-256 114.613281-256 256-256 256 114.613281 256 256zm0 0" fill="#ff432e"/><path d="m165.160156 386.929688 123.058594 123.058593c126.175781-15.847656 223.78125-123.515625 223.78125-253.988281 0-7.203125-.3125-14.335938-.898438-21.390625l-92.734374-92.730469zm0 0" fill="#db0404"/><path d="m204.3125 77.636719-110.679688 64.242187 11.667969 122.539063c5.863281 61.558593 40.757813 116.621093 93.917969 148.207031l56.78125 33.738281 56.785156-33.738281c53.160156-31.585938 88.050782-86.648438 93.914063-148.207031l11.671875-122.539063s-63.148438-36.652344-110.683594-64.242187zm0 0" fill="#fff"/><path d="m256 446.363281 56.785156-33.738281c53.160156-31.585938 88.050782-86.648438 93.914063-148.207031l11.671875-122.539063s-63.148438-36.652344-110.683594-64.242187h-51.878906zm0 0" fill="#e9edf5"/><path d="m380.777344 250c0 68.910156-55.867188 124.777344-124.777344 124.777344s-124.777344-55.867188-124.777344-124.777344 55.867188-124.777344 124.777344-124.777344 124.777344 55.867188 124.777344 124.777344zm0 0" fill="#abddff"/><path d="m256 125.222656c-.0625 0-.128906.003906-.191406.003906v249.546876c.066406 0 .128906.003906.191406.003906 68.910156 0 124.777344-55.867188 124.777344-124.777344s-55.867188-124.777344-124.777344-124.777344zm0 0" fill="#78b0f0"/><path d="m274.765625 307.339844v-12.5h-37.53125v12.5c0 5.664062-3.542969 10.726562-8.863281 12.664062l-57.707032 21.015625c22.316407 20.929688 52.324219 33.757813 85.335938 33.757813s63.023438-12.828125 85.339844-33.757813l-57.707032-21.015625c-5.324218-1.9375-8.867187-7-8.867187-12.664062zm0 0" fill="#faa68e"/><path d="m341.339844 341.019531-57.707032-21.015625c-5.324218-1.9375-8.867187-7-8.867187-12.664062v-12.5h-18.957031v79.933594c.066406 0 .128906.003906.191406.003906 33.011719 0 63.019531-12.824219 85.339844-33.757813zm0 0" fill="#e09380"/><path d="m223.542969 242.15625c0 8.902344-7.214844 16.117188-16.117188 16.117188-8.902343 0-16.121093-7.214844-16.121093-16.117188s7.21875-16.121094 16.121093-16.121094c8.902344 0 16.117188 7.21875 16.117188 16.121094zm0 0" fill="#ffbeaa"/><path d="m320.695312 242.15625c0 8.902344-7.21875 16.117188-16.121093 16.117188-8.902344 0-16.117188-7.214844-16.117188-16.117188s7.214844-16.121094 16.117188-16.121094c8.902343 0 16.121093 7.21875 16.121093 16.121094zm0 0" fill="#faa68e"/><path d="m277.460938 302.5-10.761719 5.53125c-6.714844 3.449219-14.683594 3.449219-21.394531 0l-10.765626-5.53125c-15.949218-8.191406-25.980468-24.617188-25.980468-42.550781v-41.957031c0-26.199219 21.242187-47.4375 47.441406-47.4375 26.203125 0 47.441406 21.238281 47.441406 47.4375v41.957031c0 17.929687-10.03125 34.359375-25.980468 42.550781zm0 0" fill="#ffbeaa"/><path d="m256 170.554688c-.0625 0-.128906.003906-.191406.003906v140.054687c3.734375.027344 7.472656-.828125 10.886718-2.582031l10.765626-5.53125c15.949218-8.191406 25.980468-24.617188 25.980468-42.550781v-41.957031c0-26.199219-21.242187-47.4375-47.441406-47.4375zm0 0" fill="#faa68e"/><path d="m284.394531 165.027344h-4.917969c-1.988281 0-3.726562 1.074218-4.675781 2.667968-.804687-1.582031-2.445312-2.667968-4.339843-2.667968h-34.199219c-23.019531 0-41.675781 18.660156-41.675781 41.675781 0 8.117187 3.476562 15.425781 9.019531 20.519531v33.257813h9.746093v-27.441407c2.851563.984376 5.910157 1.527344 9.097657 1.527344h25.019531c12.648438 0 23.320312-8.429687 26.726562-19.972656 1.3125 11.246094 10.867188 19.972656 22.464844 19.972656.671875 0 1.332032-.035156 1.988282-.089844v26.003907h9.746093v-29.191407c6.53125-3.96875 10.894531-11.148437 10.894531-19.351562v-12.011719c0-19.273437-15.621093-34.898437-34.894531-34.898437zm0 0" fill="#ffe000"/><path d="m284.394531 165.027344h-4.917969c-1.992187 0-3.726562 1.074218-4.675781 2.667968-.804687-1.582031-2.445312-2.667968-4.339843-2.667968h-14.652344v68.246094c8.828125-2.765626 15.765625-9.792969 18.386718-18.683594 1.3125 11.246094 10.867188 19.976562 22.46875 19.976562.667969 0 1.328126-.035156 1.984376-.09375v26.007813h9.75v-29.191407c6.53125-3.96875 10.890624-11.148437 10.890624-19.351562v-12.011719c0-19.273437-15.621093-34.898437-34.894531-34.898437zm0 0" fill="#ffc200"/><path d="m283.628906 320.003906c-2.585937-.945312-4.75-2.628906-6.292968-4.757812l-21.335938 15.824218-21.335938-15.824218c-1.542968 2.132812-3.707031 3.816406-6.292968 4.757812l-57.707032 21.015625c22.316407 20.933594 52.324219 33.757813 85.335938 33.757813s63.023438-12.824219 85.339844-33.757813zm0 0" fill="#dbeeff"/><path d="m341.339844 341.019531-57.707032-21.015625c-2.589843-.945312-4.75-2.628906-6.296874-4.757812l-21.335938 15.824218-.191406-.140624v43.84375c.066406 0 .128906.003906.191406.003906 33.011719 0 63.019531-12.824219 85.339844-33.757813zm0 0" fill="#bfe1ff"/><path d="m261.847656 350.265625h-11.695312l-4.875-19.171875h21.445312zm0 0" fill="#27488f"/><path d="m266.722656 331.09375h-10.914062v19.171875h6.039062zm0 0" fill="#12254c"/><path d="m246.597656 374.425781c3.105469.230469 6.242188.351563 9.402344.351563 3.164062 0 6.296875-.121094 9.402344-.351563l-3.554688-24.160156h-11.699218zm0 0" fill="#27488f"/><path d="m256 374.777344c3.164062 0 6.296875-.121094 9.402344-.351563l-3.554688-24.160156h-6.039062zm0 0" fill="#12254c"/><path d="m256 331.070312-17.710938 19.496094-14.746093-30.867187 7.925781-6.824219zm0 0" fill="#fff"/><path d="m223.542969 319.699219-53.976563 20.285156c18.140625 17.429687 41.539063 29.429687 67.582032 33.375zm0 0" fill="#2864f0"/><path d="m256 331.070312 17.710938 19.496094 14.746093-30.867187-7.925781-6.824219zm0 0" fill="#e9edf5"/><path d="m342.433594 339.984375-53.976563-20.285156-13.605469 53.660156c26.042969-3.945313 49.441407-15.945313 67.582032-33.375zm0 0" fill="#27488f"/><path d="m237.148438 373.359375-13.605469-53.660156-18.070313 30.871093 18.070313 9.097657-5.34375 9.273437c6.125 1.945313 12.453125 3.433594 18.949219 4.417969zm0 0" fill="#27488f"/><path d="m274.851562 373.359375 13.605469-53.660156 18.070313 30.871093-18.070313 9.097657 5.34375 9.273437c-6.125 1.945313-12.453125 3.433594-18.949219 4.417969zm0 0" fill="#12254c"/></svg>