<svg height="512pt" viewBox="0 0 512 512" width="512pt" xmlns="http://www.w3.org/2000/svg"><path d="m512 256c0 141.386719-114.613281 256-256 256s-256-114.613281-256-256 114.613281-256 256-256 256 114.613281 256 256zm0 0" fill="#ff432e"/><path d="m337.980469 96.257812-126.171875 338.742188 75.132812 75.132812c122.273438-14.734374 218.011719-115.648437 224.679688-240.234374zm0 0" fill="#db0404"/><path d="m375 182.511719c0-66.308594-54.238281-119.953125-120.769531-118.988281-63.890625.929687-116.070313 52.921874-117.210938 116.808593-.539062 30.164063 10.144531 57.816407 28.15625 79.070313 25.308594 29.859375 38.597657 68.082031 38.597657 107.226562v10.910156h104.453124v-11.375c0-38.953124 13.28125-76.96875 38.503907-106.65625 17.632812-20.75 28.269531-47.628906 28.269531-76.996093zm0 0" fill="#fff"/><path d="m255.808594 63.523438v314.015624h52.417968v-11.375c0-38.953124 13.28125-76.96875 38.503907-106.65625 17.632812-20.75 28.269531-47.628906 28.269531-76.996093 0-65.785157-53.382812-119.089844-119.191406-118.988281zm0 0" fill="#e9edf5"/><path d="m203.773438 369.890625v43.5c0 21.324219 21.011718 38.609375 46.9375 38.609375h10.578124c25.925782 0 46.9375-17.285156 46.9375-38.609375v-43.5zm0 0" fill="#ffd400"/><path d="m255.808594 369.890625v82.109375h5.480468c25.925782 0 46.9375-17.285156 46.9375-38.609375v-43.5zm0 0" fill="#fdba12"/><path d="m248.574219 124.1875c0-19.488281-16.707031-35.289062-37.3125-35.289062-20.609375 0-37.316407 15.800781-37.316407 35.289062 0 3.589844.574219 7.050781 1.625 10.316406-13.09375 8.1875-22.238281 26.703125-22.238281 48.246094s9.144531 40.058594 22.238281 48.246094c-1.054687 3.265625-1.625 6.726562-1.625 10.316406 0 19.488281 16.707032 35.285156 37.316407 35.285156 20.605469 0 37.3125-15.796875 37.3125-35.285156zm0 0" fill="#27488f"/><g fill="#a3d4ff"><path d="m212.359375 251.425781h-12c0-17.449219 14.195313-31.644531 31.648437-31.644531v12c-10.835937 0-19.648437 8.8125-19.648437 19.644531zm0 0"/><path d="m232.007812 145.71875c-17.453124 0-31.648437-14.195312-31.648437-31.644531h12c0 10.832031 8.8125 19.644531 19.648437 19.644531zm0 0"/><path d="m200.953125 213.214844c-16.796875 0-30.460937-13.667969-30.460937-30.464844s13.664062-30.464844 30.460937-30.464844v13c-9.628906 0-17.460937 7.835938-17.460937 17.464844s7.832031 17.464844 17.460937 17.464844zm0 0"/></g><path d="m263.425781 124.1875c0-19.488281 16.707031-35.289062 37.3125-35.289062 20.609375 0 37.316407 15.800781 37.316407 35.289062 0 3.589844-.574219 7.050781-1.625 10.316406 13.09375 8.1875 22.238281 26.703125 22.238281 48.246094s-9.144531 40.058594-22.238281 48.246094c1.054687 3.265625 1.625 6.726562 1.625 10.316406 0 19.488281-16.707032 35.285156-37.316407 35.285156-20.605469 0-37.3125-15.796875-37.3125-35.285156zm0 0" fill="#12254c"/><path d="m311.640625 251.425781h-12c0-10.832031-8.8125-19.644531-19.644531-19.644531v-12c17.449218 0 31.644531 14.195312 31.644531 31.644531zm0 0" fill="#87c7ff"/><path d="m279.992188 145.71875v-12c10.835937 0 19.648437-8.8125 19.648437-19.644531h12c0 17.449219-14.195313 31.644531-31.648437 31.644531zm0 0" fill="#87c7ff"/><path d="m311.046875 213.214844v-13c9.628906 0 17.460937-7.835938 17.460937-17.464844s-7.832031-17.464844-17.460937-17.464844v-13c16.796875 0 30.460937 13.667969 30.460937 30.464844s-13.664062 30.464844-30.460937 30.464844zm0 0" fill="#87c7ff"/></svg>