<svg height="512pt" viewBox="0 0 512 512" width="512pt" xmlns="http://www.w3.org/2000/svg"><path d="m512 256c0 141.386719-114.613281 256-256 256s-256-114.613281-256-256 114.613281-256 256-256 256 114.613281 256 256zm0 0" fill="#27488f"/><path d="m512 256c0-13.757812-1.097656-27.257812-3.1875-40.429688l-52.402344-52.398437-46.339844 61.804687-132.125-132.125-42.304687 35.015626 22.515625 22.515624-42.722656 124.230469-13.921875-8.378906-103.066407-103.0625-38.445312 38.789063 55.160156 55.15625-38.125 115.070312 136.246094 136.246094c13.894531 2.332031 28.160156 3.566406 42.71875 3.566406 141.386719 0 256-114.613281 256-256zm0 0" fill="#12254c"/><path d="m434.964844 181-102.402344 73.875-76.5625-145.476562-76.5625 145.476562-102.402344-73.875v191.1875h357.929688zm0 0" fill="#ffe000"/><path d="m434.964844 181-102.402344 73.875-76.5625-145.476562-.191406.363281v262.425781h179.15625zm0 0" fill="#ffc200"/><path d="m283.484375 109.398438c0 15.179687-12.304687 27.484374-27.484375 27.484374s-27.484375-12.304687-27.484375-27.484374c0-15.179688 12.304687-27.488282 27.484375-27.488282s27.484375 12.308594 27.484375 27.488282zm0 0" fill="#ffa300"/><path d="m256 81.910156c-.0625 0-.125.003906-.191406.007813v54.960937c.0625 0 .128906.007813.191406.007813 15.179688 0 27.484375-12.308594 27.484375-27.488281 0-15.179688-12.304687-27.488282-27.484375-27.488282zm0 0" fill="#fe8205"/><path d="m462.484375 180.398438c0 15.179687-12.304687 27.484374-27.484375 27.484374s-27.484375-12.304687-27.484375-27.484374c0-15.179688 12.304687-27.488282 27.484375-27.488282s27.484375 12.308594 27.484375 27.488282zm0 0" fill="#fe8205"/><path d="m104.523438 180.398438c0 15.179687-12.308594 27.484374-27.488282 27.484374-15.179687 0-27.484375-12.304687-27.484375-27.484374 0-15.179688 12.304688-27.488282 27.484375-27.488282 15.179688 0 27.488282 12.308594 27.488282 27.488282zm0 0" fill="#ffa300"/><path d="m256 328.242188c-15.179688 0-27.484375-12.304688-27.484375-27.484376v-32.480468c0-15.179688 12.304687-27.484375 27.484375-27.484375s27.484375 12.304687 27.484375 27.484375v32.480468c0 15.179688-12.304687 27.484376-27.484375 27.484376zm0 0" fill="#27488f"/><path d="m256 240.792969c-.0625 0-.128906.003906-.191406.003906v87.441406c.066406 0 .128906.003907.191406.003907 15.179688 0 27.484375-12.304688 27.484375-27.484376v-32.480468c0-15.179688-12.304687-27.484375-27.484375-27.484375zm0 0" fill="#12254c"/><path d="m385 328.242188c-10.617188 0-19.226562-8.605469-19.226562-19.222657v-22.71875c0-10.617187 8.609374-19.226562 19.226562-19.226562s19.226562 8.609375 19.226562 19.226562v22.71875c0 10.617188-8.609374 19.222657-19.226562 19.222657zm0 0" fill="#12254c"/><path d="m127 328.242188c-10.617188 0-19.226562-8.605469-19.226562-19.222657v-22.71875c0-10.617187 8.609374-19.226562 19.226562-19.226562s19.226562 8.609375 19.226562 19.226562v22.71875c0 10.617188-8.609374 19.222657-19.226562 19.222657zm0 0" fill="#27488f"/></svg>