<svg height="512pt" viewBox="0 0 512 512" width="512pt" xmlns="http://www.w3.org/2000/svg"><path d="m255.808594 511.996094c.066406 0 .128906.003906.191406.003906 141.386719 0 256-114.613281 256-256s-114.613281-256-256-256-256 114.613281-256 256c0 141.320312 114.511719 255.894531 255.808594 255.996094" fill="#27488f"/><path d="m312.523438 74.691406-121.152344 117.238282 164.207031 164.207031-9.902344 3.492187-152.46875-152.46875-29.984375 216.789063 87.984375 87.984375c1.53125.03125 3.0625.0625 4.601563.0625.066406 0 .128906.003906.191406.003906 135.480469 0 246.363281-105.25 255.390625-238.441406zm0 0" fill="#12254c"/><path d="m340.5 137.5c0 46.667969-37.832031 84.5-84.5 84.5s-84.5-37.832031-84.5-84.5 37.832031-84.5 84.5-84.5 84.5 37.832031 84.5 84.5zm0 0" fill="#ffe000"/><path d="m256 53c-.0625 0-.128906.003906-.191406.003906v168.992188c.066406 0 .128906.003906.191406.003906 46.667969 0 84.5-37.832031 84.5-84.5s-37.832031-84.5-84.5-84.5zm0 0" fill="#ffc200"/><path d="m315.660156 137.5c0 32.949219-26.710937 59.660156-59.660156 59.660156s-59.660156-26.710937-59.660156-59.660156 26.710937-59.660156 59.660156-59.660156 59.660156 26.710937 59.660156 59.660156zm0 0" fill="#fdba12"/><path d="m256 77.839844c-.0625 0-.128906.007812-.191406.007812v119.308594c.066406 0 .128906.003906.191406.003906 32.949219 0 59.660156-26.710937 59.660156-59.660156s-26.710937-59.660156-59.660156-59.660156zm0 0" fill="#ffa300"/><path d="m256 465.886719c-68.257812 0-123.792969-55.535157-123.792969-123.792969v-104.933594h61v104.933594c0 34.625 28.167969 62.792969 62.792969 62.792969s62.792969-28.171875 62.792969-62.792969v-104.933594h61v104.933594c0 68.257812-55.53125 123.792969-123.792969 123.792969zm0 0" fill="#fff"/><path d="m318.792969 237.160156v104.933594c0 34.625-28.167969 62.792969-62.792969 62.792969-.0625 0-.128906-.007813-.191406-.007813v61.003906h.191406c68.261719 0 123.792969-55.53125 123.792969-123.789062v-104.933594zm0 0" fill="#e9edf5"/><path d="m132.207031 207.160156h61v104.933594h-61zm0 0" fill="#78b0f0"/><path d="m318.792969 207.160156h61v104.933594h-61zm0 0" fill="#ff432e"/></svg>