<svg height="512pt" viewBox="0 0 512 512" width="512pt" xmlns="http://www.w3.org/2000/svg"><path d="m512 256c0 141.386719-114.613281 256-256 256s-256-114.613281-256-256 114.613281-256 256-256 256 114.613281 256 256zm0 0" fill="#27488f"/><path d="m118.5 204.496094-70.136719 88.421875 70.136719 70.136719v108.914062c39.71875 25.339844 86.894531 40.03125 137.5 40.03125 124.535156 0 228.285156-88.933594 251.246094-206.753906l-251.246094-251.246094-114.570312 144.445312 110.699218 110.699219-.433594 28.546875zm0 0" fill="#12254c"/><path d="m48.363281 292.917969h37.894531v154.695312c19.402344 17.199219 41.429688 31.503907 65.414063 42.222657v-196.917969h36.964844l-70.136719-88.421875zm0 0" fill="#abddff"/><path d="m393.5 204.496094-70.136719 88.421875h37.894531v196.507812c24.007813-10.839843 46.035157-25.289062 65.414063-42.636719v-153.871093h36.964844zm0 0" fill="#78b0f0"/><path d="m141.429688 198.445312h61.898437v308.117188c17 3.558594 34.617187 5.4375 52.671875 5.4375 18.59375 0 36.71875-2 54.1875-5.765625v-307.789063h60.382812l-114.570312-144.445312zm0 0" fill="#ffe000"/><path d="m256 512c18.59375 0 36.71875-2 54.1875-5.765625v-307.789063h60.382812l-114.570312-144.445312zm0 0" fill="#ffc200"/></svg>