<svg height="512pt" viewBox="0 0 512 512" width="512pt" xmlns="http://www.w3.org/2000/svg"><path d="m512 256c0 141.386719-114.613281 256-256 256s-256-114.613281-256-256 114.613281-256 256-256 256 114.613281 256 256zm0 0" fill="#ffe000"/><path d="m272.089844 511.480469c132.566406-8.222657 237.796875-117.320313 239.859375-251.46875l-67.003907-67.003907-22.125 33.8125-94.222656-94.222656h-145.195312l97.425781 97.425782-29.730469 60.644531-96.472656-96.472657-88.757812 86.382813 112.761718 112.765625-8.1875 16.492188zm0 0" fill="#ffc200"/><path d="m290.335938 388.226562v-255.628906h38.261718l-72.597656-72.597656-72.597656 72.597656h39.222656v255.628906zm0 0" fill="#27488f"/><path d="m255.808594 388.226562h34.527344v-255.628906h38.261718l-72.597656-72.597656zm0 0" fill="#12254c"/><path d="m283.320312 373.226562-152.085937-156.265624 23.390625-22.765626-87.570312-1.1875-1.1875 87.570313 23.976562-23.335937 152.085938 156.269531zm0 0" fill="#27488f"/><path d="m228.679688 373.226562 152.085937-156.265624-23.390625-22.765626 87.570312-1.1875 1.1875 87.570313-23.976562-23.335937-152.085938 156.269531zm0 0" fill="#12254c"/><path d="m368.570312 336.683594c0 62.171875-50.398437 112.574218-112.570312 112.574218s-112.570312-50.402343-112.570312-112.574218c0-62.167969 50.398437-112.570313 112.570312-112.570313s112.570312 50.402344 112.570312 112.570313zm0 0" fill="#27488f"/><path d="m256 224.113281c-.0625 0-.128906 0-.191406 0v225.140625h.191406c62.171875 0 112.570312-50.398437 112.570312-112.570312s-50.398437-112.570313-112.570312-112.570313zm0 0" fill="#12254c"/><path d="m272.929688 388.414062v-11.273437h-33.859376v11.273437c0 5.113282-3.195312 9.679688-8 11.425782l-52.0625 18.960937c20.132813 18.886719 47.210938 30.457031 76.992188 30.457031s56.855469-11.570312 76.988281-30.457031l-52.0625-18.960937c-4.800781-1.746094-7.996093-6.3125-7.996093-11.425782zm0 0" fill="#faa68e"/><path d="m332.988281 418.800781-52.0625-18.960937c-4.800781-1.746094-7.996093-6.3125-7.996093-11.421875v-11.277344h-17.121094v72.113281c.0625 0 .128906.003906.191406.003906 29.78125-.003906 56.855469-11.570312 76.988281-30.457031zm0 0" fill="#e09380"/><path d="m280.925781 399.839844c-2.332031-.851563-4.285156-2.371094-5.675781-4.292969l-19.25 14.277344-19.25-14.273438c-1.390625 1.917969-3.34375 3.4375-5.675781 4.289063l-52.0625 18.960937c20.132812 18.886719 47.207031 30.457031 76.988281 30.457031s56.855469-11.570312 76.988281-30.457031zm0 0" fill="#dbeeff"/><path d="m332.988281 418.800781-52.0625-18.960937c-2.332031-.847656-4.285156-2.367188-5.675781-4.289063l-19.25 14.273438-.191406-.140625v39.570312h.191406c29.78125 0 56.855469-11.566406 76.988281-30.453125zm0 0" fill="#bfe1ff"/><path d="m256 409.824219-15.976562 17.589843-13.304688-27.847656 7.148438-6.15625zm0 0" fill="#fff"/><path d="m256 409.824219 15.976562 17.589843 13.304688-27.847656-7.148438-6.15625zm0 0" fill="#e9edf5"/><path d="m324.359375 317.457031c0-37.84375-30.605469-68.523437-68.359375-68.523437s-68.359375 30.679687-68.359375 68.523437v56.253907h136.714844v-56.253907zm0 0" fill="#fe6a16"/><path d="m324.359375 317.457031c0-37.84375-30.605469-68.523437-68.359375-68.523437-.0625 0-.128906.003906-.191406.003906v124.773438h68.550781zm0 0" fill="#ff432e"/><path d="m229.0625 334.003906c0 8.03125-6.511719 14.542969-14.542969 14.542969s-14.542969-6.511719-14.542969-14.542969 6.511719-14.542968 14.542969-14.542968 14.542969 6.511718 14.542969 14.542968zm0 0" fill="#ffbeaa"/><path d="m312.023438 334.003906c0 8.03125-6.511719 14.542969-14.542969 14.542969s-14.542969-6.511719-14.542969-14.542969 6.511719-14.542968 14.542969-14.542968 14.542969 6.511718 14.542969 14.542968zm0 0" fill="#faa68e"/><path d="m275.363281 384.050781-9.710937 4.988281c-6.058594 3.113282-13.246094 3.113282-19.304688 0l-9.710937-4.988281c-14.390625-7.394531-23.4375-22.210937-23.4375-38.390625v-37.851562c0-23.636719 19.164062-42.800782 42.800781-42.800782s42.800781 19.164063 42.800781 42.800782v37.851562c0 16.179688-9.046875 30.996094-23.4375 38.390625zm0 0" fill="#ffcdbe"/><path d="m256 265.007812c-.0625 0-.128906.003907-.191406.003907v126.355469c3.375.03125 6.753906-.742188 9.84375-2.328126l9.710937-4.988281c14.390625-7.394531 23.4375-22.210937 23.4375-38.390625v-37.851562c0-23.636719-19.164062-42.800782-42.800781-42.800782zm0 0" fill="#ffbeaa"/><path d="m289.171875 328.191406h-65.460937c-7.183594 0-13.003907-5.824218-13.003907-13.003906v-25.371094c0-16.453125 13.339844-29.792968 29.792969-29.792968h31.878906c16.453125 0 29.792969 13.339843 29.792969 29.792968v25.371094c0 7.179688-5.820313 13.003906-13 13.003906zm0 0" fill="#fe6a16"/><path d="m272.378906 260.023438h-16.570312v68.167968h33.363281c7.179687 0 13-5.820312 13-13v-25.371094c0-16.457031-13.339844-29.796874-29.792969-29.796874zm0 0" fill="#ff432e"/><path d="m252.59375 449.199219c1.128906.035156 2.265625.054687 3.40625.054687s2.277344-.023437 3.40625-.054687v-39.363281h-6.8125zm0 0" fill="#fff"/><path d="m255.808594 409.835938v39.417968h.191406c1.140625 0 2.277344-.019531 3.40625-.054687v-39.363281zm0 0" fill="#e9edf5"/></svg>