<svg height="512pt" viewBox="0 0 512 512" width="512pt" xmlns="http://www.w3.org/2000/svg"><path d="m512 256c0 141.386719-114.613281 256-256 256s-256-114.613281-256-256 114.613281-256 256-256 256 114.613281 256 256zm0 0" fill="#ffe000"/><path d="m512 256c0-5.652344-.203125-11.253906-.5625-16.816406l-94.601562-94.597656-25.457032 19.335937-100.429687-100.433594-121.449219 90.628907-106.011719 136.832031 97.117188 97.117187-16.015625 28.769532 94.597656 94.601562c5.558594.359375 11.160156.5625 16.8125.5625 8.839844 0 17.570312-.449219 26.179688-1.320312l.519531-.523438.414062.414062c128.636719-13.542968 228.886719-122.34375 228.886719-254.570312zm0 0" fill="#ffc200"/><path d="m248.757812 198.890625c0-19.003906-16.289062-34.410156-36.386718-34.410156-20.09375 0-36.386719 15.40625-36.386719 34.410156 0 3.5.558594 6.878906 1.585937 10.058594-12.773437 7.984375-21.6875 26.039062-21.6875 47.050781 0 21.007812 8.917969 39.0625 21.6875 47.046875-1.03125 3.183594-1.585937 6.5625-1.585937 10.0625 0 19.003906 16.292969 34.410156 36.386719 34.410156 20.097656 0 36.386718-15.40625 36.386718-34.410156zm0 0" fill="#abddff"/><g fill="#87c7ff"><path d="m213.441406 322.972656h-11.699218c0-17.019531 13.84375-30.863281 30.859374-30.863281v11.703125c-10.5625 0-19.160156 8.59375-19.160156 19.160156zm0 0"/><path d="m232.601562 219.890625c-17.015624 0-30.859374-13.84375-30.859374-30.863281h11.699218c0 10.566406 8.597656 19.160156 19.160156 19.160156zm0 0"/><path d="m202.320312 285.707031c-16.378906 0-29.707031-13.328125-29.707031-29.707031s13.328125-29.707031 29.707031-29.707031v12.679687c-9.390624 0-17.03125 7.636719-17.03125 17.027344s7.640626 17.03125 17.03125 17.03125zm0 0"/></g><path d="m263.242188 198.890625c0-19.003906 16.289062-34.410156 36.386718-34.410156 20.09375 0 36.386719 15.40625 36.386719 34.410156 0 3.5-.558594 6.878906-1.585937 10.058594 12.773437 7.984375 21.6875 26.039062 21.6875 47.050781 0 21.007812-8.917969 39.0625-21.6875 47.046875 1.03125 3.183594 1.585937 6.5625 1.585937 10.0625 0 19.003906-16.292969 34.410156-36.386719 34.410156-20.097656 0-36.386718-15.40625-36.386718-34.410156zm0 0" fill="#6092e0"/><path d="m310.257812 322.972656h-11.699218c0-10.566406-8.597656-19.160156-19.160156-19.160156v-11.703125c17.015624 0 30.859374 13.84375 30.859374 30.863281zm0 0" fill="#65b1fc"/><path d="m279.398438 219.890625v-11.703125c10.566406 0 19.160156-8.59375 19.160156-19.160156h11.699218c0 17.019531-13.84375 30.863281-30.859374 30.863281zm0 0" fill="#65b1fc"/><path d="m309.679688 285.707031v-12.675781c9.390624 0 17.03125-7.640625 17.03125-17.03125s-7.640626-17.027344-17.03125-17.027344v-12.679687c16.378906 0 29.707031 13.328125 29.707031 29.707031s-13.328125 29.707031-29.707031 29.707031zm0 0" fill="#65b1fc"/><path d="m448.511719 290.949219v-69.898438h-38.246094c-4.015625-17.792969-11.03125-34.449219-20.484375-49.410156l27.054688-27.054687-49.421876-49.421876-27.054687 27.054688c-14.960937-9.453125-31.617187-16.46875-49.410156-20.484375v-38.246094h-69.898438v38.246094c-17.792969 4.015625-34.449219 11.03125-49.410156 20.484375l-27.054687-27.054688-49.421876 49.421876 27.054688 27.054687c-9.453125 14.964844-16.46875 31.617187-20.480469 49.410156h-38.25v69.898438h38.246094c4.015625 17.792969 11.03125 34.449219 20.484375 49.410156l-27.054688 27.054687 49.421876 49.421876 27.054687-27.054688c14.960937 9.453125 31.617187 16.46875 49.410156 20.484375v38.246094h69.898438v-38.246094c17.792969-4.015625 34.445312-11.03125 49.410156-20.484375l27.054687 27.054688 49.421876-49.421876-27.054688-27.054687c9.453125-14.964844 16.46875-31.617187 20.484375-49.410156zm-192.511719 82.253906c-64.730469 0-117.203125-52.472656-117.203125-117.203125s52.472656-117.203125 117.203125-117.203125 117.203125 52.472656 117.203125 117.203125-52.472656 117.203125-117.203125 117.203125zm0 0" fill="#27488f"/><path d="m448.511719 290.949219v-69.898438h-38.246094c-4.015625-17.792969-11.03125-34.445312-20.484375-49.410156l27.054688-27.054687-49.421876-49.421876-27.054687 27.054688c-14.960937-9.453125-31.617187-16.46875-49.410156-20.484375v-38.246094h-35.140625v75.3125c.066406 0 .128906-.003906.191406-.003906 64.730469 0 117.203125 52.472656 117.203125 117.203125s-52.472656 117.203125-117.203125 117.203125c-.0625 0-.128906 0-.191406 0v75.308594h35.140625v-38.246094c17.792969-4.015625 34.449219-11.027344 49.410156-20.484375l27.054687 27.058594 49.421876-49.425782-27.054688-27.054687c9.453125-14.960937 16.46875-31.617187 20.484375-49.410156zm0 0" fill="#12254c"/></svg>