<svg height="512pt" viewBox="0 0 512 512" width="512pt" xmlns="http://www.w3.org/2000/svg"><path d="m512 256c0 141.386719-114.613281 256-256 256s-256-114.613281-256-256 114.613281-256 256-256 256 114.613281 256 256zm0 0" fill="#27488f"/><path d="m512 256c0-4.734375-.140625-9.4375-.390625-14.109375l-84.617187-84.613281-58.5-5.125-71.429688-71.429688-65.0625-3.722656-47.023438 71-91.667968 12.667969 27.976562 82.140625-27.976562 121.191406 148.242187 147.585938c4.785157.265624 9.597657.414062 14.449219.414062 141.386719 0 256-114.613281 256-256zm0 0" fill="#12254c"/><path d="m256 453.445312c-25.113281 0-47.757812-21.964843-63.765625-61.847656-14.613281-36.414062-22.660156-84.570312-22.660156-135.597656s8.046875-99.1875 22.660156-135.597656c16.007813-39.882813 38.652344-61.847656 63.765625-61.847656s47.757812 21.964843 63.765625 61.847656c14.613281 36.410156 22.660156 84.570312 22.660156 135.597656s-8.046875 99.1875-22.660156 135.597656c-16.007813 39.882813-38.652344 61.847656-63.765625 61.847656zm0-370.890624c-14.222656 0-29.734375 17.492187-41.488281 46.785156-13.5 33.640625-20.9375 78.621094-20.9375 126.660156s7.433593 93.019531 20.9375 126.660156c11.753906 29.292969 27.265625 46.785156 41.488281 46.785156s29.734375-17.492187 41.488281-46.785156c13.503907-33.640625 20.9375-78.621094 20.9375-126.660156s-7.433593-93.019531-20.9375-126.660156c-11.753906-29.296875-27.265625-46.785156-41.488281-46.785156zm0 0" fill="#fff"/><path d="m319.765625 120.402344c-16.007813-39.882813-38.652344-61.847656-63.765625-61.847656-.0625 0-.128906.003906-.191406.003906v24.003906c.0625 0 .128906-.007812.191406-.007812 14.222656 0 29.734375 17.492187 41.488281 46.785156 13.503907 33.640625 20.9375 78.621094 20.9375 126.660156s-7.433593 93.019531-20.9375 126.660156c-11.753906 29.292969-27.265625 46.785156-41.488281 46.785156-.0625 0-.128906-.007812-.191406-.007812v24.003906c.066406 0 .128906.003906.191406.003906 25.113281 0 47.757812-21.964843 63.765625-61.847656 14.613281-36.410156 22.660156-84.570312 22.660156-135.597656s-8.046875-99.1875-22.660156-135.597656zm0 0" fill="#e9edf5"/><path d="m366.578125 380.917969c-7.777344 0-16.136719-.628907-25.027344-1.898438-38.839843-5.550781-84.570312-22.660156-128.765625-48.171875-44.191406-25.515625-81.871094-56.566406-106.097656-87.425781-26.539062-33.804687-34.238281-64.398437-21.679688-86.144531 12.554688-21.75 42.898438-30.378906 85.441407-24.296875 38.839843 5.550781 84.570312 22.65625 128.765625 48.171875 44.191406 25.515625 81.871094 56.5625 106.101562 87.425781 26.535156 33.804687 34.234375 64.394531 21.675782 86.144531-9.929688 17.203125-30.992188 26.195313-60.414063 26.195313zm-221.207031-225.835938c-19.996094 0-34.238282 4.945313-39.578125 14.195313-7.113281 12.316406.277343 34.496094 19.769531 59.324218 22.382812 28.511719 57.621094 57.441407 99.222656 81.460938 41.605469 24.019531 84.277344 40.074219 120.160156 45.199219 31.25 4.464843 54.152344-.222657 61.261719-12.539063 7.113281-12.316406-.277343-34.496094-19.769531-59.324218-22.382812-28.511719-57.621094-57.441407-99.222656-81.460938-41.605469-24.019531-84.277344-40.070312-120.160156-45.199219-7.785157-1.113281-15.050782-1.65625-21.683594-1.65625zm0 0" fill="#fff"/><path d="m405.3125 268.578125c-24.226562-30.859375-61.90625-61.910156-106.101562-87.425781-14.402344-8.3125-28.964844-15.726563-43.402344-22.148438v26.402344c10.453125 4.976562 20.960937 10.503906 31.402344 16.53125 41.605468 24.019531 76.84375 52.949219 99.226562 81.460938 19.488281 24.832031 26.882812 47.007812 19.769531 59.324218s-30.011719 17.003906-61.261719 12.539063c-26.984374-3.855469-57.8125-13.894531-89.136718-28.847657v26.414063c29.992187 13.375 59.445312 22.433594 85.742187 26.191406 8.890625 1.273438 17.25 1.902344 25.023438 1.902344 29.421875 0 50.484375-8.996094 60.417969-26.199219 12.558593-21.746094 4.859374-52.339844-21.679688-86.144531zm0 0" fill="#e9edf5"/><path d="m145.421875 380.917969c-29.425781 0-50.480469-8.992188-60.414063-26.195313-12.558593-21.75-4.859374-52.339844 21.679688-86.144531 24.226562-30.863281 61.90625-61.910156 106.097656-87.425781 44.195313-25.515625 89.925782-42.621094 128.765625-48.171875 42.539063-6.082031 72.886719 2.546875 85.441407 24.296875 12.558593 21.746094 4.855468 52.339844-21.679688 86.144531-24.226562 30.859375-61.90625 61.910156-106.101562 87.425781-44.191407 25.511719-89.921876 42.621094-128.761719 48.171875-8.890625 1.269531-17.253907 1.898438-25.027344 1.898438zm221.207031-225.835938c-6.632812 0-13.898437.542969-21.683594 1.65625-35.882812 5.128907-78.554687 21.179688-120.160156 45.199219-41.601562 24.019531-76.839844 52.949219-99.222656 81.460938-19.492188 24.832031-26.882812 47.007812-19.769531 59.324218 7.109375 12.316406 30.011719 17.003906 61.261719 12.539063 35.882812-5.125 78.554687-21.179688 120.160156-45.199219 41.601562-24.019531 76.839844-52.949219 99.222656-81.460938 19.492188-24.828124 26.882812-47.007812 19.769531-59.324218-5.339843-9.25-19.585937-14.195313-39.578125-14.195313zm0 0" fill="#fff"/><path d="m426.992188 157.277344c-12.554688-21.75-42.902344-30.378906-85.441407-24.296875-26.292969 3.757812-55.746093 12.816406-85.742187 26.191406v26.414063c31.324218-14.953126 62.152344-24.992188 89.136718-28.847657 7.785157-1.113281 15.050782-1.65625 21.683594-1.65625 19.996094 0 34.238282 4.945313 39.582032 14.195313 7.109374 12.316406-.28125 34.496094-19.773438 59.324218-22.382812 28.511719-57.621094 57.441407-99.222656 81.460938-10.441406 6.027344-20.953125 11.554688-31.402344 16.53125v26.402344c14.433594-6.417969 29-13.835938 43.402344-22.148438 44.191406-25.515625 81.871094-56.566406 106.101562-87.425781 26.535156-33.804687 34.234375-64.398437 21.675782-86.144531zm0 0" fill="#e9edf5"/><path d="m299.988281 199.140625c0 24.292969-19.695312 43.988281-43.988281 43.988281s-43.988281-19.695312-43.988281-43.988281c0-24.296875 19.695312-43.988281 43.988281-43.988281s43.988281 19.691406 43.988281 43.988281zm0 0" fill="#ff432e"/><path d="m256 155.152344c-.054688 0-.105469.003906-.160156.003906v87.964844c.054687 0 .105468.007812.160156.007812 24.292969 0 43.988281-19.695312 43.988281-43.988281 0-24.296875-19.695312-43.988281-43.988281-43.988281zm0 0" fill="#db0404"/><path d="m256 328.925781c29.953125 0 56.605469-14.125 73.667969-36.074219-13.351563-27.207031-41.316407-45.945312-73.667969-45.945312s-60.316406 18.738281-73.667969 45.945312c17.0625 21.949219 43.714844 36.074219 73.667969 36.074219zm0 0" fill="#ff432e"/><path d="m256 246.90625c-.054688 0-.105469.003906-.160156.003906v82.015625h.160156c29.953125 0 56.605469-14.125 73.667969-36.074219-13.351563-27.207031-41.316407-45.945312-73.667969-45.945312zm0 0" fill="#db0404"/></svg>