<svg height="512pt" viewBox="0 0 512 512" width="512pt" xmlns="http://www.w3.org/2000/svg"><path d="m512 256c0 141.386719-114.613281 256-256 256s-256-114.613281-256-256 114.613281-256 256-256 256 114.613281 256 256zm0 0" fill="#abddff"/><path d="m512 256c0-5.082031-.164062-10.121094-.457031-15.128906l-104.269531-104.269532-10.683594 18.851563-51.664063-51.664063-262.925781 253.664063 153.75 153.75c6.679688.523437 13.433594.796875 20.25.796875 141.386719 0 256-114.613281 256-256zm0 0" fill="#78b0f0"/><path d="m104.726562 136.601562h302.546876v220.851563h-302.546876zm0 0" fill="#fff"/><path d="m255.808594 136.601562h151.46875v220.851563h-151.46875zm0 0" fill="#e9edf5"/><path d="m122.457031 153.90625h267.085938v203.546875h-267.085938zm0 0" fill="#27488f"/><path d="m255.808594 153.90625h133.734375v203.546875h-133.734375zm0 0" fill="#12254c"/><path d="m82 323.644531h348v33.808594h-348zm0 0" fill="#e6e6e6"/><path d="m255.808594 323.644531h174.191406v33.8125h-174.191406zm0 0" fill="#d7d7d7"/><path d="m368.570312 172.8125c0 62.171875-50.398437 112.570312-112.570312 112.570312s-112.570312-50.398437-112.570312-112.570312 50.398437-112.570312 112.570312-112.570312 112.570312 50.398437 112.570312 112.570312zm0 0" fill="#ffe000"/><path d="m256 60.242188c-.0625 0-.128906 0-.191406 0v225.140624h.191406c62.171875 0 112.570312-50.398437 112.570312-112.570312s-50.398437-112.570312-112.570312-112.570312zm0 0" fill="#ffc200"/><path d="m272.929688 224.542969v-11.273438h-33.859376v11.273438c0 5.113281-3.195312 9.675781-8 11.425781l-52.058593 18.960938c20.132812 18.882812 47.207031 30.453124 76.988281 30.453124s56.855469-11.570312 76.988281-30.453124l-52.0625-18.960938c-4.800781-1.75-7.996093-6.3125-7.996093-11.425781zm0 0" fill="#faa68e"/><path d="m332.988281 254.929688-52.0625-18.960938c-4.800781-1.75-7.996093-6.3125-7.996093-11.425781v-11.273438h-17.121094v72.113281h.191406c29.78125 0 56.855469-11.570312 76.988281-30.453124zm0 0" fill="#e09380"/><g fill="#dbeeff"><path d="m280.925781 235.96875c-2.332031-.851562-4.285156-2.371094-5.675781-4.292969l-19.25 14.277344-19.25-14.273437c-1.390625 1.917968-3.34375 3.4375-5.675781 4.289062l-52.0625 18.960938c20.132812 18.882812 47.207031 30.453124 76.988281 30.453124s56.855469-11.570312 76.988281-30.453124zm0 0"/><path d="m236.75 231.679688c-1.390625 1.917968-3.34375 3.4375-5.675781 4.289062l-52.0625 18.960938c20.089843 18.84375 47.09375 30.402343 76.796875 30.453124v-39.570312zm0 0"/><path d="m332.988281 254.929688-52.0625-18.960938c-2.332031-.851562-4.285156-2.371094-5.675781-4.292969l-19.25 14.277344-.191406-.140625v39.570312h.191406c29.78125 0 56.855469-11.570312 76.988281-30.453124zm0 0"/></g><path d="m256 245.953125-15.976562 17.589844-13.304688-27.847657 7.148438-6.15625zm0 0" fill="#fff"/><path d="m256 245.953125 15.976562 17.589844 13.304688-27.847657-7.148438-6.15625zm0 0" fill="#e9edf5"/><path d="m324.359375 153.585938c0-37.84375-30.605469-68.523438-68.359375-68.523438s-68.359375 30.679688-68.359375 68.523438v56.253906h136.714844v-56.253906zm0 0" fill="#fe6a16"/><path d="m324.359375 153.585938c0-37.84375-30.605469-68.523438-68.359375-68.523438-.0625 0-.128906.003906-.191406.003906v124.773438h68.550781zm0 0" fill="#ff432e"/><path d="m229.0625 170.132812c0 8.03125-6.511719 14.542969-14.542969 14.542969s-14.542969-6.511719-14.542969-14.542969 6.511719-14.542968 14.542969-14.542968 14.542969 6.511718 14.542969 14.542968zm0 0" fill="#ffbeaa"/><path d="m312.023438 170.132812c0 8.03125-6.511719 14.542969-14.542969 14.542969s-14.542969-6.511719-14.542969-14.542969 6.511719-14.542968 14.542969-14.542968 14.542969 6.511718 14.542969 14.542968zm0 0" fill="#faa68e"/><path d="m275.363281 220.179688-9.710937 4.988281c-6.058594 3.109375-13.246094 3.109375-19.304688 0l-9.710937-4.988281c-14.390625-7.394532-23.4375-22.214844-23.4375-38.390626v-37.851562c0-23.636719 19.164062-42.800781 42.800781-42.800781s42.800781 19.164062 42.800781 42.800781v37.851562c0 16.175782-9.046875 30.996094-23.4375 38.390626zm0 0" fill="#ffcdbe"/><path d="m256 101.136719c-.0625 0-.128906.003906-.191406.003906v126.355469c3.375.027344 6.757812-.742188 9.84375-2.328125l9.710937-4.988281c14.390625-7.394532 23.4375-22.214844 23.4375-38.390626v-37.851562c0-23.636719-19.164062-42.800781-42.800781-42.800781zm0 0" fill="#ffbeaa"/><path d="m289.171875 164.320312h-65.460937c-7.183594 0-13.003907-5.824218-13.003907-13.003906v-25.371094c0-16.453124 13.339844-29.792968 29.792969-29.792968h31.878906c16.453125 0 29.792969 13.339844 29.792969 29.792968v25.371094c0 7.179688-5.820313 13.003906-13 13.003906zm0 0" fill="#fe6a16"/><path d="m272.378906 96.152344h-16.570312v68.167968h33.363281c7.179687 0 13-5.824218 13-13.003906v-25.367187c0-16.457031-13.339844-29.796875-29.792969-29.796875zm0 0" fill="#ff432e"/><path d="m252.59375 285.328125c1.128906.035156 2.265625.058594 3.40625.058594s2.277344-.023438 3.40625-.058594v-39.363281h-6.8125zm0 0" fill="#fff"/><path d="m255.808594 245.964844v39.417968h.191406c1.140625 0 2.277344-.023437 3.40625-.054687v-39.363281zm0 0" fill="#e9edf5"/></svg>