<svg height="512pt" viewBox="0 0 512 512" width="512pt" xmlns="http://www.w3.org/2000/svg"><path d="m512 256c0 141.386719-114.613281 256-256 256s-256-114.613281-256-256 114.613281-256 256-256 256 114.613281 256 256zm0 0" fill="#27488f"/><path d="m512 256c0-7.632812-.355469-15.183594-1.007812-22.648438l-120.105469-120.105468-134.886719-53.746094-135.90625 61.144531-57.140625 129.355469 14.046875 56.75 42.976562 90.925781 116.519532 113.589844c6.4375.484375 12.941406.734375 19.503906.734375 141.386719 0 256-114.613281 256-256zm0 0" fill="#12254c"/><path d="m256 452.5c-108.351562 0-196.5-88.148438-196.5-196.5s88.148438-196.5 196.5-196.5 196.5 88.148438 196.5 196.5-88.148438 196.5-196.5 196.5zm0-375c-98.425781 0-178.5 80.074219-178.5 178.5s80.074219 178.5 178.5 178.5 178.5-80.074219 178.5-178.5-80.074219-178.5-178.5-178.5zm0 0" fill="#fff"/><path d="m256 59.5c-.0625 0-.128906.003906-.191406.003906v18c.0625 0 .128906-.003906.191406-.003906 98.425781 0 178.5 80.074219 178.5 178.5s-80.074219 178.5-178.5 178.5c-.0625 0-.128906-.003906-.191406-.003906v18c.0625 0 .128906.003906.191406.003906 108.351562 0 196.5-88.148438 196.5-196.5s-88.148438-196.5-196.5-196.5zm0 0" fill="#e9edf5"/><path d="m256 413.5c-86.847656 0-157.5-70.652344-157.5-157.5h18c0 76.921875 62.578125 139.5 139.5 139.5zm0 0" fill="#fff"/><path d="m328.511719 395.851562-8.300781-15.972656c46.441406-24.125 75.289062-71.59375 75.289062-123.878906 0-30.597656-9.71875-59.636719-28.101562-83.980469-17.792969-23.5625-43.074219-41.191406-71.1875-49.640625l5.179687-17.238281c31.75 9.542969 60.292969 29.441406 80.375 56.03125 20.757813 27.496094 31.734375 60.285156 31.734375 94.828125 0 59.03125-32.566406 112.617188-84.988281 139.851562zm0 0" fill="#e9edf5"/><path d="m124.589844 209.066406-16.953125-6.054687c22.328125-62.511719 81.953125-104.511719 148.363281-104.511719v18c-58.824219 0-111.636719 37.199219-131.410156 92.566406zm0 0" fill="#fff"/><g fill="#ffe000"><path d="m368.570312 256c0 62.171875-50.398437 112.570312-112.570312 112.570312s-112.570312-50.398437-112.570312-112.570312 50.398437-112.570312 112.570312-112.570312 112.570312 50.398437 112.570312 112.570312zm0 0"/><path d="m143.429688 256c0 62.105469 50.296874 112.464844 112.378906 112.570312v-225.140624c-62.082032.105468-112.378906 50.460937-112.378906 112.570312zm0 0"/><path d="m256 143.429688c-.0625 0-.128906 0-.191406 0v225.136718c.0625 0 .128906.003906.191406.003906 62.171875 0 112.570312-50.398437 112.570312-112.570312s-50.398437-112.570312-112.570312-112.570312zm0 0"/></g><path d="m272.929688 307.730469v-11.277344h-33.859376v11.277344c0 5.113281-3.195312 9.675781-8 11.425781l-52.0625 18.960938c20.132813 18.882812 47.210938 30.453124 76.992188 30.453124s56.855469-11.570312 76.988281-30.453124l-52.0625-18.960938c-4.800781-1.75-7.996093-6.3125-7.996093-11.425781zm0 0" fill="#faa68e"/><path d="m332.988281 338.117188-52.0625-18.960938c-4.800781-1.75-7.996093-6.3125-7.996093-11.425781v-11.273438h-17.121094v72.113281h.191406c29.78125 0 56.855469-11.570312 76.988281-30.453124zm0 0" fill="#e09380"/><path d="m280.925781 319.15625c-2.332031-.851562-4.285156-2.371094-5.675781-4.292969l-19.25 14.277344-19.25-14.277344c-1.390625 1.921875-3.34375 3.441407-5.675781 4.292969l-52.0625 18.960938c20.132812 18.886718 47.207031 30.453124 76.988281 30.453124s56.855469-11.566406 76.988281-30.453124zm0 0" fill="#dbeeff"/><path d="m332.988281 338.117188-52.0625-18.960938c-2.332031-.851562-4.285156-2.371094-5.675781-4.292969l-19.25 14.277344-.191406-.140625v39.566406c.0625 0 .128906.003906.191406.003906 29.78125 0 56.855469-11.570312 76.988281-30.453124zm0 0" fill="#bfe1ff"/><path d="m256 329.140625-15.976562 17.589844-13.304688-27.847657 7.148438-6.15625zm0 0" fill="#fff"/><path d="m256 329.140625 15.976562 17.589844 13.304688-27.847657-7.148438-6.15625zm0 0" fill="#e9edf5"/><path d="m324.359375 236.773438c0-37.84375-30.605469-68.523438-68.359375-68.523438s-68.359375 30.679688-68.359375 68.523438v56.25h136.714844v-56.25zm0 0" fill="#fe6a16"/><path d="m324.359375 236.773438c0-37.84375-30.605469-68.523438-68.359375-68.523438-.0625 0-.128906.003906-.191406.003906v124.769532h68.550781zm0 0" fill="#ff432e"/><path d="m229.0625 253.320312c0 8.03125-6.511719 14.539063-14.542969 14.539063s-14.542969-6.507813-14.542969-14.539063 6.511719-14.542968 14.542969-14.542968 14.542969 6.511718 14.542969 14.542968zm0 0" fill="#ffbeaa"/><path d="m312.023438 253.320312c0 8.03125-6.511719 14.539063-14.542969 14.539063s-14.542969-6.507813-14.542969-14.539063 6.511719-14.542968 14.542969-14.542968 14.542969 6.511718 14.542969 14.542968zm0 0" fill="#faa68e"/><path d="m275.363281 303.363281-9.710937 4.992188c-6.058594 3.109375-13.246094 3.109375-19.304688 0l-9.710937-4.992188c-14.390625-7.390625-23.4375-22.210937-23.4375-38.386719v-37.851562c0-23.640625 19.164062-42.800781 42.800781-42.800781s42.800781 19.160156 42.800781 42.800781v37.851562c0 16.175782-9.046875 30.996094-23.4375 38.386719zm0 0" fill="#ffcdbe"/><path d="m256 184.324219c-.0625 0-.128906.003906-.191406.003906v126.355469c3.375.03125 6.757812-.742188 9.84375-2.328125l9.710937-4.988281c14.390625-7.394532 23.4375-22.214844 23.4375-38.390626v-37.851562c0-23.640625-19.164062-42.800781-42.800781-42.800781zm0 0" fill="#ffbeaa"/><path d="m289.171875 247.507812h-65.460937c-7.183594 0-13.003907-5.824218-13.003907-13.003906v-25.371094c0-16.453124 13.339844-29.792968 29.792969-29.792968h31.878906c16.453125 0 29.792969 13.339844 29.792969 29.792968v25.371094c0 7.179688-5.820313 13.003906-13 13.003906zm0 0" fill="#fe6a16"/><path d="m272.378906 179.339844h-16.570312v68.167968h33.363281c7.179687 0 13-5.824218 13-13.003906v-25.367187c0-16.457031-13.339844-29.796875-29.792969-29.796875zm0 0" fill="#ff432e"/><path d="m252.59375 368.515625c1.128906.035156 2.265625.054687 3.40625.054687s2.277344-.019531 3.40625-.054687v-39.363281h-6.8125zm0 0" fill="#fff"/><path d="m255.808594 329.152344v39.414062c.066406 0 .128906.003906.191406.003906 1.140625 0 2.277344-.023437 3.40625-.054687v-39.367187h-3.597656zm0 0" fill="#e9edf5"/><path d="m154 412.90625 20.304688-30.070312 14.917968 10.070312-20.304687 30.074219zm0 0" fill="#fff"/><path d="m123.625 133.363281 12.75-12.707031 22.46875 22.539062-12.75 12.710938zm0 0" fill="#fff"/><path d="m370.960938 348.132812 12.636718-12.816406 27.230469 26.851563-12.640625 12.816406zm0 0" fill="#e9edf5"/><path d="m363.8125 151.535156 33.351562-20.882812 9.550782 15.257812-33.351563 20.882813zm0 0" fill="#e9edf5"/><path d="m232.359375 69.0625h18v38.4375h-18zm0 0" fill="#fff"/></svg>