<svg height="512pt" viewBox="0 0 512 512" width="512pt" xmlns="http://www.w3.org/2000/svg"><path d="m512 256c0 141.386719-114.613281 256-256 256s-256-114.613281-256-256 114.613281-256 256-256 256 114.613281 256 256zm0 0" fill="#ff432e"/><path d="m512 256c0-18.628906-2.007812-36.789062-5.789062-54.289062l-117.710938-117.710938-265 344 78.214844 78.210938c17.496094 3.78125 35.65625 5.789062 54.285156 5.789062 141.386719 0 256-114.613281 256-256zm0 0" fill="#db0404"/><path d="m192 84-68.5 68.5v275.5h265v-344zm0 0" fill="#fff"/><path d="m255.808594 84h132.691406v344h-132.691406zm0 0" fill="#e9edf5"/><path d="m192 152.5v-68.5l-68.5 68.5zm0 0" fill="#27488f"/><g fill="#12254c"><path d="m305.730469 167.980469c0 27.464843-22.265625 49.726562-49.730469 49.726562s-49.730469-22.261719-49.730469-49.726562c0-27.464844 22.265625-49.730469 49.730469-49.730469s49.730469 22.265625 49.730469 49.730469zm0 0"/><path d="m256 118.25c-.0625 0-.128906.003906-.191406.003906v99.449219c.066406 0 .128906.003906.191406.003906 27.464844 0 49.730469-22.265625 49.730469-49.730469 0-27.464843-22.265625-49.726562-49.730469-49.726562zm0 0"/><path d="m306.964844 358.300781h-101.929688l17.472656-145.035156h66.984376zm0 0"/><path d="m289.492188 213.265625h-33.683594v145.035156h51.15625zm0 0"/></g><path d="m205.035156 204.238281h101.933594v29.703125h-101.933594zm0 0" fill="#27488f"/><path d="m255.808594 204.238281h51.160156v29.703125h-51.160156zm0 0" fill="#1b3b6b"/><path d="m190.878906 344.484375h130.242188v29.707031h-130.242188zm0 0" fill="#27488f"/><path d="m255.808594 344.484375h65.3125v29.707031h-65.3125zm0 0" fill="#1b3b6b"/><path d="m173 364.871094h166v29.707031h-166zm0 0" fill="#12254c"/><path d="m255.808594 364.871094h83.191406v29.707031h-83.191406zm0 0" fill="#12254c"/></svg>