<svg height="512pt" viewBox="0 0 512 512" width="512pt" xmlns="http://www.w3.org/2000/svg"><path d="m512 256c0 141.386719-114.613281 256-256 256s-256-114.613281-256-256 114.613281-256 256-256 256 114.613281 256 256zm0 0" fill="#abddff"/><path d="m512 256c0-6.875-.277344-13.683594-.8125-20.421875l-147.074219-147.074219-42.988281 1.308594 41.003906 41-2.410156 51.355469-77.984375-77.984375-169.222656 133.984375 118.894531 118.894531v6.570312l-50.519531-50.519531-47.695313-14.949219-16.652344 31.214844 32.523438 32.519532-4.445312 55.921874 92.308593 93.472657c6.300781.464843 12.660157.707031 19.074219.707031 141.386719 0 256-114.613281 256-256zm0 0" fill="#78b0f0"/><g fill="#12254c"><path d="m437.105469 344.484375c0 62.171875-50.402344 112.574219-112.574219 112.574219-62.167969 0-112.570312-50.402344-112.570312-112.574219 0-62.167969 50.402343-112.570313 112.570312-112.570313 62.171875 0 112.574219 50.402344 112.574219 112.570313zm0 0"/><path d="m211.960938 344.484375c0 62.105469 50.292968 112.460937 112.375 112.570313v-225.136719c-62.082032.105469-112.375 50.464843-112.375 112.566406zm0 0"/><path d="m324.53125 231.914062c-.066406 0-.132812.003907-.195312.003907v225.136719c.066406 0 .132812.003906.195312.003906 62.171875 0 112.574219-50.402344 112.574219-112.570313 0-62.171875-50.402344-112.574219-112.574219-112.574219zm0 0"/></g><path d="m341.460938 396.21875v-11.277344h-33.859376v11.277344c0 5.109375-3.195312 9.675781-7.996093 11.425781l-52.0625 18.960938c20.132812 18.882812 47.207031 30.453125 76.988281 30.453125s56.859375-11.570313 76.992188-30.453125l-52.0625-18.960938c-4.804688-1.75-8-6.316406-8-11.425781zm0 0" fill="#faa68e"/><path d="m401.523438 426.605469-52.0625-18.960938c-4.804688-1.75-8-6.316406-8-11.425781v-11.277344h-17.128907v72.113282c.066407 0 .132813.003906.199219.003906 29.78125 0 56.859375-11.570313 76.992188-30.453125zm0 0" fill="#e09380"/><path d="m349.460938 407.640625c-2.335938-.847656-4.285157-2.367187-5.679688-4.289063l-19.25 14.277344-19.246094-14.277344c-1.394531 1.917969-3.34375 3.4375-5.679687 4.289063l-52.0625 18.960937c20.132812 18.886719 47.210937 30.457032 76.988281 30.457032 29.78125 0 56.859375-11.570313 76.992188-30.457032zm0 0" fill="#dbeeff"/><path d="m401.523438 426.605469-52.0625-18.960938c-2.335938-.851562-4.285157-2.371093-5.679688-4.292969l-19.25 14.277344-.195312-.148437v39.574219c.066406 0 .132812.003906.195312.003906 29.78125 0 56.859375-11.570313 76.992188-30.453125zm0 0" fill="#bfe1ff"/><path d="m324.53125 417.628906-15.976562 17.589844-13.304688-27.851562 7.148438-6.15625zm0 0" fill="#fff"/><path d="m324.53125 417.628906 15.976562 17.589844 13.304688-27.851562-7.148438-6.15625zm0 0" fill="#fff"/><path d="m392.890625 325.261719c0-37.847657-30.605469-68.527344-68.359375-68.527344s-68.355469 30.679687-68.355469 68.527344v56.25h136.714844zm0 0" fill="#fe6a16"/><path d="m392.890625 325.261719c0-37.847657-30.605469-68.527344-68.359375-68.527344-.066406 0-.132812.003906-.199219.003906v124.773438h68.558594zm0 0" fill="#ff432e"/><path d="m297.59375 341.804688c0 8.03125-6.511719 14.542968-14.542969 14.542968s-14.542969-6.511718-14.542969-14.542968 6.511719-14.539063 14.542969-14.539063 14.542969 6.507813 14.542969 14.539063zm0 0" fill="#ffbeaa"/><path d="m380.554688 341.804688c0 8.03125-6.507813 14.542968-14.539063 14.542968s-14.542969-6.511718-14.542969-14.542968 6.511719-14.539063 14.542969-14.539063 14.539063 6.507813 14.539063 14.539063zm0 0" fill="#faa68e"/><path d="m343.894531 391.851562-9.710937 4.988282c-6.058594 3.113281-13.246094 3.113281-19.300782 0l-9.710937-4.988282c-14.390625-7.390624-23.4375-22.210937-23.4375-38.390624v-37.851563c0-23.636719 19.160156-42.796875 42.796875-42.796875 23.640625 0 42.800781 19.160156 42.800781 42.796875v37.851563c0 16.179687-9.046875 31-23.4375 38.390624zm0 0" fill="#ffcdbe"/><path d="m324.53125 272.808594c-.066406 0-.132812.007812-.195312.007812v126.351563c3.375.03125 6.757812-.742188 9.847656-2.328125l9.710937-4.988282c14.390625-7.390624 23.4375-22.210937 23.4375-38.390624v-37.851563c0-23.636719-19.160156-42.800781-42.800781-42.800781zm0 0" fill="#ffbeaa"/><path d="m357.703125 335.992188h-65.460937c-7.179688 0-13.003907-5.820313-13.003907-13.003907v-25.367187c0-16.457032 13.339844-29.796875 29.796875-29.796875h31.875c16.453125 0 29.792969 13.339843 29.792969 29.796875v25.367187c0 7.183594-5.820313 13.003907-13 13.003907zm0 0" fill="#fe6a16"/><path d="m340.910156 267.828125h-16.578125v68.164063h33.371094c7.179687 0 13-5.820313 13-13v-25.371094c0-16.457032-13.339844-29.792969-29.792969-29.792969zm0 0" fill="#ff432e"/><path d="m321.125 457c1.132812.035156 2.265625.058594 3.40625.058594 1.144531 0 2.277344-.023438 3.410156-.058594v-39.363281h-6.816406zm0 0" fill="#fff"/><path d="m324.332031 417.636719v39.417969c.066407 0 .132813.003906.199219.003906 1.140625 0 2.277344-.023438 3.410156-.058594v-39.363281zm0 0" fill="#e9edf5"/><path d="m302.585938 167.980469c0 59.644531-48.351563 108-108 108-59.644532 0-108-48.355469-108-108 0-59.648438 48.355468-108 108-108 59.648437 0 108 48.351562 108 108zm0 0" fill="#12254c"/><path d="m302.585938 167.980469c0-59.621094-48.308594-107.957031-107.917969-108v215.996093c59.609375-.042968 107.917969-48.378906 107.917969-107.996093zm0 0" fill="#12254c"/><path d="m210.828125 217.609375v-10.820313h-32.484375v10.820313c0 4.902344-3.066406 9.28125-7.671875 10.960937l-49.949219 18.191407c19.316406 18.117187 45.292969 29.214843 73.863282 29.214843 28.574218 0 54.550781-11.097656 73.863281-29.214843l-49.945313-18.191407c-4.609375-1.679687-7.675781-6.058593-7.675781-10.960937zm0 0" fill="#faa68e"/><path d="m218.503906 228.570312c-4.609375-1.679687-7.675781-6.058593-7.675781-10.960937v-10.816406h-16.160156v69.1875c28.539062-.023438 54.484375-11.117188 73.78125-29.21875zm0 0" fill="#e09380"/><path d="m166.496094 161.1875c0 7.707031-6.246094 13.953125-13.953125 13.953125s-13.953125-6.246094-13.953125-13.953125c0-7.703125 6.246094-13.953125 13.953125-13.953125s13.953125 6.25 13.953125 13.953125zm0 0" fill="#ffbeaa"/><path d="m250.582031 161.1875c0 7.707031-6.246093 13.953125-13.949219 13.953125-7.707031 0-13.953124-6.246094-13.953124-13.953125 0-7.703125 6.246093-13.953125 13.953124-13.953125 7.703126 0 13.949219 6.25 13.949219 13.953125zm0 0" fill="#faa68e"/><path d="m213.164062 213.421875-9.316406 4.785156c-5.8125 2.984375-12.707031 2.984375-18.519531 0l-9.316406-4.785156c-13.808594-7.09375-22.488281-21.3125-22.488281-36.832031v-36.316406c0-22.675782 18.382812-41.058594 41.0625-41.058594 22.679687 0 41.0625 18.382812 41.0625 41.058594v36.316406c0 15.519531-8.679688 29.738281-22.484376 36.832031zm0 0" fill="#ffbeaa"/><path d="m194.667969 99.214844v121.230468c3.148437-.015624 6.296875-.757812 9.179687-2.238281l9.316406-4.785156c13.804688-7.09375 22.484376-21.3125 22.484376-36.832031v-36.3125c0-22.652344-18.339844-41.019532-40.980469-41.0625zm0 0" fill="#faa68e"/><path d="m219.164062 94.433594h-4.257812c-1.722656 0-3.222656.925781-4.046875 2.304687-.695313-1.367187-2.117187-2.304687-3.757813-2.304687h-29.601562c-19.921875 0-36.070312 16.148437-36.070312 36.070312 0 7.027344 3.007812 13.351563 7.804687 17.757813v28.789062h8.4375v-23.753906c2.46875.851563 5.117187 1.320313 7.875 1.320313h21.65625c10.949219 0 20.1875-7.292969 23.132813-17.289063 1.136718 9.734375 9.40625 17.289063 19.445312 17.289063.582031 0 1.152344-.027344 1.71875-.078126v22.507813h8.4375v-25.265625c5.65625-3.433594 9.429688-9.652344 9.429688-16.75v-10.398438c0-16.679687-13.519532-30.199218-30.203126-30.199218zm0 0" fill="#ffe000"/><path d="m219.164062 94.433594h-4.257812c-1.722656 0-3.222656.925781-4.046875 2.304687-.695313-1.367187-2.117187-2.304687-3.757813-2.304687h-12.4375v58.996094c7.523438-2.449219 13.425782-8.484376 15.671876-16.101563 1.136718 9.734375 9.40625 17.292969 19.445312 17.292969.578125 0 1.152344-.03125 1.71875-.082032v22.511719h8.4375v-25.265625c5.652344-3.4375 9.429688-9.652344 9.429688-16.75v-10.398437c0-16.683594-13.519532-30.203125-30.203126-30.203125zm0 0" fill="#ffc200"/><path d="m218.503906 228.570312c-2.242187-.816406-4.113281-2.273437-5.449218-4.117187l-18.46875 13.699219-18.464844-13.699219c-1.335938 1.84375-3.210938 3.300781-5.449219 4.117187l-49.949219 18.191407c19.316406 18.117187 45.292969 29.214843 73.863282 29.214843 28.574218 0 54.550781-11.097656 73.863281-29.214843zm0 0" fill="#dbeeff"/><path d="m218.503906 228.570312c-2.242187-.816406-4.113281-2.273437-5.449218-4.117187l-18.390626 13.636719v37.886718c28.542969-.019531 54.488282-11.113281 73.785157-29.214843zm0 0" fill="#bfe1ff"/><path d="m199.648438 254.761719h-10.125l-4.21875-16.59375h18.5625zm0 0" fill="#27488f"/><path d="m203.867188 238.167969h-9.199219v16.59375h4.980469zm0 0" fill="#12254c"/><path d="m186.449219 275.675781c2.6875.199219 5.398437.304688 8.136719.304688 2.738281 0 5.449218-.105469 8.136718-.304688l-3.074218-20.914062h-10.125zm0 0" fill="#27488f"/><path d="m199.648438 254.761719h-4.980469v21.214843c2.710937 0 5.394531-.105468 8.054687-.300781zm0 0" fill="#12254c"/><path d="m194.585938 238.148438-15.328126 16.875-12.765624-26.714844 6.859374-5.910156zm0 0" fill="#fff"/><path d="m166.492188 228.308594-46.71875 17.554687c15.703124 15.085938 35.953124 25.472657 58.496093 28.890625zm0 0" fill="#2864f0"/><path d="m194.585938 238.148438 15.328124 16.875 12.765626-26.714844-6.859376-5.910156zm0 0" fill="#e9edf5"/><path d="m269.398438 245.863281-46.71875-17.554687-11.777344 46.445312c22.542968-3.417968 42.792968-13.804687 58.496094-28.890625zm0 0" fill="#27488f"/><path d="m178.269531 274.753906-11.777343-46.449218-15.640626 26.71875 15.640626 7.875-4.625 8.027343c5.304687 1.683594 10.78125 2.972657 16.402343 3.828125zm0 0" fill="#27488f"/><path d="m210.902344 274.753906 11.777344-46.449218 15.640624 26.71875-15.640624 7.875 4.625 8.027343c-5.300782 1.683594-10.78125 2.972657-16.402344 3.828125zm0 0" fill="#12254c"/><path d="m182.582031 410.660156c-16.816406 0-30.5-13.683594-30.5-30.5v-63.320312l12.542969 12.539062 16.265625-16.261718-40.304687-40.304688-40.308594 40.304688 16.265625 16.261718 12.542969-12.539062v63.320312c0 29.5 24 53.5 53.5 53.5zm0 0" fill="#27488f"/><path d="m387.164062 171.09375-12.539062 12.539062v-63.320312c0-29.5-24-53.5-53.5-53.5v23c16.816406 0 30.5 13.679688 30.5 30.5v63.320312l-12.542969-12.539062-16.265625 16.261719 40.304688 40.304687 40.308594-40.304687zm0 0" fill="#12254c"/></svg>