<svg height="512pt" viewBox="0 0 512 512" width="512pt" xmlns="http://www.w3.org/2000/svg"><path d="m512 256c0 141.386719-114.613281 256-256 256s-256-114.613281-256-256 114.613281-256 256-256 256 114.613281 256 256zm0 0" fill="#27488f"/><path d="m150.964844 148.035156 96.246094 96.25c.285156.285156.339843.726563.136718 1.070313l-10.988281 18.671875c-.292969.496094-.976563.585937-1.382813.175781l-86.691406-86.6875-59.230468 18.097656-1.40625.429688 47.261718 47.261719c.3125.3125.347656.804687.082032 1.15625l-22.859376 30.207031-.464843.613281 224.042969 224.042969c102.351562-33.507813 176.289062-129.773438 176.289062-243.324219 0-15.488281-1.375-30.65625-4.011719-45.386719l-97.105469-97.105469-48.976562 33.929688-.871094.597656 40.453125 40.457032c.347657.34375.347657.902343 0 1.246093l-2.699219 2.703125c-.34375.34375-.902343.34375-1.25 0l-74.148437-74.121094-1.285156.140626-64.285157 109.09375c-.292968.5-.972656.585937-1.382812.175781l-94.925781-94.921875-10.128907 14.625zm0 0" fill="#12254c"/><g fill="#ffc200"><path d="m363.714844 177.515625h60.636718v18.527344h-60.636718zm0 0"/><path d="m350.46875 132.8125 49.84375-34.527344 10.550781 15.230469-49.84375 34.527344zm0 0"/><path d="m361.03125 225.5 49.84375 34.53125-10.546875 15.226562-49.847656-34.527343zm0 0"/></g><path d="m148.289062 196.042969h-60.640624v-18.527344h60.640624zm0 0" fill="#ffe000"/><path d="m150.964844 148.046875-49.847656-34.53125 10.550781-15.226563 49.84375 34.527344zm0 0" fill="#ffe000"/><path d="m161.527344 240.757812-49.847656 34.527344-10.550782-15.230468 49.847656-34.527344zm0 0" fill="#ffe000"/><path d="m294.5 373.644531v-25.644531h-77v25.644531c0 11.621094-7.269531 22.003907-18.1875 25.980469l-118.398438 43.117188c45.785157 42.945312 107.359376 69.257812 175.085938 69.257812s129.300781-26.3125 175.085938-69.257812l-118.398438-43.117188c-10.917969-3.976562-18.1875-14.359375-18.1875-25.980469zm0 0" fill="#faa68e"/><path d="m431.085938 442.742188-118.398438-43.117188c-10.917969-3.976562-18.1875-14.359375-18.1875-25.980469v-25.644531h-38.691406v163.996094c.066406 0 .128906.003906.191406.003906 67.726562 0 129.300781-26.3125 175.085938-69.257812zm0 0" fill="#e09380"/><path d="m312.6875 399.625c-5.308594-1.933594-9.746094-5.390625-12.914062-9.761719l-43.773438 32.46875-43.773438-32.46875c-3.167968 4.371094-7.605468 7.824219-12.914062 9.757813l-118.398438 43.121094c45.785157 42.945312 107.359376 69.257812 175.085938 69.257812s129.300781-26.3125 175.085938-69.257812zm0 0" fill="#dbeeff"/><path d="m431.085938 442.742188-118.398438-43.117188c-5.308594-1.933594-9.746094-5.390625-12.914062-9.761719l-43.773438 32.46875-.191406-.140625v89.804688c.066406 0 .128906.003906.191406.003906 67.726562 0 129.300781-26.3125 175.085938-69.257812zm0 0" fill="#bfe1ff"/><path d="m268 461.707031h-24l-10-39.332031h44zm0 0" fill="#27488f"/><path d="m278 422.375h-22.191406v39.332031h12.191406zm0 0" fill="#12254c"/><path d="m236.710938 511.277344c6.367187.476562 12.800781.722656 19.289062.722656s12.921875-.246094 19.289062-.722656l-7.289062-49.570313h-24zm0 0" fill="#27488f"/><path d="m275.289062 511.277344-7.289062-49.570313h-12.191406v50.289063c.0625 0 .128906.003906.191406.003906 6.488281 0 12.921875-.246094 19.289062-.722656zm0 0" fill="#12254c"/><path d="m256 422.332031-36.332031 40-30.257813-63.332031 16.257813-14zm0 0" fill="#fff"/><path d="m189.410156 399-110.746094 41.617188c37.222657 35.761718 85.226563 60.378906 138.660157 68.476562zm0 0" fill="#2864f0"/><path d="m256 422.332031 36.332031 40 30.257813-63.332031-16.257813-14zm0 0" fill="#e9edf5"/><path d="m433.335938 440.617188-110.746094-41.617188-27.914063 110.09375c53.433594-8.097656 101.4375-32.714844 138.660157-68.476562zm0 0" fill="#27488f"/><path d="m217.324219 509.09375-27.914063-110.09375-37.078125 63.332031 37.078125 18.667969-10.96875 19.027344c12.570313 3.992187 25.554688 7.046875 38.882813 9.066406zm0 0" fill="#27488f"/><path d="m294.675781 509.09375 27.914063-110.09375 37.078125 63.332031-37.078125 18.667969 10.96875 19.027344c-12.570313 3.992187-25.554688 7.046875-38.882813 9.066406zm0 0" fill="#12254c"/><path d="m349.085938 182.527344c0-51.871094-42.425782-93.832032-94.46875-93.078125-49.980469.726562-90.792969 41.394531-91.6875 91.371093-.421876 23.59375 7.9375 45.226563 22.023437 61.851563 19.800781 23.355469 30.191406 53.257813 30.191406 83.875v8.535156h81.710938v-8.898437c0-30.46875 10.386719-60.207032 30.117187-83.429688 13.792969-16.230468 22.113282-37.257812 22.113282-60.226562zm0 0" fill="#fff"/><path d="m255.808594 89.449219v245.636719h41.046875v-8.898438c0-30.472656 10.386719-60.210938 30.117187-83.429688 13.792969-16.234374 22.113282-37.261718 22.113282-60.230468 0-51.472656-41.78125-93.179688-93.277344-93.078125zm0 0" fill="#e9edf5"/><path d="m215.144531 329.101562v34.027344c0 16.679688 16.441407 30.199219 36.71875 30.199219h8.273438c20.277343 0 36.71875-13.519531 36.71875-30.199219v-34.027344zm0 0" fill="#ffd400"/><path d="m255.808594 329.101562v64.226563h4.328125c20.277343 0 36.71875-13.519531 36.71875-30.199219v-34.027344zm0 0" fill="#fdba12"/></svg>