<svg height="512pt" viewBox="0 0 512 512" width="512pt" xmlns="http://www.w3.org/2000/svg"><path d="m512 256c0 141.386719-114.613281 256-256 256s-256-114.613281-256-256 114.613281-256 256-256 256 114.613281 256 256zm0 0" fill="#abddff"/><path d="m511.351562 237.859375-176.351562-176.351563-25.136719 24.152344-45.59375-45.59375-16.539062 54.128906 68.109375 68.109376-10.082032 18.621093-84.339843-84.339843-13.597657 9.417968 89.855469 89.851563-8.003906 14.78125-83.496094-83.496094-47.175781 324.859375 56.859375 56.859375c13.078125 2.058594 26.484375 3.140625 40.140625 3.140625 90.925781 0 170.769531-47.410156 216.1875-118.851562l-.800781-.800782 4.714843-5.570312c22.792969-38.277344 35.898438-82.996094 35.898438-130.777344 0-6.101562-.226562-12.144531-.648438-18.140625zm0 0" fill="#78b0f0"/><path d="m247.730469 94.195312v-54.128906h16.539062v54.128906zm0 0" fill="#ffe000"/><path d="m255.808594 40.066406h8.460937v54.128906h-8.460937zm0 0" fill="#ffc200"/><path d="m207.824219 106.011719-30.820313-44.492188 13.597656-9.417969 30.820313 44.492188zm0 0" fill="#ffe000"/><path d="m290.570312 96.59375 30.820313-44.492188 13.59375 9.417969-30.820313 44.492188zm0 0" fill="#ffc200"/><path d="m305.820312 127.140625v34.253906h-99.644531v-34.253906h-47.175781v324.859375h47.179688v-34.257812h99.644531v34.257812h47.175781v-324.859375zm0 86.300781v50.105469h-99.644531v-50.105469zm-99.640624 152.257813v-50.105469h99.644531v50.105469zm0 0" fill="#27488f"/><path d="m305.820312 127.140625v34.253906h-50.011718v52.046875h50.011718v50.105469h-50.011718v52.046875h50.011718v50.105469h-50.011718v52.042969h50.011718v34.257812h47.179688v-324.859375zm0 0" fill="#12254c"/></svg>