<svg height="512pt" viewBox="0 0 512 512" width="512pt" xmlns="http://www.w3.org/2000/svg"><path d="m512 256c0 141.386719-114.613281 256-256 256s-256-114.613281-256-256 114.613281-256 256-256 256 114.613281 256 256zm0 0" fill="#ffe000"/><path d="m307.851562 506.742188c116.527344-23.972657 204.148438-127.121094 204.148438-250.742188 0-7.898438-.378906-15.707031-1.078125-23.425781l-113.953125-113.953125-19.628906 19.632812-90.707032-90.710937-199.363281 199.359375 90.710938 90.707031-19.628907 19.628906zm0 0" fill="#ffc200"/><path d="m294.5 373.644531v-25.644531h-77v25.644531c0 11.621094-7.269531 22.003907-18.1875 25.980469l-118.398438 43.117188c45.785157 42.945312 107.359376 69.257812 175.085938 69.257812s129.300781-26.3125 175.085938-69.257812l-118.398438-43.117188c-10.917969-3.976562-18.1875-14.359375-18.1875-25.980469zm0 0" fill="#faa68e"/><path d="m431.085938 442.742188-118.398438-43.117188c-10.917969-3.976562-18.1875-14.359375-18.1875-25.980469v-25.644531h-38.691406v163.996094c.0625 0 .128906.003906.191406.003906 67.726562 0 129.300781-26.3125 175.085938-69.257812zm0 0" fill="#e09380"/><path d="m312.6875 399.625c-5.308594-1.933594-9.746094-5.390625-12.914062-9.761719l-43.773438 32.46875-43.773438-32.46875c-3.167968 4.371094-7.605468 7.824219-12.914062 9.757813l-118.398438 43.121094c45.785157 42.945312 107.359376 69.257812 175.085938 69.257812s129.300781-26.3125 175.085938-69.257812zm0 0" fill="#dbeeff"/><path d="m431.085938 442.742188-118.398438-43.117188c-5.308594-1.933594-9.746094-5.390625-12.914062-9.761719l-43.773438 32.46875-.191406-.140625v89.804688c.0625 0 .128906.003906.191406.003906 67.726562 0 129.300781-26.3125 175.085938-69.257812zm0 0" fill="#bfe1ff"/><path d="m268 461.707031h-24l-10-39.332031h44zm0 0" fill="#27488f"/><path d="m278 422.375h-22.191406v39.332031h12.191406zm0 0" fill="#12254c"/><path d="m236.710938 511.277344c6.367187.476562 12.800781.722656 19.289062.722656s12.921875-.246094 19.289062-.722656l-7.289062-49.570313h-24zm0 0" fill="#27488f"/><path d="m255.808594 511.996094c.0625 0 .128906.003906.191406.003906 6.488281 0 12.921875-.246094 19.289062-.722656l-7.289062-49.570313h-12.191406" fill="#12254c"/><path d="m256 422.332031-36.332031 40-30.257813-63.332031 16.257813-14zm0 0" fill="#fff"/><path d="m189.410156 399-110.746094 41.617188c37.222657 35.761718 85.226563 60.378906 138.660157 68.476562zm0 0" fill="#4a7aff"/><path d="m256 422.332031 36.332031 40 30.257813-63.332031-16.257813-14zm0 0" fill="#e9edf5"/><path d="m433.335938 440.617188-110.746094-41.617188-27.914063 110.09375c53.433594-8.097656 101.4375-32.714844 138.660157-68.476562zm0 0" fill="#27488f"/><path d="m217.324219 509.09375-27.914063-110.09375-37.078125 63.332031 37.078125 18.667969-10.96875 19.027344c12.570313 3.992187 25.554688 7.046875 38.882813 9.066406zm0 0" fill="#27488f"/><path d="m294.675781 509.09375 27.914063-110.09375 37.078125 63.332031-37.078125 18.667969 10.96875 19.027344c-12.570313 3.992187-25.554688 7.046875-38.882813 9.066406zm0 0" fill="#12254c"/><path d="m424.726562 246.902344v-61.261719h-33.519531c-3.519531-15.59375-9.667969-30.191406-17.953125-43.304687l23.714844-23.714844-43.320312-43.316406-23.710938 23.710937c-13.113281-8.285156-27.710938-14.433594-43.304688-17.953125v-33.519531h-61.261718v33.519531c-15.597656 3.519531-30.195313 9.667969-43.308594 17.953125l-23.710938-23.710937-43.320312 43.316406 23.710938 23.714844c-8.285157 13.109374-14.433594 27.710937-17.949219 43.304687h-33.519531v61.261719h33.519531c3.519531 15.59375 9.667969 30.191406 17.953125 43.304687l-23.714844 23.714844 43.320312 43.316406 23.714844-23.714843c13.113282 8.289062 27.710938 14.4375 43.304688 17.953124v33.523438h61.261718v-33.519531c15.59375-3.519531 30.191407-9.667969 43.304688-17.953125l23.714844 23.710937 43.316406-43.316406-23.710938-23.710937c8.285157-13.113282 14.433594-27.714844 17.953126-43.308594zm-168.726562 44.292968c-41.378906 0-74.925781-33.542968-74.925781-74.925781 0-41.378906 33.546875-74.921875 74.925781-74.921875s74.925781 33.542969 74.925781 74.925782c0 41.378906-33.546875 74.921874-74.925781 74.921874zm0 19.210938c-51.988281 0-94.136719-42.144531-94.136719-94.136719 0-51.988281 42.148438-94.132812 94.136719-94.132812s94.136719 42.144531 94.136719 94.136719c0 51.988281-42.148438 94.132812-94.136719 94.132812zm0 0" fill="#27488f"/><g fill="#12254c"><path d="m330.925781 216.273438c0-41.382813-33.542969-74.925782-74.925781-74.925782-.0625 0-.128906.003906-.191406.003906v149.839844c.066406 0 .128906.007813.191406.007813 41.378906-.003907 74.925781-33.546875 74.925781-74.925781zm0 0"/><path d="m424.726562 246.902344v-61.261719h-33.519531c-3.519531-15.59375-9.667969-30.191406-17.953125-43.304687l23.714844-23.714844-43.320312-43.316406-23.710938 23.710937c-13.113281-8.285156-27.710938-14.433594-43.304688-17.953125v-33.519531h-30.824218v74.59375h.191406c51.988281 0 94.136719 42.144531 94.136719 94.136719 0 51.988281-42.148438 94.132812-94.136719 94.132812-.0625 0-.128906 0-.191406 0v74.59375h30.824218v-33.519531c15.59375-3.519531 30.191407-9.667969 43.304688-17.953125l23.710938 23.710937 43.320312-43.316406-23.710938-23.710937c8.285157-13.113282 14.429688-27.714844 17.949219-43.308594zm0 0"/></g></svg>