<svg height="512pt" viewBox="0 0 512 512" width="512pt" xmlns="http://www.w3.org/2000/svg"><path d="m512 256c0 141.386719-114.613281 256-256 256s-256-114.613281-256-256 114.613281-256 256-256 256 114.613281 256 256zm0 0" fill="#ffe000"/><path d="m287.542969 61.902344-227.390625 227.390625 221.4375 221.4375c119.898437-11.902344 215.445312-106.523438 228.796875-225.988281zm0 0" fill="#ffc200"/><path d="m439.847656 289.292969c0 84.117187-68.1875 152.304687-152.304687 152.304687-84.117188 0-152.304688-68.1875-152.304688-152.304687 0-84.117188 68.1875-152.304688 152.304688-152.304688 84.117187 0 152.304687 68.1875 152.304687 152.304688zm0 0" fill="#4a98f7"/><path d="m287.542969 136.984375c-.085938 0-.171875.003906-.257813.003906v304.605469c.085938 0 .171875.003906.257813.003906 84.117187 0 152.304687-68.191406 152.304687-152.304687 0-84.117188-68.1875-152.308594-152.304687-152.308594zm0 0" fill="#27488f"/><path d="m60.152344 289.292969c0-125.585938 101.804687-227.390625 227.390625-227.390625v227.390625zm0 0" fill="#ff432e"/><path d="m416.527344 208.277344c-26.957032-42.828125-74.644532-71.292969-128.984375-71.292969-.089844 0-.175781.003906-.261719.003906v146.28125l.261719 6.023438zm0 0" fill="#87c7ff"/></svg>