<svg height="512pt" viewBox="0 0 512 512" width="512pt" xmlns="http://www.w3.org/2000/svg"><path d="m512 256c0 141.386719-114.613281 256-256 256s-256-114.613281-256-256 114.613281-256 256-256 256 114.613281 256 256zm0 0" fill="#abddff"/><path d="m512 256c0-21.074219-2.566406-41.546875-7.367188-61.140625l-66.214843-66.214844-364.835938 206.988281 49.378907 49.378907-11.242188 9.59375 115.808594 115.808593c9.351562 1.035157 18.847656 1.585938 28.472656 1.585938 141.386719 0 256-114.613281 256-256zm0 0" fill="#78b0f0"/><path d="m73.582031 128.644531h364.835938v206.992188h-364.835938zm0 0" fill="#fff"/><path d="m255.808594 128.644531h182.609375v206.992188h-182.609375zm0 0" fill="#e9edf5"/><g fill="#12254c"><path d="m291.886719 329.113281c0 19.820313-16.066407 35.886719-35.886719 35.886719s-35.886719-16.066406-35.886719-35.886719c0-19.820312 16.066407-35.886719 35.886719-35.886719s35.886719 16.066407 35.886719 35.886719zm0 0"/><path d="m256 293.226562c-.0625 0-.128906.003907-.191406.003907v71.765625c.066406 0 .128906.003906.191406.003906 19.820312 0 35.886719-16.066406 35.886719-35.886719 0-19.820312-16.066407-35.886719-35.886719-35.886719zm0 0"/><path d="m256 435c24.4375 0 46.179688-11.523438 60.101562-29.433594-10.890624-22.195312-33.707031-37.480468-60.101562-37.480468s-49.210938 15.285156-60.101562 37.480468c13.921874 17.910156 35.664062 29.433594 60.101562 29.433594zm0 0"/><path d="m256 368.085938c-.0625 0-.128906.003906-.191406.003906v66.90625c.066406 0 .128906.003906.191406.003906 24.4375 0 46.179688-11.523438 60.101562-29.433594-10.890624-22.195312-33.707031-37.480468-60.101562-37.480468zm0 0"/></g><path d="m180.390625 327.722656c0 15.511719-12.574219 28.085938-28.085937 28.085938-15.511719 0-28.085938-12.574219-28.085938-28.085938 0-15.511718 12.574219-28.085937 28.085938-28.085937 15.511718 0 28.085937 12.574219 28.085937 28.085937zm0 0" fill="#2864f0"/><path d="m152.304688 410.589844c19.125 0 36.140624-9.019532 47.035156-23.03125-8.523438-17.375-26.378906-29.335938-47.035156-29.335938s-38.515626 11.960938-47.039063 29.335938c10.894531 14.011718 27.914063 23.03125 47.039063 23.03125zm0 0" fill="#2864f0"/><path d="m387.78125 327.722656c0 15.511719-12.574219 28.085938-28.085938 28.085938-15.511718 0-28.085937-12.574219-28.085937-28.085938 0-15.511718 12.574219-28.085937 28.085937-28.085937 15.511719 0 28.085938 12.574219 28.085938 28.085937zm0 0" fill="#27488f"/><path d="m359.695312 410.589844c19.125 0 36.144532-9.019532 47.039063-23.03125-8.523437-17.375-26.382813-29.335938-47.039063-29.335938s-38.511718 11.960938-47.035156 29.335938c10.894532 14.011718 27.910156 23.03125 47.035156 23.03125zm0 0" fill="#27488f"/><path d="m378.9375 148.53125-100.519531-.023438-.007813 25.957032 55.503906.011718-85.445312 75.484376-60.3125-39.777344-75.242188 44.84375-3.332031 35.113281 79.875-48.007813 61.371094 40.480469 102.144531-90.320312-.015625 56.753906 25.953125.007813zm0 0" fill="#27488f"/><path d="m278.417969 148.507812-.007813 25.953126 55.503906.015624-78.105468 69v34.734376l97.164062-85.917969-.015625 56.753906 25.953125.007813.027344-100.523438zm0 0" fill="#12254c"/></svg>