<svg height="512pt" viewBox="0 0 512 512" width="512pt" xmlns="http://www.w3.org/2000/svg"><path d="m512 256c0 141.386719-114.613281 256-256 256s-256-114.613281-256-256 114.613281-256 256-256 256 114.613281 256 256zm0 0" fill="#ffe000"/><path d="m512 256c0-8.277344-.40625-16.457031-1.175781-24.53125l-75.824219-75.824219-189.734375 41.613281-76.777344-76.78125-52.550781 48.867188 44.664062 44.664062-67.664062 18.601563 129.941406 129.742187h-24.449218l-38.917969-38.917968-35.210938 25.859375 23.691407 23.691406-44.378907 8.222656 129.789063 129.789063c7.449218.652344 14.980468 1.003906 22.597656 1.003906 141.386719 0 256-114.613281 256-256zm0 0" fill="#ffc200"/><path d="m177.316406 144.113281c0 19.820313-16.066406 35.886719-35.886718 35.886719-19.820313 0-35.886719-16.066406-35.886719-35.886719 0-19.820312 16.066406-35.886719 35.886719-35.886719 19.820312 0 35.886718 16.066407 35.886718 35.886719zm0 0" fill="#27488f"/><path d="m141.429688 250c24.4375 0 46.179687-11.523438 60.101562-29.433594-10.890625-22.195312-33.707031-37.480468-60.101562-37.480468-26.394532 0-49.207032 15.285156-60.101563 37.480468 13.921875 17.910156 35.664063 29.433594 60.101563 29.433594zm0 0" fill="#27488f"/><path d="m141.429688 108.226562c19.820312 0 35.886718 16.066407 35.886718 35.886719 0 19.820313-16.066406 35.886719-35.886718 35.886719zm0 0" fill="#12254c"/><path d="m141.429688 250c24.4375 0 46.179687-11.523438 60.101562-29.433594-10.890625-22.195312-33.707031-37.480468-60.101562-37.480468zm0 0" fill="#12254c"/><path d="m211.960938 155.644531h223.039062v50.996094h-223.039062zm0 0" fill="#fe6a16"/><path d="m297.132812 254.128906c0 12.144532-9.84375 21.988282-21.988281 21.988282s-21.988281-9.84375-21.988281-21.988282c0-12.144531 9.84375-21.988281 21.988281-21.988281s21.988281 9.84375 21.988281 21.988281zm0 0" fill="#27488f"/><path d="m275.144531 319.003906c14.972657 0 28.296875-7.0625 36.824219-18.03125-6.671875-13.601562-20.652344-22.96875-36.824219-22.96875s-30.152343 9.367188-36.824219 22.96875c8.53125 10.972656 21.851563 18.03125 36.824219 18.03125zm0 0" fill="#27488f"/><path d="m275.144531 232.140625c12.144531 0 21.988281 9.84375 21.988281 21.988281 0 12.144532-9.84375 21.988282-21.988281 21.988282zm0 0" fill="#12254c"/><path d="m275.144531 319.003906c14.972657 0 28.296875-7.0625 36.824219-18.03125-6.671875-13.601562-20.652344-22.96875-36.824219-22.96875zm0 0" fill="#12254c"/><path d="m318.359375 261.191406h136.65625v31.246094h-136.65625zm0 0" fill="#fe6a16"/><path d="m162.425781 334.363281c0 12.144531-9.84375 21.988281-21.988281 21.988281s-21.988281-9.84375-21.988281-21.988281 9.84375-21.988281 21.988281-21.988281 21.988281 9.84375 21.988281 21.988281zm0 0" fill="#27488f"/><path d="m140.4375 399.242188c14.972656 0 28.296875-7.0625 36.824219-18.035157-6.671875-13.597656-20.652344-22.964843-36.824219-22.964843s-30.152344 9.367187-36.824219 22.964843c8.53125 10.972657 21.851563 18.035157 36.824219 18.035157zm0 0" fill="#27488f"/><path d="m140.4375 312.375c12.144531 0 21.988281 9.84375 21.988281 21.988281s-9.84375 21.988281-21.988281 21.988281zm0 0" fill="#12254c"/><path d="m140.4375 399.242188c14.972656 0 28.296875-7.0625 36.824219-18.035157-6.671875-13.597656-20.652344-22.964843-36.824219-22.964843zm0 0" fill="#12254c"/><path d="m183.652344 341.429688h136.65625v31.246093h-136.65625zm0 0" fill="#fe6a16"/><g fill="#ff432e"><path d="m323.5 155.644531h111.5v50.996094h-111.5zm0 0"/><path d="m386.5 261.191406h68.515625v31.246094h-68.515625zm0 0"/><path d="m251.5 341.429688h68.808594v31.246093h-68.808594zm0 0"/></g></svg>