<svg height="512pt" viewBox="0 0 512 512" width="512pt" xmlns="http://www.w3.org/2000/svg"><path d="m512 256c0 141.386719-114.613281 256-256 256s-256-114.613281-256-256 114.613281-256 256-256 256 114.613281 256 256zm0 0" fill="#27488f"/><path d="m511.859375 264.117188-119.054687-119.054688-23.054688 14.355469-113.75-113.75-68.589844 246.132812-33.664062-33.664062-59.066406 41.617187 23.652343 23.652344-51.964843 36.226562 149.171874 149.171876c13.179688 2.09375 26.691407 3.195312 40.460938 3.195312 138.667969 0 251.570312-110.257812 255.859375-247.882812zm0 0" fill="#12254c"/><path d="m256 45.667969 40.914062 87.53125 95.890626 11.863281-70.605469 65.960938 18.351562 94.863281-84.550781-46.769531-84.550781 46.769531 18.351562-94.863281-70.605469-65.960938 95.890626-11.863281zm0 0" fill="#ffe000"/><path d="m255.808594 259.222656.191406-.105468 84.550781 46.769531-18.351562-94.867188 70.605469-65.957031-95.890626-11.863281-40.914062-87.53125zm0 0" fill="#ffc200"/><path d="m308.71875 189.71875c0 29.117188-23.601562 52.71875-52.71875 52.71875s-52.71875-23.601562-52.71875-52.71875 23.601562-52.71875 52.71875-52.71875 52.71875 23.601562 52.71875 52.71875zm0 0" fill="#ff432e"/><path d="m256 137c-.0625 0-.128906.003906-.191406.003906v105.429688c.066406 0 .128906.003906.191406.003906 29.117188 0 52.71875-23.601562 52.71875-52.71875s-23.601562-52.71875-52.71875-52.71875zm0 0" fill="#db0404"/><path d="m256 345.269531c35.898438 0 67.839844-16.929687 88.289062-43.238281-16-32.605469-49.515624-55.0625-88.289062-55.0625s-72.289062 22.457031-88.289062 55.0625c20.449218 26.308594 52.390624 43.238281 88.289062 43.238281zm0 0" fill="#ff432e"/><path d="m256 246.96875c-.0625 0-.128906.003906-.191406.003906v98.292969c.066406 0 .128906.003906.191406.003906 35.898438 0 67.839844-16.929687 88.289062-43.238281-16-32.605469-49.515624-55.0625-88.289062-55.0625zm0 0" fill="#db0404"/><path d="m157.683594 274.617188c0 20.171874-16.351563 36.523437-36.523438 36.523437-20.167968 0-36.519531-16.351563-36.519531-36.523437 0-20.167969 16.351563-36.519532 36.519531-36.519532 20.171875 0 36.523438 16.351563 36.523438 36.519532zm0 0" fill="#fff"/><path d="m121.160156 382.375c24.871094 0 46.996094-11.726562 61.160156-29.949219-11.082031-22.589843-34.300781-38.148437-61.160156-38.148437s-50.078125 15.558594-61.160156 38.144531c14.164062 18.226563 36.292969 29.953125 61.160156 29.953125zm0 0" fill="#fff"/><g fill="#e9edf5"><path d="m427.359375 274.617188c0 20.171874-16.351563 36.523437-36.519531 36.523437-20.171875 0-36.523438-16.351563-36.523438-36.523437 0-20.167969 16.351563-36.519532 36.523438-36.519532 20.167968 0 36.519531 16.351563 36.519531 36.519532zm0 0"/><path d="m390.839844 382.375c24.867187 0 46.996094-11.726562 61.160156-29.949219-11.082031-22.589843-34.300781-38.148437-61.160156-38.148437s-50.078125 15.558594-61.160156 38.148437c14.164062 18.222657 36.289062 29.949219 61.160156 29.949219zm0 0"/></g></svg>