<svg height="512pt" viewBox="0 0 512 512" width="512pt" xmlns="http://www.w3.org/2000/svg"><path d="m512 256c0 141.386719-114.613281 256-256 256s-256-114.613281-256-256 114.613281-256 256-256 256 114.613281 256 256zm0 0" fill="#27488f"/><path d="m285.855469 510.257812c127.316406-14.789062 226.144531-122.972656 226.144531-254.257812 0-4.492188-.117188-8.957031-.347656-13.390625l-165.609375-165.609375-127.003907 117.753906-39.402343-39.40625-70.234375 63.714844 49.082031 49.082031-85.652344 29.089844zm0 0" fill="#12254c"/><path d="m282.378906 44.710938c-43.582031 0-78.910156 35.328124-78.910156 78.910156 0 16.894531 5.3125 32.546875 14.351562 45.382812l-14.351562 31.34375 44.429688-5.734375c10.417968 5.070313 22.117187 7.917969 34.480468 7.917969 43.582032 0 78.910156-35.332031 78.910156-78.910156 0-43.582032-35.328124-78.910156-78.910156-78.910156zm0 0" fill="#fff"/><path d="m282.378906 44.710938c-9.324218 0-18.265625 1.628906-26.570312 4.597656v148.632812c8.304687 2.96875 17.246094 4.589844 26.570312 4.589844 43.582032 0 78.910156-35.332031 78.910156-78.910156 0-43.582032-35.328124-78.910156-78.910156-78.910156zm0 0" fill="#e9edf5"/><path d="m192.984375 188.324219c0 26.207031-21.242187 47.449219-47.449219 47.449219-26.207031 0-47.449218-21.242188-47.449218-47.449219s21.242187-47.449219 47.449218-47.449219c26.207032 0 47.449219 21.242188 47.449219 47.449219zm0 0" fill="#ff432e"/><path d="m145.535156 328.328125c32.3125 0 61.058594-15.238281 79.464844-38.917969-14.398438-29.347656-44.566406-49.558594-79.464844-49.558594-34.898437 0-65.066406 20.210938-79.464844 49.558594 18.40625 23.679688 47.152344 38.917969 79.464844 38.917969zm0 0" fill="#ff432e"/><path d="m235.78125 244.953125c33.859375 0 61.3125 27.449219 61.3125 61.3125 0 13.125-4.128906 25.289063-11.152344 35.261719l11.152344 24.355468-34.523438-4.457031c-8.09375 3.9375-17.183593 6.152344-26.789062 6.152344-33.863281 0-61.3125-27.449219-61.3125-61.3125s27.449219-61.3125 61.3125-61.3125zm0 0" fill="#ffe000"/><path d="m297.09375 306.265625c0-26.84375-17.261719-49.644531-41.285156-57.949219v115.902344c2.320312-.804688 4.582031-1.730469 6.761718-2.789062l34.523438 4.453124-11.152344-24.355468c7.023438-9.972656 11.152344-22.132813 11.152344-35.261719zm0 0" fill="#ffc200"/><g fill="#db0404"><path d="m362.847656 336.058594c0 16.453125-13.339844 29.789062-29.792968 29.789062-16.453126 0-29.789063-13.335937-29.789063-29.789062s13.335937-29.792969 29.789063-29.792969c16.453124 0 29.792968 13.339844 29.792968 29.792969zm0 0"/><path d="m333.054688 423.957031c-20.285157 0-38.335938-9.566406-49.890626-24.433593 9.042969-18.425782 27.980469-31.117188 49.890626-31.117188 21.910156 0 40.851562 12.691406 49.890624 31.117188-11.554687 14.867187-29.601562 24.433593-49.890624 24.433593zm0 0"/></g></svg>