<svg height="512pt" viewBox="0 0 512 512" width="512pt" xmlns="http://www.w3.org/2000/svg"><path d="m512 256c0 141.386719-114.613281 256-256 256s-256-114.613281-256-256 114.613281-256 256-256 256 114.613281 256 256zm0 0" fill="#ff432e"/><path d="m509.324219 293.027344-253.324219-253.328125-83.523438 105.300781 101.761719 101.761719-141.644531 20.417969-44.300781 105.71875 137.292969 137.292968c9.976562 1.183594 20.121093 1.808594 30.414062 1.808594 55.285156 0 106.476562-17.527344 148.324219-47.324219l5.722656-5.722656.859375.855469c52.140625-39.6875 88.585938-98.921875 98.417969-166.78125zm0 0" fill="#db0404"/><path d="m295.503906 250.96875v-105.96875h44.019532l-83.523438-105.300781-83.523438 105.300781h45.125v105.96875h-98.769531v80.363281h19v-61.363281h108.667969v40.363281h19v-40.363281h105.433594v61.363281h19v-80.363281zm0 0" fill="#fff"/><path d="m295.503906 250.96875v-105.96875h44.019532l-83.523438-105.300781-.191406 270.632812h9.691406v-40.363281h105.433594v61.363281h19v-80.363281zm0 0" fill="#e9edf5"/><path d="m179.332031 341.332031c0 28.167969-22.832031 51-51 51-28.164062 0-51-22.832031-51-51 0-28.164062 22.835938-51 51-51 28.167969 0 51 22.835938 51 51zm0 0" fill="#ffe000"/><path d="m431.433594 341.332031c0 28.167969-22.835938 51-51 51-28.167969 0-51-22.832031-51-51 0-28.164062 22.832031-51 51-51 28.164062 0 51 22.835938 51 51zm0 0" fill="#ffc200"/><path d="m307 341.332031c0 28.167969-22.832031 51-51 51s-51-22.832031-51-51c0-28.164062 22.832031-51 51-51s51 22.835938 51 51zm0 0" fill="#ffe000"/><path d="m256 290.332031c-.0625 0-.128906.003907-.191406.007813v101.988281c.066406 0 .128906.003906.191406.003906 28.167969 0 51-22.832031 51-51s-22.832031-51-51-51zm0 0" fill="#ffc200"/></svg>