<svg height="512pt" viewBox="0 0 512 512" width="512pt" xmlns="http://www.w3.org/2000/svg"><path d="m512 256c0 141.386719-114.613281 256-256 256s-256-114.613281-256-256 114.613281-256 256-256 256 114.613281 256 256zm0 0" fill="#ffe000"/><path d="m512 256c0-3.328125-.085938-6.632812-.210938-9.929688l-178.175781-178.175781-249.5 194.105469 66.945313 66.945312-19.878906 17.277344 29.40625 29.40625-47.96875 19.796875 115 115c9.320312 1.027344 18.789062 1.574219 28.382812 1.574219 141.386719 0 256-114.613281 256-256zm0 0" fill="#ffc200"/><g fill="#12254c"><path d="m291.886719 329.113281c0 19.820313-16.066407 35.886719-35.886719 35.886719s-35.886719-16.066406-35.886719-35.886719c0-19.820312 16.066407-35.886719 35.886719-35.886719s35.886719 16.066407 35.886719 35.886719zm0 0"/><path d="m256 293.226562c-.0625 0-.128906.003907-.191406.003907v71.765625c.066406 0 .128906.003906.191406.003906 19.820312 0 35.886719-16.066406 35.886719-35.886719 0-19.820312-16.066407-35.886719-35.886719-35.886719zm0 0"/><path d="m256 435c24.4375 0 46.179688-11.523438 60.101562-29.433594-10.890624-22.195312-33.707031-37.480468-60.101562-37.480468s-49.210938 15.285156-60.101562 37.480468c13.921874 17.910156 35.664062 29.433594 60.101562 29.433594zm0 0"/><path d="m256 368.085938c-.0625 0-.128906.003906-.191406.003906v66.90625c.066406 0 .128906.003906.191406.003906 24.4375 0 46.179688-11.523438 60.101562-29.433594-10.890624-22.195312-33.707031-37.480468-60.101562-37.480468zm0 0"/></g><path d="m180.390625 327.722656c0 15.511719-12.574219 28.085938-28.085937 28.085938-15.511719 0-28.085938-12.574219-28.085938-28.085938 0-15.511718 12.574219-28.085937 28.085938-28.085937 15.511718 0 28.085937 12.574219 28.085937 28.085937zm0 0" fill="#2864f0"/><path d="m152.304688 410.589844c19.125 0 36.140624-9.019532 47.035156-23.03125-8.523438-17.375-26.378906-29.335938-47.035156-29.335938s-38.515626 11.960938-47.039063 29.335938c10.894531 14.011718 27.914063 23.03125 47.039063 23.03125zm0 0" fill="#2864f0"/><path d="m387.78125 327.722656c0 15.511719-12.574219 28.085938-28.085938 28.085938-15.511718 0-28.085937-12.574219-28.085937-28.085938 0-15.511718 12.574219-28.085937 28.085937-28.085937 15.511719 0 28.085938 12.574219 28.085938 28.085937zm0 0" fill="#27488f"/><path d="m359.695312 410.589844c19.125 0 36.144532-9.019532 47.039063-23.03125-8.523437-17.375-26.382813-29.335938-47.039063-29.335938s-38.511718 11.960938-47.035156 29.335938c10.894532 14.011718 27.910156 23.03125 47.035156 23.03125zm0 0" fill="#27488f"/><path d="m368.492188 136.652344c-42.382813 0-76.742188 34.363281-76.742188 76.746094 0 16.429687 5.164062 31.652343 13.960938 44.136718l-13.960938 30.484375 43.210938-5.574219c10.132812 4.929688 21.507812 7.695313 33.53125 7.695313 42.386718 0 76.746093-34.359375 76.746093-76.742187 0-42.386719-34.359375-76.746094-76.746093-76.746094zm0 0" fill="#e9edf5"/><path d="m143.507812 136.652344c42.382813 0 76.742188 34.363281 76.742188 76.746094 0 16.429687-5.164062 31.652343-13.960938 44.136718l13.960938 30.484375-43.210938-5.574219c-10.132812 4.929688-21.507812 7.699219-33.53125 7.699219-42.386718 0-76.746093-34.359375-76.746093-76.746093 0-42.386719 34.359375-76.746094 76.746093-76.746094zm0 0" fill="#fff"/><path d="m359.695312 136.652344c0-57.269532-46.425781-103.695313-103.695312-103.695313s-103.695312 46.425781-103.695312 103.695313c0 49.242187 34.316406 90.464844 80.34375 101.058594l23.351562 38.289062 23.351562-38.289062c46.027344-10.59375 80.34375-51.816407 80.34375-101.058594zm0 0" fill="#ff432e"/><path d="m256 276 23.351562-38.289062c46.027344-10.59375 80.34375-51.816407 80.34375-101.058594 0-57.269532-46.425781-103.695313-103.695312-103.695313-.0625 0-.128906 0-.191406 0zm0 0" fill="#db0404"/><path d="m278.957031 163.375 30.898438-86.632812-59.972657 52.445312-16.839843-19.257812-30.898438 86.632812 59.972657-52.441406zm0 0" fill="#fff"/><path d="m255.808594 124.003906v25.632813l6.308594-5.515625 16.839843 19.253906 30.898438-86.632812zm0 0" fill="#e9edf5"/></svg>