<svg height="512pt" viewBox="0 0 512 512" width="512pt" xmlns="http://www.w3.org/2000/svg"><path d="m512 256c0 141.386719-114.613281 256-256 256s-256-114.613281-256-256 114.613281-256 256-256 256 114.613281 256 256zm0 0" fill="#27488f"/><path d="m512 256c0-12.371094-.894531-24.527344-2.59375-36.429688l-131.851562-131.855468-31.171876 31.808594 19.0625 19.0625-36.433593 17.332031 38.769531 38.769531-3.792969 41.5-93.101562-93.101562-31.203125 31.714843 20.152344 20.152344-33.289063 20.085937 38.984375 38.984376-1.457031 30.195312-96.148438-96.152344-35.433593 26.972656 26.300781 26.300782-39.070313 14.660156 56.113282 56.113281-65.070313 86.804688 110.765625 110.765625c11.273438 1.515625 22.777344 2.316406 34.46875 2.316406 141.386719 0 256-114.613281 256-256zm0 0" fill="#12254c"/><path d="m216.695312 234.804688h78.488282v164.113281h-78.488282zm0 0" fill="#ff432e"/><path d="m255.808594 234.804688h39.375v164.113281h-39.375zm0 0" fill="#db0404"/><path d="m322.75 181.367188h78.484375v217.550781h-78.484375zm0 0" fill="#ff432e"/><path d="m361.761719 181.367188h39.472656v217.550781h-39.472656zm0 0" fill="#db0404"/><path d="m110.765625 277.589844h78.484375v121.328125h-78.484375zm0 0" fill="#ff432e"/><path d="m149.855469 277.589844h39.394531v121.328125h-39.394531zm0 0" fill="#db0404"/><path d="m172.277344 201.289062c0 12.300782-9.96875 22.273438-22.269532 22.273438-12.300781 0-22.273437-9.972656-22.273437-22.273438 0-12.300781 9.972656-22.269531 22.273437-22.269531 12.300782 0 22.269532 9.96875 22.269532 22.269531zm0 0" fill="#ffe000"/><path d="m150.007812 179.019531c-.050781 0-.101562.003907-.152343.003907v44.53125c.050781 0 .101562.003906.152343.003906 12.300782 0 22.269532-9.96875 22.269532-22.269532 0-12.300781-9.96875-22.269531-22.269532-22.269531zm0 0" fill="#ffc200"/><path d="m150.007812 267c15.164063 0 28.65625-7.152344 37.296876-18.265625-6.757813-13.773437-20.917969-23.261719-37.296876-23.261719-16.378906 0-30.539062 9.488282-37.296874 23.261719 8.636718 11.113281 22.132812 18.265625 37.296874 18.265625zm0 0" fill="#ffe000"/><path d="m150.007812 225.476562c-.050781 0-.101562.003907-.152343.003907v41.515625c.050781 0 .101562.003906.152343.003906 15.164063 0 28.65625-7.152344 37.296876-18.265625-6.757813-13.773437-20.917969-23.257813-37.296876-23.257813zm0 0" fill="#ffc200"/><path d="m278.269531 159.648438c0 12.296874-9.96875 22.269531-22.269531 22.269531s-22.269531-9.972657-22.269531-22.269531c0-12.300782 9.96875-22.273438 22.269531-22.273438s22.269531 9.972656 22.269531 22.273438zm0 0" fill="#ffe000"/><path d="m256 137.375c-.0625 0-.128906.003906-.191406.007812v44.53125c.066406 0 .128906.003907.191406.003907 12.300781 0 22.269531-9.972657 22.269531-22.269531 0-12.300782-9.96875-22.273438-22.269531-22.273438zm0 0" fill="#ffc200"/><path d="m256 225.355469c15.164062 0 28.660156-7.152344 37.296875-18.261719-6.757813-13.777344-20.917969-23.261719-37.296875-23.261719s-30.539062 9.484375-37.296875 23.261719c8.636719 11.113281 22.132813 18.261719 37.296875 18.261719zm0 0" fill="#ffe000"/><path d="m256 183.832031c-.0625 0-.125.007813-.191406.007813v41.511718c.066406 0 .128906.003907.191406.003907 15.164062 0 28.660156-7.148438 37.296875-18.261719-6.757813-13.777344-20.917969-23.261719-37.296875-23.261719zm0 0" fill="#ffc200"/><path d="m384.265625 103.640625c0 12.300781-9.972656 22.269531-22.273437 22.269531-12.300782 0-22.269532-9.96875-22.269532-22.269531s9.96875-22.269531 22.269532-22.269531c12.300781 0 22.273437 9.96875 22.273437 22.269531zm0 0" fill="#fff"/><path d="m361.992188 81.371094c-.078126 0-.152344.003906-.230469.003906v44.53125c.078125 0 .152343.003906.230469.003906 12.300781 0 22.273437-9.96875 22.273437-22.269531s-9.972656-22.269531-22.273437-22.269531zm0 0" fill="#e9edf5"/><path d="m361.992188 169.351562c15.164062 0 28.660156-7.152343 37.296874-18.265624-6.757812-13.773438-20.917968-23.261719-37.296874-23.261719-16.378907 0-30.539063 9.488281-37.296876 23.261719 8.640626 11.113281 22.132813 18.265624 37.296876 18.265624zm0 0" fill="#fff"/><path d="m361.992188 127.824219c-.078126 0-.152344.011719-.230469.011719v41.507812c.078125 0 .152343.007812.230469.007812 15.164062 0 28.660156-7.152343 37.296874-18.265624-6.757812-13.773438-20.917968-23.261719-37.296874-23.261719zm0 0" fill="#e9edf5"/></svg>