<svg height="512pt" viewBox="0 0 512 512" width="512pt" xmlns="http://www.w3.org/2000/svg"><path d="m512 256c0 141.386719-114.613281 256-256 256s-256-114.613281-256-256 114.613281-256 256-256 256 114.613281 256 256zm0 0" fill="#abddff"/><path d="m512 256c0-8.925781-.460938-17.742188-1.351562-26.433594l-125.925782-125.925781-259.542968 295.277344 112.421874 112.417969c6.078126.433593 12.210938.664062 18.398438.664062 141.386719 0 256-114.613281 256-256zm0 0" fill="#78b0f0"/><path d="m152.101562 103.640625h232.621094v295.277344h-232.621094zm0 0" fill="#0053bf"/><path d="m152.101562 255.90625h232.621094v143.011719h-232.621094zm0 0" fill="#27488f"/><path d="m125.179688 103.640625h41.765624v295.277344h-41.765624zm0 0" fill="#12254c"/><path d="m125.179688 255.90625h41.765624v143.011719h-41.765624zm0 0" fill="#12254c"/><g fill="#ffe000"><path d="m353.441406 215.269531c0 47.433594-38.449218 85.882813-85.882812 85.882813-47.429688 0-85.882813-38.449219-85.882813-85.882813 0-47.429687 38.453125-85.882812 85.882813-85.882812 47.433594 0 85.882812 38.453125 85.882812 85.882812zm0 0"/><path d="m353.441406 215.269531c0-47.394531-38.390625-85.820312-85.777344-85.878906v171.757813c47.386719-.054688 85.777344-38.484376 85.777344-85.878907zm0 0"/><path d="m267.558594 129.386719c-47.429688 0-85.882813 38.453125-85.882813 85.882812 0 47.433594 38.453125 85.882813 85.882813 85.882813.035156 0 .070312-.003906.105468-.003906v-171.757813c-.03125 0-.070312-.003906-.105468-.003906zm0 0"/></g><path d="m280.476562 254.738281v-8.605469h-25.832031v8.605469c0 3.898438-2.441406 7.378907-6.105469 8.714844l-39.71875 14.464844c15.359376 14.40625 36.019532 23.234375 58.738282 23.234375 22.722656 0 43.378906-8.828125 58.738281-23.234375l-39.71875-14.464844c-3.664063-1.335937-6.101563-4.816406-6.101563-8.714844zm0 0" fill="#faa68e"/><path d="m286.578125 263.453125c-3.664063-1.335937-6.101563-4.816406-6.101563-8.714844v-8.605469h-12.8125v55.015626c22.679688-.027344 43.296876-8.84375 58.632813-23.230469zm0 0" fill="#e09380"/><path d="m286.578125 263.453125c-1.78125-.648437-3.269531-1.808594-4.332031-3.273437l-14.6875 10.890624-14.6875-10.890624c-1.0625 1.464843-2.550782 2.625-4.332032 3.273437l-39.71875 14.464844c15.359376 14.40625 36.019532 23.234375 58.738282 23.234375 22.722656 0 43.378906-8.828125 58.738281-23.234375zm0 0" fill="#dbeeff"/><path d="m267.558594 271.070312-14.6875-10.890624c-1.0625 1.464843-2.550782 2.625-4.332032 3.273437l-39.71875 14.464844c15.359376 14.40625 36.019532 23.234375 58.738282 23.234375.035156 0 .070312 0 .105468-.003906v-30.15625zm0 0" fill="#dbeeff"/><path d="m286.578125 263.453125c-1.78125-.648437-3.269531-1.808594-4.332031-3.273437l-14.578125 10.8125v30.15625c22.675781-.027344 43.292969-8.84375 58.628906-23.230469zm0 0" fill="#bfe1ff"/><path d="m267.558594 271.070312-12.1875 13.421876-10.152344-21.25 5.453125-4.695313zm0 0" fill="#fff"/><path d="m267.558594 271.070312 12.1875 13.421876 10.152344-21.25-5.453126-4.695313zm0 0" fill="#e9edf5"/><path d="m319.710938 200.601562c0-28.871093-23.347657-52.277343-52.152344-52.277343-28.800782 0-52.152344 23.40625-52.152344 52.277343v42.914063h104.304688zm0 0" fill="#fe6a16"/><path d="m319.710938 200.601562c0-28.835937-23.289063-52.21875-52.042969-52.277343v95.195312h52.042969zm0 0" fill="#ff432e"/><path d="m247.007812 213.226562c0 6.125-4.96875 11.09375-11.097656 11.09375-6.125 0-11.09375-4.96875-11.09375-11.09375 0-6.128906 4.96875-11.097656 11.09375-11.097656 6.128906 0 11.097656 4.96875 11.097656 11.097656zm0 0" fill="#ffbeaa"/><path d="m310.300781 213.226562c0 6.125-4.96875 11.09375-11.09375 11.09375-6.128906 0-11.097656-4.96875-11.097656-11.09375 0-6.128906 4.96875-11.097656 11.097656-11.097656 6.125 0 11.09375 4.96875 11.09375 11.097656zm0 0" fill="#faa68e"/><path d="m282.332031 251.40625-7.410156 3.804688c-4.621094 2.375-10.105469 2.375-14.726563 0l-7.410156-3.804688c-10.976562-5.640625-17.878906-16.945312-17.878906-29.289062v-28.878907c0-18.03125 14.617188-32.652343 32.652344-32.652343s32.652344 14.621093 32.652344 32.652343v28.878907c.003906 12.34375-6.902344 23.648437-17.878907 29.289062zm0 0" fill="#ffcdbe"/><path d="m267.667969 160.589844v96.394531c2.488281-.015625 4.976562-.601563 7.253906-1.773437l7.410156-3.804688c10.980469-5.640625 17.882813-16.945312 17.882813-29.289062v-28.878907c0-17.996093-14.5625-32.589843-32.546875-32.648437zm0 0" fill="#ffbeaa"/><path d="m292.867188 208.789062h-49.941407c-5.480469 0-9.921875-4.441406-9.921875-9.917968v-19.355469c0-12.554687 10.179688-22.730469 22.730469-22.730469h24.320313c12.554687 0 22.730468 10.179688 22.730468 22.730469v19.355469c0 5.476562-4.441406 9.917968-9.917968 9.917968zm0 0" fill="#fe6a16"/><path d="m280.054688 156.785156h-12.390626v52.003906h25.199219c5.480469 0 9.921875-4.441406 9.921875-9.917968v-19.355469c0-12.554687-10.175781-22.730469-22.730468-22.730469zm0 0" fill="#ff432e"/><path d="m264.960938 301.109375c.863281.027344 1.726562.042969 2.597656.042969s1.738281-.015625 2.601562-.042969v-30.03125h-5.199218zm0 0" fill="#fff"/><path d="m270.160156 271.078125h-2.496094v30.074219c.835938 0 1.664063-.015625 2.496094-.042969zm0 0" fill="#e9edf5"/><path d="m125.179688 340.601562h41.765624v21h-41.765624zm0 0" fill="#707789"/><path d="m125.179688 137.824219h41.765624v20.996093h-41.765624zm0 0" fill="#7e8596"/><path d="m125.179688 322.601562h41.765624v10.5h-41.765624zm0 0" fill="#707789"/></svg>