<svg height="512pt" viewBox="0 0 512 512" width="512pt" xmlns="http://www.w3.org/2000/svg"><path d="m512 256c0 141.386719-114.613281 256-256 256s-256-114.613281-256-256 114.613281-256 256-256 256 114.613281 256 256zm0 0" fill="#abddff"/><path d="m512 256c0-1.421875-.03125-2.835938-.054688-4.253906l-176.867187-176.863282-211.609375 73.546876-38.492188 117.59375 51.882813 119.6875 125.558594 126.207031c138.417969-3.40625 249.582031-116.679688 249.582031-255.917969zm0 0" fill="#78b0f0"/><path d="m256 432.203125c-97.160156 0-176.203125-79.042969-176.203125-176.203125s79.042969-176.203125 176.203125-176.203125 176.203125 79.042969 176.203125 176.203125-79.042969 176.203125-176.203125 176.203125zm0-333.40625c-86.683594 0-157.203125 70.519531-157.203125 157.203125s70.519531 157.203125 157.203125 157.203125 157.203125-70.519531 157.203125-157.203125-70.519531-157.203125-157.203125-157.203125zm0 0" fill="#fff"/><path d="m256 79.796875c-.0625 0-.128906 0-.191406 0v19h.191406c86.683594 0 157.203125 70.519531 157.203125 157.203125s-70.519531 157.203125-157.203125 157.203125c-.0625 0-.128906 0-.191406 0v19h.191406c97.160156 0 176.203125-79.042969 176.203125-176.203125s-79.042969-176.203125-176.203125-176.203125zm0 0" fill="#e9edf5"/><path d="m364 148.429688c0 59.644531-48.351562 108-108 108s-108-48.355469-108-108c0-59.648438 48.351562-108 108-108s108 48.351562 108 108zm0 0" fill="#fff"/><path d="m256 40.429688c-.0625 0-.128906 0-.191406 0v215.996093h.191406c59.648438 0 108-48.351562 108-108 0-59.644531-48.351562-107.996093-108-107.996093zm0 0" fill="#e9edf5"/><path d="m272.242188 198.058594v-10.820313h-32.484376v10.820313c0 4.902344-3.066406 9.28125-7.671874 10.960937l-49.949219 18.191407c19.316406 18.117187 45.292969 29.214843 73.863281 29.214843s54.546875-11.097656 73.863281-29.214843l-49.949219-18.191407c-4.605468-1.679687-7.671874-6.058593-7.671874-10.960937zm0 0" fill="#faa68e"/><path d="m329.863281 227.210938-49.949219-18.191407c-4.605468-1.679687-7.671874-6.058593-7.671874-10.960937v-10.820313h-16.433594v69.1875h.191406c28.570312.003907 54.546875-11.097656 73.863281-29.214843zm0 0" fill="#e09380"/><path d="m227.90625 141.636719c0 7.707031-6.246094 13.953125-13.949219 13.953125-7.707031 0-13.953125-6.246094-13.953125-13.953125s6.246094-13.953125 13.953125-13.953125c7.703125 0 13.949219 6.246094 13.949219 13.953125zm0 0" fill="#ffbeaa"/><path d="m311.996094 141.636719c0 7.707031-6.246094 13.953125-13.953125 13.953125-7.703125 0-13.949219-6.246094-13.949219-13.953125s6.246094-13.953125 13.949219-13.953125c7.707031 0 13.953125 6.246094 13.953125 13.953125zm0 0" fill="#faa68e"/><path d="m274.574219 193.871094-9.316407 4.785156c-5.8125 2.984375-12.707031 2.984375-18.519531 0l-9.316406-4.785156c-13.804687-7.09375-22.484375-21.3125-22.484375-36.832032v-36.3125c0-22.679687 18.382812-41.0625 41.0625-41.0625 22.675781 0 41.0625 18.382813 41.0625 41.0625v36.3125c0 15.519532-8.679688 29.738282-22.488281 36.832032zm0 0" fill="#ffbeaa"/><path d="m256 79.660156c-.0625 0-.128906.003906-.191406.007813v121.222656c3.242187.027344 6.488281-.710937 9.453125-2.234375l9.316406-4.789062c13.804687-7.089844 22.484375-21.308594 22.484375-36.832032v-36.3125c0-22.675781-18.382812-41.0625-41.0625-41.0625zm0 0" fill="#faa68e"/><path d="m280.578125 74.882812h-4.257813c-1.722656 0-3.226562.925782-4.046874 2.304688-.699219-1.367188-2.117188-2.304688-3.757813-2.304688h-29.601563c-19.921874 0-36.070312 16.148438-36.070312 36.066407 0 7.03125 3.007812 13.355469 7.804688 17.761719v28.785156h8.4375v-23.75c2.46875.851562 5.117187 1.320312 7.875 1.320312h21.65625c10.945312 0 20.183593-7.292968 23.128906-17.289062 1.140625 9.734375 9.410156 17.289062 19.449218 17.289062.578126 0 1.152344-.03125 1.71875-.078125v22.507813h8.4375v-25.265625c5.652344-3.433594 9.429688-9.652344 9.429688-16.75v-10.398438c0-16.679687-13.523438-30.199219-30.203125-30.199219zm0 0" fill="#ff432e"/><path d="m280.578125 74.882812h-4.257813c-1.722656 0-3.226562.925782-4.046874 2.304688-.699219-1.367188-2.117188-2.304688-3.757813-2.304688h-12.707031v59.078126c7.652344-2.394532 13.667968-8.476563 15.9375-16.183594 1.140625 9.734375 9.410156 17.292968 19.449218 17.292968.582032 0 1.152344-.03125 1.71875-.082031v22.507813h8.4375v-25.265625c5.65625-3.433594 9.429688-9.648438 9.429688-16.75v-10.394531c0-16.683594-13.523438-30.203126-30.203125-30.203126zm0 0" fill="#db0404"/><path d="m279.914062 209.019531c-2.238281-.816406-4.109374-2.273437-5.445312-4.117187l-18.46875 13.699218-18.46875-13.699218c-1.335938 1.84375-3.207031 3.300781-5.445312 4.117187l-49.949219 18.191407c19.316406 18.117187 45.292969 29.214843 73.863281 29.214843s54.546875-11.097656 73.863281-29.214843zm0 0" fill="#dbeeff"/><path d="m329.863281 227.210938-49.949219-18.191407c-2.238281-.816406-4.109374-2.273437-5.445312-4.117187l-18.46875 13.699218-.191406-.144531v37.96875h.191406c28.570312.003907 54.546875-11.097656 73.863281-29.214843zm0 0" fill="#bfe1ff"/><path d="m261.0625 235.210938h-10.125l-4.21875-16.59375h18.5625zm0 0" fill="#27488f"/><path d="m265.28125 218.617188h-9.472656v16.59375h5.253906zm0 0" fill="#12254c"/><path d="m247.863281 256.125c2.6875.199219 5.398438.304688 8.136719.304688s5.449219-.105469 8.136719-.304688l-3.074219-20.914062h-10.125zm0 0" fill="#27488f"/><path d="m264.136719 256.125-3.074219-20.914062h-5.253906v21.214843c.0625 0 .128906.003907.191406.003907 2.738281 0 5.449219-.105469 8.136719-.304688zm0 0" fill="#12254c"/><path d="m256 218.601562-15.328125 16.875-12.765625-26.71875 6.859375-5.90625zm0 0" fill="#fff"/><path d="m227.90625 208.757812-46.71875 17.554688c15.703125 15.085938 35.953125 25.472656 58.496094 28.890625zm0 0" fill="#2864f0"/><path d="m256 218.601562 15.328125 16.875 12.765625-26.71875-6.859375-5.90625zm0 0" fill="#e9edf5"/><path d="m330.8125 226.3125-46.71875-17.554688-11.777344 46.445313c22.542969-3.417969 42.792969-13.804687 58.496094-28.890625zm0 0" fill="#27488f"/><path d="m239.683594 255.203125-11.777344-46.445313-15.640625 26.71875 15.640625 7.875-4.625 8.027344c5.300781 1.679688 10.78125 2.972656 16.402344 3.824219zm0 0" fill="#12254c"/><path d="m272.316406 255.203125 11.777344-46.445313 15.640625 26.71875-15.640625 7.875 4.625 8.027344c-5.300781 1.679688-10.78125 2.972656-16.402344 3.824219zm0 0" fill="#12254c"/><path d="m281.378906 326.351562c0 14.015626-11.363281 25.378907-25.378906 25.378907s-25.378906-11.363281-25.378906-25.378907c0-14.015624 11.363281-25.375 25.378906-25.375s25.378906 11.359376 25.378906 25.375zm0 0" fill="#fff"/><path d="m256 300.976562c-.0625 0-.128906.003907-.191406.003907v50.746093c.066406 0 .128906.003907.191406.003907 14.015625 0 25.375-11.363281 25.375-25.375 0-14.015625-11.359375-25.378907-25.375-25.378907zm0 0" fill="#e9edf5"/><path d="m256 401.226562c17.28125 0 32.65625-8.148437 42.496094-20.8125-7.699219-15.695312-23.832032-26.503906-42.496094-26.503906s-34.796875 10.808594-42.496094 26.503906c9.839844 12.664063 25.214844 20.8125 42.496094 20.8125zm0 0" fill="#fff"/><path d="m256 353.910156c-.0625 0-.128906.003906-.191406.003906v47.308594c.066406 0 .128906.003906.191406.003906 17.28125 0 32.65625-8.148437 42.496094-20.8125-7.699219-15.695312-23.832032-26.503906-42.496094-26.503906zm0 0" fill="#e9edf5"/><path d="m191.34375 271.195312c0 14.015626-11.359375 25.378907-25.375 25.378907s-25.378906-11.363281-25.378906-25.378907c0-14.015624 11.363281-25.375 25.378906-25.375s25.375 11.359376 25.375 25.375zm0 0" fill="#fff"/><path d="m165.96875 346.070312c17.277344 0 32.652344-8.148437 42.496094-20.8125-7.699219-15.695312-23.832032-26.503906-42.496094-26.503906s-34.796875 10.808594-42.5 26.503906c9.84375 12.664063 25.21875 20.8125 42.5 20.8125zm0 0" fill="#fff"/><g fill="#e9edf5"><path d="m371.40625 271.195312c0 14.015626-11.359375 25.378907-25.375 25.378907s-25.378906-11.363281-25.378906-25.378907c0-14.015624 11.363281-25.375 25.378906-25.375s25.375 11.359376 25.375 25.375zm0 0"/><path d="m346.03125 346.070312c17.28125 0 32.65625-8.148437 42.496094-20.8125-7.699219-15.695312-23.832032-26.503906-42.496094-26.503906s-34.796875 10.808594-42.5 26.503906c9.84375 12.664063 25.21875 20.8125 42.5 20.8125zm0 0"/></g></svg>