<svg height="512pt" viewBox="0 0 512 512" width="512pt" xmlns="http://www.w3.org/2000/svg"><path d="m512 256c0 141.386719-114.613281 256-256 256s-256-114.613281-256-256 114.613281-256 256-256 256 114.613281 256 256zm0 0" fill="#27488f"/><path d="m509.878906 289.058594-209.082031-209.082032-89.457031 89.460938 127.324218 127.328125-247.660156 88.234375 123.660156 123.660156c13.457032 2.1875 27.261719 3.339844 41.335938 3.339844 130.183594 0 237.664062-97.171875 253.878906-222.941406zm0 0" fill="#12254c"/><path d="m319.257812 124.640625c0 34.9375-28.320312 63.257813-63.257812 63.257813s-63.257812-28.320313-63.257812-63.257813 28.320312-63.257813 63.257812-63.257813 63.257812 28.320313 63.257812 63.257813zm0 0" fill="#ffe000"/><path d="m256 61.382812c-.0625 0-.128906.003907-.191406.003907v126.507812c.066406 0 .128906.003907.191406.003907 34.9375 0 63.257812-28.324219 63.257812-63.257813 0-34.9375-28.320312-63.257813-63.257812-63.257813zm0 0" fill="#ffc200"/><path d="m300.660156 124.640625c0 24.664063-19.992187 44.660156-44.660156 44.660156s-44.660156-19.996093-44.660156-44.660156c0-24.667969 19.992187-44.664063 44.660156-44.664063s44.660156 19.996094 44.660156 44.664063zm0 0" fill="#fdba12"/><path d="m256 79.976562c-.0625 0-.128906.003907-.191406.003907v89.316406c.066406 0 .128906.003906.191406.003906 24.664062 0 44.660156-19.996093 44.660156-44.660156 0-24.667969-19.996094-44.664063-44.660156-44.664063zm0 0" fill="#ffa300"/><path d="m91.003906 256h152v129h-152zm0 0" fill="#ffe000"/><path d="m268.996094 281.949219h152v103.050781h-152zm0 0" fill="#ffc200"/><path d="m180 199.898438h152v185.101562h-152zm0 0" fill="#ff432e"/><path d="m255.808594 199.898438h76.191406v185.101562h-76.191406zm0 0" fill="#db0404"/></svg>