<svg height="512pt" viewBox="0 0 512 512" width="512pt" xmlns="http://www.w3.org/2000/svg"><path d="m512 256c0 141.386719-114.613281 256-256 256s-256-114.613281-256-256 114.613281-256 256-256 256 114.613281 256 256zm0 0" fill="#ffe000"/><path d="m511.996094 256.210938-176.421875-176.421876-270.082031 229.160157 102.308593 102.308593-21.972656 23.742188 74.519531 74.515625c11.652344 1.625 23.550782 2.484375 35.652344 2.484375 141.3125 0 255.882812-114.5 255.996094-255.789062zm0 0" fill="#ffc200"/><path d="m326.511719 431.128906-140.894531-235.566406 12.328124-.488281 114.1875-112.277344 119.359376 122.105469-15.199219.597656zm-108.152344-217.839844 104.714844 175.082032 72.445312-182.054688zm93.507813-103.585937-85.691407 84.261719 161.832031-6.367188zm0 0" fill="#fff"/><path d="m431.492188 204.902344-119.359376-122.105469-113.4375 111.542969 130.523438 229.988281 87.074219-218.828125zm-119.625-95.199219 76.140624 77.894531-161.832031 6.367188zm11.207031 278.667969-104.714844-175.082032 177.160156-6.972656zm0 0" fill="#e9edf5"/><path d="m151.789062 426.757812 1.46875-8.066406-80.6875-127.746094 143.15625-108.910156-40.976562 224.707032 149.632812-6.484376.820313 18.984376zm-53.855468-131.234374 60.359375 95.558593 29.957031-164.269531zm0 0" fill="#fff"/><path d="m188.519531 416.75c0 13.945312-11.304687 25.25-25.25 25.25-13.945312 0-25.25-11.304688-25.25-25.25s11.304688-25.25 25.25-25.25c13.945313 0 25.25 11.304688 25.25 25.25zm0 0" fill="#27488f"/><path d="m435 196.25c0 13.945312-11.304688 25.25-25.25 25.25s-25.25-11.304688-25.25-25.25 11.304688-25.25 25.25-25.25 25.25 11.304688 25.25 25.25zm0 0" fill="#12254c"/><path d="m341.6875 96.25c0 13.945312-11.304688 25.25-25.25 25.25s-25.25-11.304688-25.25-25.25 11.304688-25.25 25.25-25.25 25.25 11.304688 25.25 25.25zm0 0" fill="#12254c"/><path d="m350.042969 409.75c0 13.945312-11.304688 25.25-25.25 25.25-13.945313 0-25.25-11.304688-25.25-25.25s11.304687-25.25 25.25-25.25c13.945312 0 25.25 11.304688 25.25 25.25zm0 0" fill="#27488f"/><path d="m350.042969 409.75c0-13.945312-11.304688-25.25-25.25-25.25-5.734375 0-11.023438 1.914062-15.261719 5.140625l24.703125 43.527344c9.265625-3.738281 15.808594-12.8125 15.808594-23.417969zm0 0" fill="#12254c"/><path d="m110.5 293.234375c0 13.945313-11.304688 25.25-25.25 25.25s-25.25-11.304687-25.25-25.25 11.304688-25.25 25.25-25.25 25.25 11.304687 25.25 25.25zm0 0" fill="#27488f"/><path d="m235.941406 278.699219 40.710938-40.707031 69.773437 69.773437-40.707031 40.710937zm0 0" fill="#27488f"/><path d="m256.378906 258.261719 20.269532-20.273438 69.777343 69.777344-20.269531 20.273437zm0 0" fill="#12254c"/><path d="m299.542969 204.425781c0 53.875-43.675781 97.554688-97.554688 97.554688-53.878906 0-97.554687-43.679688-97.554687-97.554688 0-53.878906 43.675781-97.558593 97.554687-97.558593 53.878907 0 97.554688 43.679687 97.554688 97.558593zm0 0" fill="#27488f"/><path d="m299.542969 204.425781c0-53.878906-43.675781-97.558593-97.554688-97.558593-26.796875 0-51.070312 10.808593-68.703125 28.300781l137.960938 137.957031c17.488281-17.632812 28.296875-41.902344 28.296875-68.699219zm0 0" fill="#12254c"/><path d="m255.523438 150.882812c-29.566407-29.566406-77.507813-29.566406-107.078126 0-29.570312 29.570313-29.570312 77.511719 0 107.082032 29.570313 29.570312 77.511719 29.570312 107.078126 0 29.570312-29.570313 29.570312-77.511719 0-107.082032zm0 0" fill="#fff"/><path d="m255.527344 150.882812c-29.476563-29.476562-77.203125-29.5625-106.796875-.269531l107.070312 107.066407c29.289063-29.589844 29.203125-77.320313-.273437-106.796876zm0 0" fill="#e9edf5"/><path d="m274.742188 183.4375-37.46875 5.042969c-1.871094-4.144531-4.503907-8.027344-7.90625-11.433594-15.121094-15.121094-39.636719-15.121094-54.757813 0-11.769531 11.769531-14.375 29.234375-7.820313 43.527344l-27.003906 27.007812c2.535156 3.648438 5.410156 7.132813 8.660156 10.382813 2.402344 2.402344 4.9375 4.589844 7.5625 6.601562l26.609376-26.613281c14.8125 8.566406 34.078124 6.519531 46.75-6.148437 5.671874-5.675782 9.21875-12.671876 10.632812-19.996094l37.652344-5.070313c.238281-7.839843-.726563-15.707031-2.910156-23.300781zm0 0" fill="#ff432e"/><path d="m240 211.808594 37.652344-5.070313c.238281-7.839843-.726563-15.707031-2.910156-23.300781l-37.46875 5.042969c-1.871094-4.144531-4.5-8.027344-7.90625-11.433594-15.027344-15.027344-39.332032-15.113281-54.472657-.269531l54.738281 54.738281c5.511719-5.625 8.972657-12.503906 10.367188-19.707031zm0 0" fill="#db0404"/></svg>