<svg height="512pt" viewBox="0 0 512 512" width="512pt" xmlns="http://www.w3.org/2000/svg"><path d="m512 256c0 141.386719-114.613281 256-256 256s-256-114.613281-256-256 114.613281-256 256-256 256 114.613281 256 256zm0 0" fill="#abddff"/><path d="m260.445312 511.945312c127.027344-2.167968 231.503907-96.84375 248.96875-219.5625l-150.039062-150.035156-31.664062 43.113282-95.996094-95.996094-93.910156 93.90625 67.707031 67.707031-14.371094 8.253906-37.371094-37.371093-53.578125 89.597656 75.378906 75.378906-20.179687 19.953125zm0 0" fill="#78b0f0"/><path d="m440.363281 316.972656v-44.066406c0-33.394531-27.167969-60.566406-60.566406-60.566406-33.394531 0-60.566406 27.171875-60.566406 60.566406v5.417969h-99.113281v-56.363281h-33.230469v56.363281h-33.117188v-56.363281h-33.230469v56.363281h-20.347656v33.230469h219.042969v5.421874c0 33.394532 27.167969 60.5625 60.5625 60.5625s60.566406-27.167968 60.566406-60.566406zm-87.898437 0v-44.066406c0-15.070312 12.261718-27.335938 27.332031-27.335938 15.074219 0 27.335937 12.265626 27.335937 27.335938v44.066406c0 15.074219-12.261718 27.335938-27.335937 27.335938-15.070313 0-27.332031-12.261719-27.332031-27.335938zm0 0" fill="#27488f"/><path d="m407.132812 294.59375v22.378906c0 15.074219-12.261718 27.335938-27.335937 27.335938-15.070313 0-27.332031-12.261719-27.332031-27.335938v-22.378906h-252.273438v16.960938h219.042969v5.417968c0 33.398438 27.167969 60.566406 60.5625 60.566406 33.398437 0 60.566406-27.167968 60.566406-60.566406v-22.378906zm0 0" fill="#12254c"/><path d="m251.234375 136.488281c0 36.671875-29.730469 66.402344-66.40625 66.402344-36.671875 0-66.402344-29.730469-66.402344-66.402344 0-36.675781 29.730469-66.40625 66.402344-66.40625 36.675781 0 66.40625 29.730469 66.40625 66.40625zm0 0" fill="#ffe000"/><path d="m184.828125 70.082031c-.148437 0-.296875.011719-.445313.011719v132.789062c.148438 0 .296876.007813.445313.007813 36.675781 0 66.40625-29.730469 66.40625-66.402344 0-36.675781-29.730469-66.40625-66.40625-66.40625zm0 0" fill="#ffc200"/><path d="m231.714844 136.488281c0 25.890625-20.992188 46.882813-46.886719 46.882813-25.890625 0-46.882813-20.992188-46.882813-46.882813 0-25.894531 20.992188-46.886719 46.882813-46.886719 25.894531 0 46.886719 20.992188 46.886719 46.886719zm0 0" fill="#fdba12"/><path d="m184.828125 89.601562c-.148437 0-.296875.011719-.445313.011719v93.746094c.148438 0 .296876.011719.445313.011719 25.894531 0 46.886719-20.992188 46.886719-46.882813 0-25.894531-20.992188-46.886719-46.886719-46.886719zm0 0" fill="#ffa300"/><path d="m368.738281 168.625c0 22.957031-18.609375 41.570312-41.566406 41.570312s-41.570313-18.613281-41.570313-41.570312 18.613282-41.570312 41.570313-41.570312 41.566406 18.613281 41.566406 41.570312zm0 0" fill="#ffe000"/><path d="m327.171875 127.054688c-.179687 0-.351563.011718-.527344.011718v83.113282c.175781.003906.347657.011718.527344.011718 22.957031 0 41.566406-18.609375 41.566406-41.566406.003907-22.957031-18.609375-41.570312-41.566406-41.570312zm0 0" fill="#ffc200"/><path d="m356.519531 168.625c0 16.210938-13.140625 29.347656-29.347656 29.347656-16.210937 0-29.351563-13.136718-29.351563-29.347656s13.140626-29.347656 29.351563-29.347656c16.207031 0 29.347656 13.136718 29.347656 29.347656zm0 0" fill="#fdba12"/><path d="m327.171875 139.277344c-.179687 0-.351563.007812-.527344.011718v58.671876c.175781.003906.347657.011718.527344.011718 16.207031 0 29.347656-13.136718 29.347656-29.347656s-13.140625-29.347656-29.347656-29.347656zm0 0" fill="#ffa300"/><path d="m226.398438 377.539062c0 22.957032-18.613282 41.570313-41.570313 41.570313s-41.566406-18.613281-41.566406-41.570313c0-22.957031 18.609375-41.566406 41.566406-41.566406s41.570313 18.609375 41.570313 41.566406zm0 0" fill="#ffe000"/><path d="m184.828125 335.96875c-.148437 0-.296875.011719-.445313.011719v83.117187c.148438 0 .296876.011719.445313.011719 22.957031 0 41.570313-18.613281 41.570313-41.570313 0-22.957031-18.613282-41.570312-41.570313-41.570312zm0 0" fill="#ffc200"/><path d="m214.179688 377.539062c0 16.210938-13.140626 29.351563-29.351563 29.351563-16.207031 0-29.347656-13.140625-29.347656-29.351563 0-16.207031 13.140625-29.347656 29.347656-29.347656 16.210937 0 29.351563 13.140625 29.351563 29.347656zm0 0" fill="#fdba12"/><path d="m184.828125 348.191406c-.148437 0-.296875.007813-.445313.007813v58.679687c.148438 0 .296876.007813.445313.007813 16.210937 0 29.351563-13.140625 29.351563-29.347657 0-16.207031-13.140626-29.347656-29.351563-29.347656zm0 0" fill="#ffa300"/></svg>