<svg height="512pt" viewBox="0 0 512 512" width="512pt" xmlns="http://www.w3.org/2000/svg"><path d="m512 256c0 141.386719-114.613281 256-256 256s-256-114.613281-256-256 114.613281-256 256-256 256 114.613281 256 256zm0 0" fill="#27488f"/><path d="m338.605469 96.863281-124.8125 340.355469 72.9375 72.9375c122.382812-14.640625 218.230469-115.609375 224.890625-240.273438zm0 0" fill="#12254c"/><path d="m375 182.511719c0-66.308594-54.238281-119.953125-120.769531-118.988281-63.890625.929687-116.070313 52.921874-117.210938 116.808593-.539062 30.164063 10.144531 57.816407 28.15625 79.070313 25.308594 29.859375 38.597657 68.082031 38.597657 107.226562v10.910156h104.453124v-11.375c0-38.953124 13.28125-76.96875 38.503907-106.65625 17.632812-20.75 28.269531-47.628906 28.269531-76.996093zm0 0" fill="#fff"/><path d="m255.808594 63.523438v314.015624h52.417968v-11.375c0-38.953124 13.28125-76.96875 38.503907-106.65625 17.632812-20.75 28.269531-47.628906 28.269531-76.996093 0-65.785157-53.382812-119.089844-119.191406-118.988281zm0 0" fill="#e9edf5"/><path d="m203.773438 369.890625v43.5c0 21.324219 21.011718 38.609375 46.9375 38.609375h10.578124c25.925782 0 46.9375-17.285156 46.9375-38.609375v-43.5zm0 0" fill="#ffd400"/><path d="m255.808594 369.890625v82.109375h5.480468c25.925782 0 46.9375-17.285156 46.9375-38.609375v-43.5zm0 0" fill="#fdba12"/><path d="m274.164062 224.921875v-12.097656h-36.328124v12.097656c0 5.480469-3.429688 10.378906-8.582032 12.257813l-55.859375 20.34375c21.601563 20.261718 50.652344 32.675781 82.605469 32.675781s61.003906-12.414063 82.605469-32.675781l-55.859375-20.34375c-5.152344-1.878907-8.582032-6.777344-8.582032-12.257813zm0 0" fill="#faa68e"/><path d="m338.605469 257.523438-55.859375-20.34375c-5.152344-1.878907-8.582032-6.777344-8.582032-12.257813v-12.101563h-18.355468v77.375h.191406c31.953125 0 61.003906-12.414062 82.605469-32.671874zm0 0" fill="#e09380"/><path d="m224.585938 161.824219c0 8.617187-6.988282 15.601562-15.605469 15.601562-8.617188 0-15.601563-6.984375-15.601563-15.601562 0-8.617188 6.984375-15.605469 15.601563-15.605469 8.617187 0 15.605469 6.988281 15.605469 15.605469zm0 0" fill="#ffbeaa"/><path d="m318.621094 161.824219c0 8.617187-6.984375 15.601562-15.601563 15.601562-8.617187 0-15.605469-6.984375-15.605469-15.601562 0-8.617188 6.988282-15.605469 15.605469-15.605469 8.617188 0 15.601563 6.988281 15.601563 15.605469zm0 0" fill="#faa68e"/><path d="m276.773438 220.234375-10.417969 5.355469c-6.5 3.335937-14.210938 3.335937-20.710938 0l-10.417969-5.355469c-15.441406-7.929687-25.148437-23.832031-25.148437-41.1875v-40.613281c0-25.359375 20.5625-45.921875 45.921875-45.921875 25.363281 0 45.921875 20.5625 45.921875 45.921875v40.613281c0 17.355469-9.707031 33.257813-25.148437 41.1875zm0 0" fill="#ffbeaa"/><path d="m256 92.511719c-.0625 0-.128906.007812-.191406.007812v135.566407c3.617187.03125 7.238281-.796876 10.546875-2.496094l10.417969-5.355469c15.441406-7.929687 25.148437-23.832031 25.148437-41.1875v-40.613281c0-25.359375-20.558594-45.921875-45.921875-45.921875zm0 0" fill="#faa68e"/><path d="m283.488281 87.164062h-4.761719c-1.929687 0-3.609374 1.039063-4.527343 2.582032-.78125-1.53125-2.367188-2.582032-4.203125-2.582032h-33.105469c-22.277344 0-40.339844 18.0625-40.339844 40.339844 0 7.859375 3.363281 14.933594 8.730469 19.863282v32.195312h9.433594v-26.566406c2.761718.957031 5.722656 1.480468 8.808594 1.480468h24.21875c12.242187 0 22.574218-8.160156 25.867187-19.335937 1.273437 10.886719 10.523437 19.335937 21.75 19.335937.648437 0 1.289063-.035156 1.921875-.089843v25.175781h9.4375v-28.257812c6.320312-3.839844 10.542969-10.792969 10.542969-18.730469v-11.628907c.003906-18.65625-15.121094-33.78125-33.773438-33.78125zm0 0" fill="#ffe000"/><path d="m283.488281 87.164062h-4.761719c-1.929687 0-3.609374 1.039063-4.527343 2.582032-.78125-1.53125-2.367188-2.582032-4.203125-2.582032h-14.1875v66.0625c8.546875-2.675781 15.265625-9.480468 17.804687-18.085937 1.269531 10.886719 10.519531 19.335937 21.746094 19.335937.648437 0 1.289063-.035156 1.921875-.089843v25.171875h9.4375v-28.253906c6.320312-3.839844 10.546875-10.792969 10.546875-18.730469v-11.628907c0-18.65625-15.125-33.78125-33.777344-33.78125zm0 0" fill="#ffc200"/><path d="m282.746094 237.179688c-2.507813-.914063-4.597656-2.542969-6.09375-4.605469l-20.652344 15.320312-20.652344-15.320312c-1.496094 2.0625-3.585937 3.691406-6.09375 4.605469l-55.859375 20.34375c21.601563 20.261718 50.652344 32.675781 82.605469 32.675781s61.003906-12.414063 82.605469-32.675781zm0 0" fill="#dbeeff"/><path d="m338.605469 257.523438-55.859375-20.34375c-2.503906-.914063-4.597656-2.542969-6.09375-4.605469l-20.652344 15.320312-.191406-.140625v42.441406c.066406 0 .128906.003907.191406.003907 31.953125-.003907 61.003906-12.417969 82.605469-32.675781zm0 0" fill="#bfe1ff"/><path d="m261.660156 266.46875h-11.320312l-4.71875-18.558594h20.757812zm0 0" fill="#27488f"/><path d="m266.378906 247.910156h-10.570312v18.558594h5.851562zm0 0" fill="#12254c"/><path d="m246.898438 289.855469c3.003906.226562 6.039062.339843 9.101562.339843s6.097656-.113281 9.101562-.339843l-3.441406-23.386719h-11.320312zm0 0" fill="#27488f"/><path d="m265.101562 289.855469-3.441406-23.386719h-5.851562v23.722656c.0625 0 .128906.003906.191406.003906 3.0625 0 6.097656-.113281 9.101562-.339843zm0 0" fill="#12254c"/><path d="m256 247.894531-17.140625 18.871094-14.277344-29.882813 7.671875-6.605468zm0 0" fill="#fff"/><path d="m224.582031 236.882812-52.25 19.636719c17.5625 16.871094 40.210938 28.488281 65.421875 32.304688zm0 0" fill="#4a7aff"/><path d="m256 247.894531 17.140625 18.871094 14.277344-29.882813-7.671875-6.605468zm0 0" fill="#e9edf5"/><path d="m339.667969 256.519531-52.25-19.636719-13.171875 51.941407c25.210937-3.816407 47.859375-15.433594 65.421875-32.304688zm0 0" fill="#27488f"/><path d="m237.753906 288.824219-13.167968-51.941407-17.496094 29.882813 17.496094 8.804687-5.175782 8.980469c5.929688 1.878907 12.054688 3.320313 18.34375 4.273438zm0 0" fill="#27488f"/><path d="m274.246094 288.824219 13.167968-51.941407 17.496094 29.882813-17.496094 8.804687 5.175782 8.980469c-5.929688 1.878907-12.054688 3.320313-18.34375 4.273438zm0 0" fill="#12254c"/></svg>