<svg height="512pt" viewBox="0 0 512 512" width="512pt" xmlns="http://www.w3.org/2000/svg"><path d="m512 256c0 141.386719-114.613281 256-256 256s-256-114.613281-256-256 114.613281-256 256-256 256 114.613281 256 256zm0 0" fill="#27488f"/><path d="m511.921875 262.21875-74.445313-74.445312h-362.957031l163.199219 163.199218-93.21875 70.679688 89.386719 89.386718c7.289062.625 14.660156.960938 22.113281.960938 139.304688 0 252.617188-111.269531 255.921875-249.78125zm0 0" fill="#12254c"/><path d="m437.476562 187.777344-181.476562-138.402344-181.476562 138.398438h69.828124v233.878906h223.296876v-233.875zm0 0" fill="#fff"/><path d="m256 49.375-.191406 372.277344h111.839844v-233.875h69.828124zm0 0" fill="#e9edf5"/><path d="m280.207031 379.542969v-16.121094h-48.414062v16.121094c0 7.308593-4.570313 13.835937-11.4375 16.335937l-74.441407 27.113282c28.789063 27 67.503907 43.542968 110.085938 43.542968s81.296875-16.542968 110.085938-43.542968l-74.441407-27.113282c-6.867187-2.5-11.4375-9.027344-11.4375-16.335937zm0 0" fill="#faa68e"/><path d="m366.085938 422.988281-74.441407-27.109375c-6.867187-2.5-11.4375-9.027344-11.4375-16.335937v-16.125h-24.398437v103.113281c.066406 0 .128906.003906.191406.003906 42.582031 0 81.296875-16.542968 110.085938-43.546875zm0 0" fill="#e09380"/><path d="m214.132812 295.453125c0 11.484375-9.308593 20.792969-20.792968 20.792969s-20.792969-9.308594-20.792969-20.792969 9.308594-20.792969 20.792969-20.792969 20.792968 9.308594 20.792968 20.792969zm0 0" fill="#ffbeaa"/><path d="m339.453125 295.453125c0 11.484375-9.308594 20.792969-20.792969 20.792969s-20.792968-9.308594-20.792968-20.792969 9.308593-20.792969 20.792968-20.792969 20.792969 9.308594 20.792969 20.792969zm0 0" fill="#faa68e"/><path d="m283.683594 373.300781-13.882813 7.132813c-8.664062 4.449218-18.9375 4.449218-27.601562 0l-13.882813-7.132813c-20.578125-10.570312-33.515625-31.761719-33.515625-54.894531v-54.121094c0-33.796875 27.402344-61.195312 61.199219-61.195312 33.800781 0 61.199219 27.398437 61.199219 61.195312v54.121094c0 23.132812-12.9375 44.324219-33.515625 54.894531zm0 0" fill="#ffbeaa"/><path d="m256 203.089844c-.0625 0-.128906.003906-.191406.003906v180.671875c4.800781.03125 9.601562-1.078125 13.992187-3.332031l13.882813-7.132813c20.578125-10.570312 33.515625-31.761719 33.515625-54.894531v-54.121094c0-33.796875-27.398438-61.195312-61.199219-61.195312zm0 0" fill="#faa68e"/><path d="m292.632812 195.960938h-6.347656c-2.566406 0-4.808594 1.382812-6.03125 3.441406-1.039062-2.039063-3.152344-3.441406-5.601562-3.441406h-44.117188c-29.691406 0-53.757812 24.070312-53.757812 53.757812 0 10.476562 4.484375 19.898438 11.632812 26.46875v42.90625h12.574219v-35.398438c3.679687 1.269532 7.625 1.96875 11.738281 1.96875h32.273438c16.316406 0 30.085937-10.875 34.472656-25.765624 1.695312 14.507812 14.023438 25.765624 28.984375 25.765624.863281 0 1.71875-.042968 2.5625-.117187v33.546875h12.574219v-37.65625c8.425781-5.121094 14.054687-14.382812 14.054687-24.964844v-15.496094c0-24.863281-20.152343-45.015624-45.011719-45.015624zm0 0" fill="#ff432e"/><path d="m292.632812 195.960938h-6.347656c-2.566406 0-4.808594 1.382812-6.03125 3.441406-1.039062-2.039063-3.152344-3.441406-5.601562-3.441406h-18.84375v88.039062c11.363281-3.582031 20.285156-12.652344 23.664062-24.105469 1.695313 14.507813 14.019532 25.769531 28.980469 25.769531.867187 0 1.71875-.046874 2.5625-.117187v33.546875h12.578125v-37.65625c8.425781-5.121094 14.050781-14.386719 14.050781-24.964844v-15.496094c0-24.863281-20.152343-45.015624-45.011719-45.015624zm0 0" fill="#db0404"/><path d="m291.644531 395.878906c-3.339843-1.21875-6.128906-3.390625-8.121093-6.136718l-27.523438 20.414062-27.523438-20.414062c-1.992187 2.746093-4.78125 4.917968-8.117187 6.136718l-74.445313 27.109375c28.789063 27.003907 67.503907 43.546875 110.085938 43.546875 42.585938 0 81.296875-16.542968 110.085938-43.546875zm0 0" fill="#dbeeff"/><path d="m366.085938 422.988281-74.441407-27.109375c-3.339843-1.21875-6.128906-3.390625-8.121093-6.136718l-27.523438 20.414062-.191406-.140625v56.515625c.066406 0 .128906.003906.191406.003906 42.582031 0 81.296875-16.542968 110.085938-43.546875zm0 0" fill="#bfe1ff"/><path d="m263.546875 434.914062h-15.09375l-6.285156-24.730468h27.664062zm0 0" fill="#27488f"/><path d="m269.832031 410.183594h-14.023437v24.730468h7.738281zm0 0" fill="#12254c"/><path d="m243.871094 466.082031c4.003906.296875 8.050781.453125 12.128906.453125s8.125-.15625 12.128906-.453125l-4.582031-31.167969h-15.09375zm0 0" fill="#27488f"/><path d="m268.128906 466.082031-4.582031-31.167969h-7.738281v31.617188c.0625 0 .128906.003906.191406.003906 4.078125 0 8.125-.15625 12.128906-.453125zm0 0" fill="#12254c"/><path d="m256 410.15625-22.84375 25.152344-19.023438-39.824219 10.21875-8.800781zm0 0" fill="#fff"/><path d="m214.132812 395.484375-69.632812 26.167969c23.402344 22.484375 53.585938 37.964844 87.183594 43.054687zm0 0" fill="#4a7aff"/><path d="m256 410.15625 22.84375 25.152344 19.023438-39.824219-10.21875-8.800781zm0 0" fill="#e9edf5"/><path d="m367.5 421.652344-69.632812-26.167969-17.550782 69.222656c33.597656-5.089843 63.78125-20.570312 87.183594-43.054687zm0 0" fill="#27488f"/><path d="m231.683594 464.707031-17.550782-69.222656-23.316406 39.824219 23.316406 11.734375-6.898437 11.964843c7.90625 2.507813 16.070313 4.429688 24.449219 5.699219zm0 0" fill="#27488f"/><path d="m280.316406 464.707031 17.550782-69.222656 23.316406 39.824219-23.316406 11.734375 6.898437 11.964843c-7.90625 2.507813-16.070313 4.429688-24.449219 5.699219zm0 0" fill="#12254c"/></svg>