<svg height="512pt" viewBox="0 0 512 512" width="512pt" xmlns="http://www.w3.org/2000/svg"><path d="m512 256c0 141.386719-114.613281 256-256 256s-256-114.613281-256-256 114.613281-256 256-256 256 114.613281 256 256zm0 0" fill="#27488f"/><path d="m512 256c0-17.011719-1.675781-33.628906-4.839844-49.714844l-118.417968-118.414062-31.253907 23.15625-36.488281-36.488282-10.066406 18.113282-31.230469-31.230469-156.445313 373.578125 68.996094 68.996094c20.378906 5.222656 41.738282 8.003906 63.746094 8.003906 141.386719 0 256-114.613281 256-256zm0 0" fill="#12254c"/><path d="m123.257812 87.871094h265.484376v347.128906h-265.484376zm0 0" fill="#ffe000"/><path d="m255.808594 87.871094h132.933594v347.128906h-132.933594zm0 0" fill="#ffc200"/><path d="m143.777344 87.871094h224.441406v320.460937h-224.441406zm0 0" fill="#fff"/><path d="m255.808594 87.871094h112.414062v320.460937h-112.414062zm0 0" fill="#e9edf5"/><path d="m286.007812 74.539062c-2.917968-13.898437-15.242187-24.335937-30.007812-24.335937s-27.089844 10.4375-30.007812 24.332031h-34.992188v51h130v-51h-34.992188zm0 0" fill="#ff432e"/><path d="m321 74.539062h-34.992188c-2.917968-13.898437-15.242187-24.335937-30.007812-24.335937-.0625 0-.128906.003906-.191406.003906v75.328125h65.191406zm0 0" fill="#db0404"/><path d="m174.25 216.769531-24.511719-24.507812 12.023438-12.023438 12.488281 12.492188 36.238281-36.242188 12.023438 12.023438zm0 0" fill="#ff432e"/><path d="m174.25 322.519531-24.511719-24.507812 12.023438-12.023438 12.488281 12.492188 36.238281-36.242188 12.023438 12.023438zm0 0" fill="#ff432e"/><path d="m225.5 190h118v17h-118zm0 0" fill="#636978"/><path d="m255.808594 190h87.691406v17h-87.691406zm0 0" fill="#27488f"/><path d="m225.5 293h118v17h-118zm0 0" fill="#636978"/><path d="m255.808594 293h87.691406v17h-87.691406zm0 0" fill="#27488f"/></svg>